<?xml version="1.0" encoding="utf-8" ?>
<svg baseProfile="full" height="300mm" version="1.1" viewBox="0,0,200,300" width="200mm" xmlns="http://www.w3.org/2000/svg" xmlns:ev="http://www.w3.org/2001/xml-events" xmlns:xlink="http://www.w3.org/1999/xlink"><defs /><rect fill="#222222" height="300" width="200" x="0" y="0" /><text fill="#FFFFFF" style="font-size:12px; font-family:Arial; font-weight:bold;" x="10" y="20">10km 以上跑步</text><text fill="#FFFFFF" style="font-size:4px; font-family:Arial" x="10" y="280">跑者</text><text fill="#FFFFFF" style="font-size:9px; font-family:Arial" x="10" y="290">未有期</text><text fill="#FFFFFF" style="font-size:4px; font-family:Arial" x="65" y="280">特殊里程</text><rect fill="yellow" height="2.6" width="2.6" x="65" y="283" /><text fill="#FFFFFF" style="font-size:3px; font-family:Arial" x="70" y="285.5">超过 20.0 km</text><rect fill="red" height="2.6" width="2.6" x="65" y="287" /><text fill="#FFFFFF" style="font-size:3px; font-family:Arial" x="70" y="289.5">超过 40.0 km</text><text fill="#FFFFFF" style="font-size:4px; font-family:Arial" x="120" y="280">统计</text><text fill="#FFFFFF" style="font-size:3px; font-family:Arial" x="120" y="285">次数: 1</text><text fill="#FFFFFF" style="font-size:3px; font-family:Arial" x="120" y="290">周均: 1.0</text><text fill="#FFFFFF" style="font-size:3px; font-family:Arial" x="141" y="285">总里程: 10.0 km</text><text fill="#FFFFFF" style="font-size:3px; font-family:Arial" x="141" y="290">平均: 10.0 km</text><text fill="#FFFFFF" style="font-size:3px; font-family:Arial" x="167" y="285">最短: 10.0 km</text><text fill="#FFFFFF" style="font-size:3px; font-family:Arial" x="167" y="290">最长: 10.0 km</text><polyline fill="none" opacity="1" points="93.10697279125452,224.40703282039613 112.56963785365224,220.6396208666265 128.78852540627122,209.33737568557262 136.897969186306,191.44212555605918 137.70891356095672,133.98871715273708 136.0870248042047,96.3141548326239 117.43530412018299,74.65121115092188 98.78358343616128,69.0 74.45525210723281,78.41868330631405 60.66919768601656,101.96534908562899 59.85825330764055,158.47709934134036 63.10203081741929,204.62810273468494 84.99752901494503,222.52332703582942 110.94774909690022,223.4651799770072 126.35569227486849,214.04664620943367 136.0870248042047,198.03511652443558 137.70891356095672,154.70966020133346 135.27608042955399,101.02348362095654 127.9775810316205,85.01175584364682 103.64924969896674,71.82560601085424 78.50997399166226,76.53494742047042 65.53486395254731,89.7210904546082 59.85825330764055,136.81430306192487 59.85825330764055,192.38398170098662 76.07714086025953,214.98850002419204 101.21641656383872,223.4651799770072 125.54474790021777,212.1629382930696 136.897969186306,188.61655653920025 138.51985793933272,143.40733345411718 134.46513605117798,97.2560207862407 123.92285914346576,83.12802131660283 98.78358343616128,72.76747448928654 81.75375150516629,75.59307933412492 68.77864145860076,86.89548997860402 62.29108643904328,104.79094490222633 60.66919768601656,158.47709934134036 61.48014206439257,194.26769369561225 69.58958584070206,210.27922998648137 84.18658464029431,221.58147400058806 110.13680472224951,221.58147400058806 124.73380351811647,213.1047922996804 137.70891356095672,173.54684037249535 136.897969186306,119.86077449005097 132.03230291977525,93.48855639901012 120.67908162996173,79.36055110301822 95.53980592638254,72.76747448928654 78.50997399166226,77.47681541368365 67.15675270557404,89.7210904546082 61.48014206439257,124.57009113766253 61.48014206439257,178.25612934213132 66.34580833092332,203.68624785356224 78.50997399166226,217.81406088359654 95.53980592638254,222.52332703582942 112.56963785365224,220.6396208666265 126.35569227486849,209.33737568557262 136.897969186306,167.89569039829075 136.897969186306,114.20959130767733 126.35569227486849,82.18615390919149 111.75869347900152,72.76747448928654 88.24130652472377,71.82560601085424 70.40053021907806,90.66295708622783 63.10203081741929,123.62822800409049 60.66919768601656,176.37241404689848 62.29108643904328,198.03511652443558 76.88808523863554,215.93035373929888 98.78358343616128,222.52332703582942 120.67908162996173,214.98850002419204 138.51985793933272,176.37241404689848 136.897969186306,142.46547226142138 136.0870248042047,99.13975239824504 123.92285914346576,77.47681541368365 99.594527810812,69.9418687671423 76.88808523863554,79.36055110301822 65.53486395254731,92.54669005703181 60.66919768601656,126.45381711795926 60.66919768601656,191.44212555605918 66.34580833092332,207.45366679597646 85.80847339332104,221.58147400058806 118.246248498559,218.75591430813074 134.46513605117798,199.918827354908 137.70891356095672,133.98871715273708 132.84324729442596,93.48855639901012 116.62435974553227,75.59307933412492 85.80847339332104,73.709342867136 67.15675270557404,90.66295708622783 59.85825330764055,123.62822800409049 60.66919768601656,189.55841297656298 71.21147459372878,211.22108418866992 84.18658464029431,220.6396208666265 107.70397158712149,222.52332703582942 133.65419167652726,202.74439287371933 138.51985793933272,155.65152013208717 135.27608042955399,99.13975239824504 121.49002600833774,83.12802131660283 91.4850840345025,74.65121115092188 76.88808523863554,81.2442864049226 62.29108643904328,101.02348362095654 59.85825330764055,142.46547226142138 60.66919768601656,193.32583774626255 73.64430772513151,214.04664620943367 97.16169467940927,222.52332703582942 126.35569227486849,210.27922998648137 137.70891356095672,163.1863960828632 137.70891356095672,104.79094490222633 131.22135853767395,88.77922372706234 117.43530412018299,77.47681541368365 92.29602841287851,73.709342867136 76.07714086025953,82.18615390919149 63.10203081741929,103.84907972905785 61.48014206439257,157.53523970022798 62.29108643904328,191.44212555605918 67.96769708395004,208.39552129153162 80.94280712679029,219.69776763487607 105.27113845944405,222.52332703582942 120.67908162996173,214.98850002419204 136.0870248042047,184.84912982955575 136.897969186306,132.10499272681773 128.78852540627122,90.66295708622783 115.81341536343098,79.36055110301822 90.67413965985179,75.59307933412492 70.40053021907806,91.60482362192124 62.29108643904328,127.39567996002734 61.48014206439257,181.08170156367123 67.15675270557404,206.51181220728904 86.61941776797175,221.58147400058806 112.56963785365224,219.69776763487607 131.22135853767395,204.62810273468494 138.51985793933272,171.66312410030514 136.897969186306,117.97704715374857 130.41041416674852,91.60482362192124 117.43530412018299,79.36055110301822 99.594527810812,74.65121115092188 82.56469587981701,77.47681541368365 69.58958584070206,88.77922372706234 61.48014206439257,132.10499272681773 61.48014206439257,183.90727290697396 64.7239195741713,201.80253779888153 74.45525210723281,214.98850002419204 89.86319527775049,222.52332703582942 107.70397158712149,226.2907382119447 122.30097038671374,217.81406088359654 136.0870248042047,185.79098665528 136.0870248042047,150.00035908911377 135.27608042955399,104.79094490222633 124.73380351811647,83.12802131660283 98.78358343616128,74.65121115092188 80.94280712679029,78.41868330631405 67.96769708395004,91.60482362192124 62.29108643904328,109.5002693189308 61.48014206439257,168.83754896838218 66.34580833092332,203.68624785356224 78.50997399166226,215.93035373929888 93.91791716963053,221.58147400058806 110.13680472224951,219.69776763487607 124.73380351811647,210.27922998648137 133.65419167652726,196.151405303739 137.70891356095672,138.6980265174061 127.1666366532445,89.7210904546082 114.19152661040425,78.41868330631405 97.97263905778527,75.59307933412492 75.26619648188353,84.06988862901926 64.7239195741713,98.19788664206862 61.48014206439257,150.00035908911377 61.48014206439257,193.32583774626255 75.26619648188353,214.98850002419204 90.67413965985179,222.52332703582942 122.30097038671374,214.04664620943367 132.84324729442596,200.8606826243922 138.51985793933272,159.41895888466388 137.70891356095672,111.38399840518832 134.46513605117798,96.3141548326239 125.54474790021777,82.18615390919149 101.21641656383872,72.76747448928654 78.50997399166226,81.2442864049226 63.9129751957953,101.96534908562899 62.29108643904328,168.83754896838218 68.77864145860076,208.39552129153162 80.13186274841428,218.75591430813074 102.02736094594002,231.0 124.73380351811647,215.93035373929888 133.65419167652726,199.918827354908 135.27608042955399,147.17477725818753 135.27608042955399,114.20959130767733 127.1666366532445,101.96534908562899 123.92285914346576,86.89548997860402 106.08208283036947,74.65121115092188 81.75375150516629,77.47681541368365 65.53486395254731,97.2560207862407 60.66919768601656,138.6980265174061 62.29108643904328,197.09326096158475 76.07714086025953,216.87220736034214 99.594527810812,223.4651799770072 122.30097038671374,214.04664620943367 136.0870248042047,184.84912982955575 137.70891356095672,118.91891087032855 134.46513605117798,95.37228878587484 108.5149159654975,72.76747448928654 85.80847339332104,78.41868330631405 66.34580833092332,95.37228878587484 62.29108643904328,136.81430306192487 61.48014206439257,185.79098665528 70.40053021907806,209.33737568557262 82.56469587981701,218.75591430813074 106.89302721247077,221.58147400058806 127.9775810316205,209.33737568557262 136.897969186306,185.79098665528 136.0870248042047,118.91891087032855 133.65419167652726,95.37228878587484 117.43530412018299,77.47681541368365 92.29602841287851,74.65121115092188 66.34580833092332,93.48855639901012 61.48014206439257,133.0468549868092 60.66919768601656,189.55841297656298 70.40053021907806,212.1629382930696 91.4850840345025,226.2907382119447 115.00247098505497,219.69776763487607 131.22135853767395,203.68624785356224 139.33080231770873,163.1863960828632 140.14174669608474,119.86077449005097 132.03230291977525,93.48855639901012 112.56963785365224,76.53494742047042 95.53980592638254,72.76747448928654 80.13186274841428,77.47681541368365 64.7239195741713,96.3141548326239 61.48014206439257,146.23291645105928 63.10203081741929,196.151405303739 77.69902961701155,215.93035373929888 92.29602841287851,221.58147400058806 109.3258603438735,220.6396208666265 129.59946978464723,206.51181220728904 136.897969186306,174.48869835957885 136.897969186306,108.55840462818742 132.03230291977525,93.48855639901012 114.19152661040425,76.53494742047042 90.67413965985179,74.65121115092188 66.34580833092332,92.54669005703181 61.48014206439257,133.0468549868092 62.29108643904328,190.50026931334287 72.8333633504808,211.22108418866992 93.91791716963053,221.58147400058806 123.92285914346576,212.1629382930696 133.65419167652726,198.97697198949754 136.0870248042047,133.98871715273708 136.0870248042047,101.02348362095654 127.1666366532445,85.95362296048552 114.19152661040425,76.53494742047042 89.86319527775049,74.65121115092188 69.58958584070206,88.77922372706234 61.48014206439257,110.44213391188532 61.48014206439257,158.47709934134036 65.53486395254731,198.97697198949754 88.24130652472377,220.6396208666265 111.75869347900152,219.69776763487607 133.65419167652726,197.09326096158475 140.14174669608474,133.0468549868092 136.0870248042047,101.02348362095654 122.30097038671374,81.2442864049226" stroke="#4DD2FF" stroke-dasharray="none" stroke-linecap="round" stroke-linejoin="round" stroke-width="0.5"><title>2025-06-07 10.0km</title><desc>9223370287551093656</desc></polyline></svg>