<?xml version="1.0" encoding="utf-8" ?>
<svg baseProfile="full" height="300mm" version="1.1" viewBox="0,0,200,300" width="200mm" xmlns="http://www.w3.org/2000/svg" xmlns:ev="http://www.w3.org/2001/xml-events" xmlns:xlink="http://www.w3.org/1999/xlink"><defs /><rect fill="#222222" height="300" width="200" x="0" y="0" /><text fill="#FFFFFF" style="font-size:12px; font-family:Arial; font-weight:bold;" x="10" y="20">10km 以上跑步</text><text fill="#FFFFFF" style="font-size:4px; font-family:Arial" x="10" y="280">跑者</text><text fill="#FFFFFF" style="font-size:9px; font-family:Arial" x="10" y="290">未有期</text><text fill="#FFFFFF" style="font-size:4px; font-family:Arial" x="65" y="280">特殊里程</text><rect fill="yellow" height="2.6" width="2.6" x="65" y="283" /><text fill="#FFFFFF" style="font-size:3px; font-family:Arial" x="70" y="285.5">超过 20.0 km</text><rect fill="red" height="2.6" width="2.6" x="65" y="287" /><text fill="#FFFFFF" style="font-size:3px; font-family:Arial" x="70" y="289.5">超过 40.0 km</text><text fill="#FFFFFF" style="font-size:4px; font-family:Arial" x="120" y="280">统计</text><text fill="#FFFFFF" style="font-size:3px; font-family:Arial" x="120" y="285">次数: 5</text><text fill="#FFFFFF" style="font-size:3px; font-family:Arial" x="120" y="290">周均: 1.0</text><text fill="#FFFFFF" style="font-size:3px; font-family:Arial" x="141" y="285">总里程: 72.3 km</text><text fill="#FFFFFF" style="font-size:3px; font-family:Arial" x="141" y="290">平均: 14.5 km</text><text fill="#FFFFFF" style="font-size:3px; font-family:Arial" x="167" y="285">最短: 10.0 km</text><text fill="#FFFFFF" style="font-size:3px; font-family:Arial" x="167" y="290">最长: 25.0 km</text><polyline fill="none" opacity="1" points="34.124693892896175,34.87808545207372 38.73609233321622,36.72206195403123 43.876667643897235,37.95137740322389 47.2029222571291,38.91726686793845 52.57028765510768,40.49781090184115 57.18168609589338,41.81492868839996 62.246664710808545,43.13204443769064 67.61403010878712,44.62477315712022 71.4694615919143,46.02969191415468 72.52781533217058,49.89320654288167 71.92304176604375,53.844510189199354 71.54505828768015,57.09334611753002 71.24267150461674,61.044616351427976 71.09147811308503,64.29342480795458 70.63789793848991,69.12271176779177 70.56230124272406,73.95197133917827 70.1843177638948,77.99096740258392 69.65514089399949,83.61040831776336 69.27715741517022,88.79079756117426 68.74798054480925,94.49796956509817 68.89917393634096,96.69302553596208 68.44559376174584,100.20510332094273 68.14320697914809,103.01475512009347 67.53843341302127,105.56099405657733 64.06098540872335,104.5073788681766 59.97876383829862,102.1367399286828 55.44296209374443,99.85389619437046 52.94827113393694,98.62467011011904 50.151193391066045,96.69302553596208 45.388601559214294,95.20038809149992 40.62600972736254,92.39071051013889 36.770578243769705,90.10784064925974 34.50267737172544,88.96640342375031 31.554406237322837,87.12254005856812 29.28650536481291,85.80549235327635 27.547781362663954,84.22503241809318 28.45494171185419,81.23971120401984 30.269262409769,76.0592760234722 30.79843928012997,72.45929403236369 30.79843928012997,66.92758472688729 30.57164919283241,64.29342480795458 30.496052497066557,59.28849851107225 30.04247232247144,54.28354279580526 29.51329545211047,48.400487059901934 29.059715277981013,43.39546734315809 29.28650536481291,39.00507494696649 29.966875626705587,35.58055316179525 31.63000293308869,35.14151091122767 35.939014590810984,36.37082864250988 41.30637998878956,37.77576101914747 46.29576190793887,39.09288301685592 49.622016521170735,39.795347248902544 54.91378522338346,41.28808181831846 57.8620563573204,42.34177523263497 61.717487840447575,43.4832749600173 64.59016227861866,44.1857355699176 68.06761028338224,44.97600306372624 71.09147811308503,46.02969191415468 72.52781533217058,47.961451419920195 72.07423515804112,52.790831009682734 71.54505828768015,57.70798935811035 71.09147811308503,62.62511931109475 70.94028472201899,65.17147901962744 70.56230124272406,69.47393156937324 70.25991446012631,74.83001559128752 69.88193098129705,78.95681144896662 69.73073758976534,83.61040831776336 69.42835080670193,87.38594935508445 69.27715741517022,89.22981215000618 68.74798054480925,94.05895769200288 68.59678715374321,97.83445240481524 68.2944003706798,100.55631030281074 68.14320697914809,104.24397486739326 66.55567636806518,105.73659646132728 63.834195321425796,103.80496801872505 60.20555392559618,101.6977319935686 56.12333235517144,99.94169798947405 53.17506122076884,98.36126428970601 50.83156365295872,97.13203605113085 45.84218173334375,94.67357425123919 43.347490774001926,93.53214314562501 41.986750250682235,92.56631563027622 38.811689029447734,91.2492763446644 35.939014590810984,89.66882651281776 32.08358310768381,87.38594935508445 28.076958233490586,85.36647599888965 28.606135103385895,80.97630000603385 30.420455801300704,75.70805893820943 30.647245888598263,71.75685674761189 30.420455801300704,68.06905149447266 30.34485910553485,64.38123027002439 30.269262409769,61.13242214836646 30.193665714003146,55.86405830516014 30.118069018237293,50.68346873886185 29.740085539408028,46.29311392293312 29.815682235639542,42.780813770601526 29.588892147876322,37.68795281340135 30.647245888598263,34.526851379778236 34.124693892896175,34.96589394757757 37.37535180989653,35.84397840371821 40.55041303159669,36.985486842517275 45.84218173334375,38.6538425773615 50.83156365295872,40.14657914778218 55.59415548481047,41.46369747800054 60.659134100191295,42.69300608104095 65.6485160193406,44.27354310557712 70.63789793848991,45.50284765177639 72.60341202793643,48.22487283102237 72.07423515804112,53.31767076236429 71.54505828768015,58.58605036098743 71.01588141731918,64.11781385692302 70.56230124272406,68.68368681246648 70.3355111554265,74.03977580496576 69.95752767659724,79.8348505407339 69.57954419823363,85.71768910030369 69.57954419823363,86.85913068038644 69.12596402363852,90.28344624047168 68.74798054480925,95.4637948893942 68.36999706644565,99.67829257657286 67.91641689185053,105.03418662538752 66.55567636806518,105.56099405657733 61.33950436161831,102.92695364175597 56.65250922553241,100.46850857097888 52.87267443817109,98.44906623888528 48.034485910087824,96.07841043447843 43.27189407823607,93.53214314562501 40.77720311889425,92.21510535338894 37.98012537602335,90.81026279652724 33.67111371876672,88.61519166192738 28.7573284949176,86.0689020572463 27.69897475466132,84.75185272243107 28.22815162455663,81.50312232022407 29.51329545211047,77.28853468084708 30.647245888598263,73.86416686401935 30.269262409769,69.47393156937324 30.269262409769,65.08367363910656 30.04247232247144,59.81533424358349 30.118069018237293,54.6347687181551 30.118069018237293,50.24443427618826 29.588892147876322,45.151617962750606 29.588892147876322,39.97096321656136 29.664488844107836,35.58055316179525 30.949632671196014,34.351234289526474 34.27588728442788,35.14151091122767 38.96288242051378,36.72206195403123 44.0278610358946,38.12699375109514 49.01724295504391,39.53192322986433 53.855431482661515,40.936850390338805 58.69362001074478,42.34177523263497 63.45621184259653,43.65889016690198 68.21880367491394,45.063810517662205 71.24267150461674,46.11749925959157 72.30102524533868,50.50785498082405 71.77184837497771,54.5469622509554 71.4694615919143,56.742121209565084 71.24267150461674,60.69339307298651 70.86468802578747,64.99586824985454 70.63789793848991,70.35198043903802 70.63789793848991,73.42514435318299 70.48670454742387,76.76170975918649 69.88193098129705,78.78120352199767 69.73073758976534,84.1372290024301 69.35275411093608,89.40541792241856 68.74798054480925,94.67357425123919 68.52119045797735,99.59049075411167 68.06761028338224,104.85858407564228 66.85806315159425,105.64879526331788 65.72411271510646,105.03418662538752 60.810327491723,102.31234303937526 57.63526627002284,100.90751713974169 54.76259183185175,99.50268892257009 50.2267900868319,97.21983812720282 45.61539164604619,94.67357425123919 40.85279981419444,92.30290793615859 35.78782119927928,89.84443219436798 32.91514676064253,88.17617675603833 28.303748320322484,86.0689020572463 27.16979788430035,83.78601524885744 29.362102061044425,78.34218354645418 30.269262409769,76.23488451150479 30.79843928012997,73.42514435318299 30.79843928012997,67.9812464127317 30.79843928012997,66.31294814124703 30.496052497066557,63.151952979154885 30.722842584364116,59.63972236897098 30.34485910553485,54.6347687181551 29.966875626705587,48.400487059901934 29.740085539408028,43.307659716985654 29.815682235639542,38.3026100625284 29.891278930939734,34.87808545207372 31.32761615002528,34.0 36.3925947654061,35.668361584772356 41.30637998878956,37.161103389575146 46.14456851687282,38.74165068328148 50.83156365295872,40.14657914778218 55.51855878951028,41.46369747800054 60.432344012893736,42.86862145084888 65.27053254051134,44.1857355699176 70.1087210685946,45.59065505157923 72.45221863687038,47.610222744813655 72.22542854957283,50.68346873886185 71.6962516787462,55.51283289020648 71.39386489614844,60.51778137951624 70.94028472201899,65.78611642925534 70.63789793848991,70.08856587327318 70.3355111554265,74.30318914871896 69.65514089399949,79.13241933978861 69.50394750246778,83.87381870078389 69.50394750246778,87.03473694174318 68.97477063210681,90.28344624047168 68.6723838490434,95.90280603826977 68.52119045797735,99.59049075411167 68.21880367491394,103.27815950114746 67.160449934192,105.73659646132728 65.87530610663816,105.73659646132728 62.775841580703855,103.5415638005943 58.92041009804234,101.60993037914159 53.855431482661515,99.1514815062983 51.13395043602213,97.57104634016287 47.12732556136325,95.55159713717876 42.28913703374565,93.09313077415572 37.60214189719409,90.45905179542024 33.74671041406691,88.26397975551663 29.059715277981013,86.0689020572463 27.547781362663954,85.27867270092247 27.62337805889547,82.99578377394937 29.135311973746866,78.34218354645418 30.420455801300704,73.33733982365811 30.57164919283241,68.24466163065517 30.34485910553485,63.151952979154885 30.193665714003146,57.79579549928894 30.193665714003146,52.70302435255144 30.269262409769,48.751715408987366 29.815682235639542,43.8345053375233 29.740085539408028,38.74165068328148 30.118069018237293,35.22931937960675 33.97350050136447,35.0537024338264 39.03847911674529,36.54644531616941 44.0278610358946,38.21480191138107 48.866049563512206,39.70753925165627 52.64588435087353,40.67342672421364 55.74534887634218,41.55150529410457 61.188310970086604,43.13204443769064 65.27053254051134,44.361350632156245 69.88193098129705,45.59065505157923 72.75460541946813,48.04925856587943 72.45221863687038,51.912764030799735 71.4694615919143,57.3567647037562 71.39386489614844,61.39583948481595 70.94028472201899,66.22514287842205 70.71349463472143,70.17637073772494 70.25991446012631,75.00562433304731 70.25991446012631,78.25437952409266 69.73073758976534,82.5567659708322 69.57954419823363,86.15670527378097 69.12596402363852,91.2492763446644 68.44559376174584,96.34181696100859 68.2944003706798,101.25872383179376 68.06761028338224,104.59518018382369 66.9336598473601,105.64879526331788 65.19493584474549,104.85858407564228 59.82757044676691,102.04893835983239 54.6869951360859,99.23928337387042 50.83156365295872,96.78082765720319 46.29576190793887,94.76137658022344 41.83555685915053,92.39071051013889 37.60214189719409,90.37124902236974 32.99074345687404,88.17617675603833 28.152554928790778,85.8932955970522 27.245394580066204,84.48844261089107 27.92576484149322,81.41531862400007 29.362102061044425,77.02512226084946 30.34485910553485,73.60075338470051 30.420455801300704,68.4202717304579 30.118069018237293,64.29342480795458 29.966875626705587,61.13242214836646 29.891278930939734,56.39089615625562 30.193665714003146,50.859082460869104 30.118069018237293,45.941884559520986 29.815682235639542,42.6051983825746 29.664488844107836,37.68795281340135 29.891278930939734,35.31712783873081 31.252019454725087,34.26342573063448 34.124693892896175,35.40493628848344 37.07296502683312,36.01959518605145 41.83555685915053,37.51233637519181 47.05172886606306,39.18069107743213 55.51855878951028,41.375889652525075 58.16444314038381,42.42958295822609 63.22942175529897,43.571082567912526 68.36999706644565,45.063810517662205 71.24267150461674,45.941884559520986 72.60341202793643,48.22487283102237 72.14983185334131,51.210309795627836 71.84744507074356,54.195736292458605 71.6962516787462,56.039670958474744 71.01588141731918,61.13242214836646 70.71349463472143,66.40075339487521 70.3355111554265,71.40563788765576 70.1087210685946,76.67390557395993 69.57954419823363,81.9421406663023 69.73073758976534,86.77132753632031 69.05036732787266,92.12730276153889 68.2944003706798,97.57104634016287 67.99201358761638,103.27815950114746 67.53843341302127,105.03418662538752 66.17769288970158,105.29759038158227 62.39785810187459,102.92695364175597 57.40847618272528,100.46850857097888 51.738724002148956,97.83445240481524 47.05172886606306,95.20038809149992 42.44033042481169,92.82972324325237 38.887285724747926,90.81026279652724 33.89790380559862,88.79079756117426 29.966875626705587,86.85913068038644 27.39658797159791,83.78601524885744 28.68173179915175,79.39583110815147 30.496052497066557,73.60075338470051 30.420455801300704,67.63002599583706 30.34485910553485,62.712924944993574 30.04247232247144,57.3567647037562 30.269262409769,52.26399093103828 29.891278930939734,46.995572214829735 29.815682235639542,41.375889652525075 29.664488844107836,37.77576101914747 30.118069018237293,34.61465991177829 39.03847911674529,36.72206195403123 42.7427172078751,37.95137740322389 45.61539164604619,39.18069107743213 49.319629738107324,39.97096321656136 54.8381885276176,41.28808181831846 59.52518366416916,42.69300608104095 64.3633721913211,43.92231290921336 69.8063342855312,45.50284765177639 71.24267150461674,46.20530659571523 72.52781533217058,48.31267994979862 71.77184837497771,53.40547735610744 71.31826820038259,58.41043823288055 70.94028472201899,63.85439736256376 70.63789793848991,69.21051673166221 70.03312437282875,74.65440681320615 69.65514089399949,80.01045825041365 69.42835080670193,83.69821178779239 69.73073758976534,87.12254005856812 69.95752767659724,87.21034316637088 69.05036732787266,92.12730276153889 68.59678715374321,95.4637948893942 68.14320697914809,101.08312050404493 68.14320697914809,104.59518018382369 66.85806315159425,105.47319284058176 61.56629444891587,103.01475512009347 57.18168609589338,100.20510332094273 52.34349756781012,98.01005640276708 48.563662780448794,96.07841043447843 44.0278610358946,93.53214314562501 39.340865899343044,91.2492763446644 36.84617494000122,89.93223502178444 32.763953369576484,87.91276770399418 28.379345016088337,85.71768910030369 27.774571449961513,83.87381870078389 29.362102061044425,78.69339954509633 30.420455801300704,72.54709865240147 30.87403597543016,66.48855863959761 30.420455801300704,61.5714509972604 30.193665714003146,57.00553990411572 29.966875626705587,51.38592340867035 29.966875626705587,46.819957696134225 29.588892147876322,41.46369747800054 29.664488844107836,37.161103389575146 29.740085539408028,35.58055316179525 30.949632671196014,34.351234289526474 34.27588728442788,35.14151091122767 39.643252682406455,36.89767855545506 42.36473372904584,37.77576101914747 46.37135860417038,38.91726686793845 51.5119339148514,40.322195042914245 56.57691252976656,41.7271208994207 61.490697753150016,43.21985208190745 66.48007967276499,44.71258064726135 70.78909133002162,45.85407719615614 72.52781533217058,48.663908335380256 71.84744507074356,52.615217686397955 71.39386489614844,57.79579549928894 71.01588141731918,62.97634179255692 70.71349463472143,67.9812464127317 70.25991446012631,73.60075338470051 70.03312437282875,77.90316334413365 69.50394750246778,83.25919434701791 69.12596402363852,88.5273886990035 68.6723838490434,93.97115529031726 68.44559376174584,98.09785838820972 68.14320697914809,103.62936521554366 67.53843341302127,105.20978913863655 65.87530610663816,105.29759038158227 61.188310970086604,102.66354915231932 58.92041009804234,100.99531882628798" stroke="yellow" stroke-dasharray="none" stroke-linecap="round" stroke-linejoin="round" stroke-width="0.5"><title>2026-05-29 25.0km</title><desc>9223370256785020044</desc></polyline><polyline fill="none" opacity="1" points="156.8965062405914,98.98779415548779 156.271916996222,99.95499994693091 155.59527864819393,101.04310455545783 155.02273850748315,101.82895662810188 154.71044388529845,102.31255738006439 153.92970732948743,103.40065761411097 153.0969216702506,104.48875582875917 152.107988699805,105.45595254702494 150.8067611074075,105.09325396467466 149.66168082598597,104.60965550580295 148.46455144090578,104.00515687151346 147.37152026291005,103.27975768776378 146.17439087782986,102.61480764771113 144.92521238909103,101.82895662810188 143.7801321076695,101.1640049428097 142.63505182601511,100.43860224448144 141.48997154459357,99.77364898257656 140.34489126317203,99.04824456409551 138.99161456688307,98.38328972575255 137.84653428546153,97.65788358729333 136.70145400380716,96.93247655162122 135.50432461872697,96.26751931360923 134.30719523341395,95.60256132192444 133.16211495222524,94.81670090492116 132.01703467057087,94.15174126776401 130.8199052857235,93.5472318524844 129.6748250038363,92.82181973138358 130.09121783380397,91.73369986732723 130.8199052857235,92.8822707758518 131.704740048619,93.06362387147965 132.74572212272324,93.48678087664302 133.57850778172724,94.27264307596488 134.5153916485142,95.1189550361014 135.71252103359438,95.48165978793986 136.85760131501593,95.90481504809577 138.00268159643747,96.26751931360923 138.83546725590713,97.29518018156523 139.77235112222843,98.1414877793286 141.0215296112001,98.6855420183856 142.06251168530434,99.4109468855313 143.05144465551712,100.37815197900636 144.1965249371715,101.04310455545783 145.28955611470155,101.64760624337941 146.64283281122334,102.55435760656837 147.83996219630353,103.09840775147313 148.93299337429926,103.76335724332603 150.07807365548797,104.06560676294612 150.91085931495763,104.97235438739881 151.691595870303,105.75820119440323 150.75471200351603,105.45595254702494 149.76577903330326,104.91190458944766 148.77684606285766,104.2469564001658 147.73586398898624,103.58200745657086 146.694881914882,102.97750776301837 145.44570342591032,102.31255738006439 144.40472135180607,101.70805637777084 143.311690174276,101.1640049428097 142.06251168530434,100.37815197900636 141.1256278185174,99.77364898257656 140.0325966407545,99.35049651423469 139.09571277420036,98.74599245830905 138.10677980375476,98.32283924840158 137.0137486262247,97.77878467272967 135.86866834480315,97.11382839462021 134.72358806314878,96.44887136248872 133.68260598927736,95.72346283117076 132.537525707623,95.05850422225194 131.3403963225428,94.33309397095582 130.14326693722978,93.5472318524844 129.6227759004105,92.58001549175242 130.14326693722978,91.37099279719405 130.66375797451474,90.10151628492167 131.0281017003581,89.07384280959377 131.49654363375157,87.86481288564391 132.121132878121,86.7162321486976 132.6416239151731,85.56764916202519 133.26621315954253,84.47951583599206 133.78670419659466,83.27047643868718 134.151047922438,82.12188670202158 134.46334254462272,80.85239016497508 135.0358826853335,79.76424808840966 135.50432461872697,78.79700899164891 135.9207174484618,77.64841049176175 136.23301207041368,76.43935700861039 136.85760131501593,75.41165958734928 137.16989593720064,74.1421485216706 137.37809235206805,73.17490015015937 137.79448518180288,72.08674382511526 138.10677980375476,70.87767887307564 139.19981098151766,70.39405219408218 139.51210560370237,68.88271625107154 139.4080073966179,67.6736446917057 139.87644933001138,66.706385648984 140.29284215951338,65.61821731855161 140.55308767780662,64.28823106049094 141.07357871509157,62.837333520292304 141.38587333727628,61.446886674908455 141.48997154459357,60.056436531827785 141.54202064825222,58.48461935558589 141.64611885580234,57.57779983698856 141.75021706311963,56.368704963708296 141.75021706311963,54.978242776647676 141.75021706311963,53.70868746511405 141.698167959461,52.31821896909969 141.48997154459357,50.80683642893564 141.59406975191087,49.29544999205973 141.4379224407021,47.84451534686377 141.38587333727628,46.5749445866677 141.33382423361763,45.36582702072337 141.0215296112001,44.09625089261681 141.0215296112001,43.00804059446091 140.96948050754145,41.85937197698513 141.0215296112001,40.71070110891014 141.07357871509157,39.501571447763126 141.0215296112001,38.352895959687885 141.07357871509157,36.962391041452065 141.1256278185174,35.692796713788994 141.28177512972616,34.604570816096384 142.2186589965131,34.06045710959006 143.36373927770182,34.36274256458273 144.56086866301484,34.72548490448389 145.65389984101057,35.0277700163424 147.05922564072534,35.39051194500644 148.25635502580553,35.813710577902384 149.50553351501003,36.176452020183206 150.75471200351603,36.59965008567087 152.05593959614635,37.022847845742945 153.25306898145936,37.38558853958966 154.55429657408968,37.68787227978464 155.7514259594027,37.99015586421592 157.10470265545882,38.23198261950165 158.301832040539,38.5947225652053 159.60305963316932,39.017918884870596 160.6960908106994,39.44111489929492 161.68502378137782,39.74339757935377 162.72600585548207,40.04568010388175 163.92313524056226,40.3479624724132 164.96411731443368,40.771157526469324 166.1612466997467,41.13389590114821 167.41042518848553,41.49663405132014 168.81575098843314,41.9802845690283 169.59648754401132,42.58484715502709 170.16902768495493,43.43123372818809 170.32517499593087,44.45898720988771 170.32517499593087,45.54719481471693 170.16902768495493,46.81676780059934 170.01288037374616,48.0258823739714 169.85673306277022,49.29544999205973 169.70058575156145,50.50455945311114 169.59648754401132,51.592755836085416 169.38829112937674,52.98322605260182 169.28419292182662,54.313237956375815 169.28419292182662,55.58279195899377 169.18009471450932,56.912797965225764 169.02394740330055,58.24280095443828 169.07599650719203,59.572800926398486 168.91984919598326,60.78188919171225 168.86780009209178,62.17233761429088 168.86780009209178,63.56278273934731 168.60755457379855,65.01367848436348 168.60755457379855,66.40411687089363 168.50345636648126,67.61319104832364 168.39935815893114,68.88271625107154 168.39935815893114,70.15223870490445 168.08706353674643,71.30085188988596 168.03501443308778,72.38900967343943 167.878867121879,73.77943056932418 167.82681801798753,75.10939529741881 167.93091622553766,76.49980974191567 167.77476891456172,77.64841049176175 167.6706707070116,78.97836644377094 167.6706707070116,80.18741469143424 167.6706707070116,81.39646044600522 167.6706707070116,82.6659558051033 167.2542778775096,83.21002440340817 166.4735413219314,83.39138049061876 165.95305028487928,83.4518325071549 165.01616641809233,82.90776413335698 164.13133165519685,82.00098238850478 162.9862513737753,81.33600821759319 161.99731840356253,80.61058098910144 160.80018901848234,80.00605761323823 159.65510873682797,79.28062873956515 158.51002845540643,78.67610399232944 157.62519369251095,78.01112605060916 156.63626072229818,77.70886310050264 155.43913133698516,77.22524205618538 154.24200195190497,76.68116790463682 153.20101987780072,76.13709324813681 152.31618511490524,75.53256525995675 151.11905572959222,75.23030103219207 149.97397544817068,74.74667794338893 148.98504247772507,74.08169554511551 147.89201129996218,73.65852453536354 146.5907837075647,73.11444707406918 145.70594894466922,72.57036910782335 144.56086866301484,72.08674382511526 143.46783748525195,71.54266490507871 142.37480630748905,71.05903877475066 141.4379224407021,70.45450555084972 140.39694036683068,70.03133192314999 139.30390918906778,69.48725109564839 138.93956546322443,68.21772720193258 139.56415470759384,67.12956167646917 139.98054753709584,65.98094031965593 140.39694036683068,64.5905009295675 140.55308767780662,63.441874598385766 140.96948050754145,62.41415439470438 141.17767692240886,61.084160868485924 141.1256278185174,59.81461877876427 141.2297260260675,58.424164764699526 141.33382423361763,57.2150716369506 141.2297260260675,55.945521168992855 140.76128409290686,54.796877900662366 140.8133331965655,53.28550175024429 141.0215296112001,51.89503225067165 140.9174314038828,50.5650148607092 140.9174314038828,49.234994453552645 141.0215296112001,47.96542670461349 141.0215296112001,46.93767937022494 141.17767692240886,45.36582702072337 141.2297260260675,44.035794818017166 141.2297260260675,42.82667201501317 141.17767692240886,41.19435227516806 141.1256278185174,39.803854096797295 141.2297260260675,38.41335262043867 141.2297260260675,36.66010692715645 141.2297260260675,35.33005497243721 141.698167959461,34.36274256458273 142.7391500333324,34.36274256458273 144.04037762619555,34.90685599017888 145.0813597002998,35.269597993581556 146.12234177417122,35.692796713788994 147.21537295170128,35.93462441692827 148.51660054456443,36.35782265703892 149.66168082598597,36.66010692715645 150.91085931495763,36.78102059161756 152.16003780369647,37.204218220722396 153.3571671890095,37.62741554429522 154.6063456775155,37.99015586421592 155.8034750628285,38.29243929259246 156.94855534425005,38.5947225652053 158.14568472956307,38.89700568182161 159.29076501098461,39.25974521622993 160.48789439629763,39.501571447763126 161.5809255738277,39.924767112825066 162.72600585548207,40.287506011198275 163.92313524056226,40.52933181868866 165.0682155219838,40.89207034296123 166.1612466997467,41.13389590114821 167.3583760848269,41.43617770844139 168.50345636648126,41.79891567170853 169.5444384405855,42.58484715502709 170.27312589227222,43.552145996072795 170.22107678838074,44.76126730273245 170.16902768495493,46.09129785950063 170.11697858129628,47.179502434504684 170.01288037374616,48.32816062762868 169.90878216619603,49.537272083805874 169.80468395887874,50.746381046192255 169.6485366479028,51.955487514904235 169.6485366479028,53.22504662332358 169.49238933669403,54.55505797819933 169.38829112937674,55.824611457355786 169.23214381816797,57.15461691503879 169.18009471450932,58.424164764699526 169.07599650719203,59.75416432513157 169.02394740330055,61.084160868485924 168.9718982996419,62.41415439470438 168.9718982996419,63.683690855279565 168.65960367769003,65.13458630105015 168.60755457379855,66.40411687089363 168.50345636648126,67.6736446917057 168.3473090552725,69.00362326973118 168.3473090552725,70.33359883102821 168.3473090552725,71.6635713755386 168.295259951381,72.93308780819643 168.13911264040507,74.44441331049893 168.08706353674643,75.7743765299092 167.77476891456172,76.92297870106995 167.6706707070116,78.13203118706588 167.61862160358578,79.34108117991127 167.61862160358578,80.4896763637662 167.5665724996943,81.69872149504954 167.41042518848553,82.9682161998935 166.78583594411612,83.21002440340817 166.1612466997467,83.57273652171716 165.1723137293011,83.02866826002719 164.28747896640562,82.18233884958318 163.03830047743395,81.51736488443566 161.94526929990388,80.85239016497508 160.80018901848234,80.18741469143424 159.55101052951068,79.64334328850964 158.45797935174778,78.97836644377094 157.20880086300895,78.31338884483557 156.11576968501322,77.64841049176175 154.9186402997002,77.04388406180078 153.7735600185115,76.37890426896047 152.524381529307,75.7743765299092 151.37930124811828,75.23030103219207 150.23422096669674,74.62577210873133 149.1932388925925,73.96078957355348 147.94406040362082,73.3562593414681 146.7469310183078,72.57036910782335 145.54980163346045,71.90538424119586 144.24857404083014,71.36130515299737 142.99939555185847,70.81722555996384 141.85431527043693,70.27314546197886 140.70923498901539,69.72906485904241 139.61620381148532,69.36634417658206 138.99161456688307,68.58044859493384 139.30390918906778,67.6736446917057 139.8244002261199,66.58547815645579 140.34489126317203,65.31594797922298 140.70923498901539,63.86505298211705 140.86538230022416,62.5350627474254 141.17767692240886,61.20506949553965 141.2297260260675,59.75416432513157 141.17767692240886,58.48461935558589 141.2297260260675,57.09416218701517 141.38587333727628,55.7037017205148 141.2297260260675,54.49460298230406 141.33382423361763,53.345956871053204 141.28177512972616,52.01594277302502 141.07357871509157,50.80683642893564 141.1256278185174,49.65818309230963 141.07357871509157,48.38861625973368 141.0215296112001,47.300413929100614 141.1256278185174,45.84947434649803 141.0215296112001,44.64035528409295 141.0215296112001,43.3707775848452 140.86538230022416,42.161653410235886 140.86538230022416,40.95252674171934 140.70923498901539,39.6224845261313 140.6571858851239,38.473809274844825 140.6051367816981,37.083304643572774 140.70923498901539,35.87416750047123 141.0215296112001,34.66502786334604 142.4268554111477,34.30228548584273 143.72808300401084,34.72548490448389 144.82111418130808,35.0277700163424 145.9141453593038,35.45096891123103 147.26742205559276,35.87416750047123 148.4125023370143,36.115995128580835 149.6096317220945,36.418279523495585 150.8067611074075,36.78102059161756 152.107988699805,37.1437614352908 153.3571671890095,37.62741554429522 154.55429657408968,38.05061256233603 155.7514259594027,38.41335262043867 157.10470265545882,38.71563583059469 158.24978293688037,39.017918884870596 159.55101052951068,39.3202017833828 160.90428722579964,39.682941055856645 162.04936750722118,40.04568010388175 163.14239868498407,40.22704954369692 164.44362627738155,40.65024468518095 165.5887065588031,41.012983134482056 166.78583594411612,41.375721359450836 167.9829653291963,41.738459359970875 169.18009471450932,42.04074085573666 169.9608312700875,43.00804059446091 170.4813223069068,44.09625089261681 170.4813223069068,45.18445917085046 170.16902768495493,46.454032942303456 170.01288037374616,47.602692556974944 169.90878216619603,48.75134992110543 169.85673306277022,49.90000503428746 169.75263485498726,51.23002393305069 169.70058575156145,52.49958461232018 169.59648754401132,53.76914254220901 169.49238933669403,55.03869772312464 169.33624202548526,56.247795339208096 169.18009471450932,57.5173451526789 169.18009471450932,58.78689221676905 169.12804561085068,60.29825418489054 169.12804561085068,61.628249493893236 169.02394740330055,62.958241785818245 168.91984919598326,64.5300469683134 168.65960367769003,65.86003267747583 168.50345636648126,67.3109227376408 168.39935815893114,68.7013556760503 168.3473090552725,69.9104251160752 168.295259951381,71.36130515299737 168.295259951381,72.81218159961281 168.19116174429655,74.20260149182286" stroke="#4DD2FF" stroke-dasharray="none" stroke-linecap="round" stroke-linejoin="round" stroke-width="0.5"><title>2026-05-05 10.0km</title><desc>9223370258867873807</desc></polyline><polyline fill="none" opacity="0.5" points="42.308736176695675,172.57823380362242 40.47201645793393,171.511594414711 38.32917678589001,170.6227272489341 36.415927078574896,169.6449723081896 34.579207359813154,168.66721625818172 32.74248764058575,167.86723321099998 30.676177957095206,167.0672494210885 28.99251821450889,166.00060321338242 27.614978425670415,164.93395568581764 27.768038402311504,162.71176909771748 28.45680829649791,161.2006789460429 29.451698144432157,159.15625864220783 30.06393805053085,156.84516898205038 30.37005800381303,154.71184995025396 30.75270794518292,152.7563028666773 30.599647969007492,149.82297392346663 30.523117980454117,147.86741574917687 30.293528015259653,145.82296382368077 30.293528015259653,143.6007279701298 30.21699802717194,141.28959660505643 30.21699802717194,139.0673490644549 30.21699802717194,137.02287626708858 30.293528015259653,135.06728905421915 30.21699802717194,133.11169740429614 30.21699802717194,131.24499214545358 29.987408062443137,129.37828284379793 29.68128810916096,127.4226782869082 29.52822813251987,125.37817787000677 29.52822813251987,123.33367260365048 29.83434808580205,121.28916248783935 29.83434808580205,119.15575545741012 29.910878073889762,117.1112354315701 30.21699802717194,114.62224798474927 32.13024773448706,114.17778518458363 33.890437465161085,114.80003304092679 35.65062719583511,115.2444955202518 37.640406891237944,115.77785019320436 39.783246563281864,116.40009689441649 41.773026258684695,116.75566623627674 43.68627596646547,117.37791223166278 45.59952567331493,118.00015777774388 47.43624539207667,118.62240287469467 49.34949509985745,119.24464752257336 51.262744806706905,119.8668917210307 53.558644455391914,120.31135158753023 55.395364174153656,120.84470312512713 57.07902391673997,121.378054332803 58.91574363550171,121.8225134203094 60.905523331370205,122.62253920023795 62.74224305013195,123.15588930778904 64.65549275744706,123.6892390854191 66.41568248812109,124.044805420388 68.32893219543621,124.57815464760642 70.24218190228567,125.11150354513666 71.31360173830763,125.55596070742467 72.61461153952405,127.51156949944561 72.69114152807742,129.37828284379793 72.61461153952405,131.4227737726178 72.38502157432958,133.73393159237457 72.30849158624187,135.68952183041256 72.15543160960078,137.64510763192084 72.00237163342535,139.86735883913934 71.77278166823089,141.73404542566277 71.61972169205546,143.68961751420284 71.77278166823089,146.0007424444775 71.46666171541438,148.31186117825564 71.390131726861,150.2674183443305 71.31360173830763,152.31185972917592 71.1605417621322,154.97851511806948 70.9309517974034,157.02294532977976 70.62483184365556,158.534042804793 70.31871189083904,160.66735237755347 70.31871189083904,162.80065667128656 70.08912192611024,165.02284303010674 69.85953196138144,167.68945909943432 69.47688201954588,170.35606692056172 69.40035203145817,172.57823380362242 69.3238220429048,174.80039495893288 69.09423207817599,177.2003225730732 69.01770209008828,179.60024350625463 68.78811212535948,181.55572969740024 68.63505214871839,183.5112114532385 68.17587221879512,185.7333444278338 66.4922124762088,185.64445921889273 64.96161271026358,184.9333772167447 63.048363003414124,184.04452388931531 61.59429322602227,182.80012769147288 59.98716347152367,181.64461532788118 58.07391376467422,180.8446443231078 56.084134068805724,179.60024350625463 54.323944338131696,178.4447268540971 55.931074092164636,179.2447000858374 69.85953196138144,171.15604765841272 69.5534120076336,173.91153118404327 69.09423207817599,176.31146127270767 69.01770209008828,178.6224987473106 68.86464211298153,181.55572969740024 68.63505214871839,183.86675311403815 68.17587221879512,185.7333444278338 66.79833242949098,185.64445921889273 64.96161271026358,184.75560662458884 62.66571306204423,183.42232601490105 60.752463354729116,182.35570004268084 58.53309369459748,181.20018708350835 57.00249392865226,180.04467257566284 55.395364174153656,178.88915651896968 53.86476440867409,178.0891829569009 52.18110466655344,177.37809472321533 50.42091493541375,176.31146127270767 48.35460525145754,175.6003715726547 46.288295567967,174.71150862280047 44.14545589592308,173.644871873199 42.308736176695675,172.57823380362242 40.47201645793393,171.511594414711 38.32917678589001,170.6227272489341 36.415927078574896,169.6449723081896 34.579207359813154,168.66721625818172 32.74248764058575,167.86723321099998 30.676177957095206,167.0672494210885 28.99251821450889,166.00060321338242 27.614978425670415,164.93395568581764 27.768038402311504,162.71176909771748 28.45680829649791,161.2006789460429 29.451698144432157,159.15625864220783 30.06393805053085,156.84516898205038 30.37005800381303,154.71184995025396 30.75270794518292,152.7563028666773 30.599647969007492,149.82297392346663 30.523117980454117,147.86741574917687 30.293528015259653,145.82296382368077 30.293528015259653,143.6007279701298 30.21699802717194,141.28959660505643 30.21699802717194,139.0673490644549 30.21699802717194,137.02287626708858 30.293528015259653,135.06728905421915 30.21699802717194,133.11169740429614 30.21699802717194,131.24499214545358 29.987408062443137,129.37828284379793 29.68128810916096,127.4226782869082 29.52822813251987,125.37817787000677 29.52822813251987,123.33367260365048 29.83434808580205,121.28916248783935 29.83434808580205,119.15575545741012 29.910878073889762,117.1112354315701 30.21699802717194,114.62224798474927 32.13024773448706,114.17778518458363 33.890437465161085,114.80003304092679 35.65062719583511,115.2444955202518 37.640406891237944,115.77785019320436 39.783246563281864,116.40009689441649 41.773026258684695,116.75566623627674 43.68627596646547,117.37791223166278 45.59952567331493,118.00015777774388 47.43624539207667,118.62240287469467 49.34949509985745,119.24464752257336 51.262744806706905,119.8668917210307 53.558644455391914,120.31135158753023 55.395364174153656,120.84470312512713 57.07902391673997,121.378054332803 58.91574363550171,121.8225134203094 60.905523331370205,122.62253920023795 62.74224305013195,123.15588930778904 64.65549275744706,123.6892390854191 66.41568248812109,124.044805420388 68.32893219543621,124.57815464760642 70.24218190228567,125.11150354513666 71.31360173830763,125.55596070742467 72.61461153952405,127.51156949944561 72.69114152807742,129.37828284379793 72.61461153952405,131.4227737726178 72.38502157432958,133.73393159237457 72.30849158624187,135.68952183041256 72.15543160960078,137.64510763192084 72.00237163342535,139.86735883913934 71.77278166823089,141.73404542566277 71.61972169205546,143.68961751420284 71.77278166823089,146.0007424444775 71.46666171541438,148.31186117825564 71.390131726861,150.2674183443305 71.31360173830763,152.31185972917592 71.1605417621322,154.97851511806948 70.9309517974034,157.02294532977976 70.62483184365556,158.534042804793 70.31871189083904,160.66735237755347 70.31871189083904,162.80065667128656 70.08912192611024,165.02284303010674 69.85953196138144,167.68945909943432 69.47688201954588,170.35606692056172 69.40035203145817,172.57823380362242 69.3238220429048,174.80039495893288 69.09423207817599,177.2003225730732 69.01770209008828,179.60024350625463 68.78811212535948,181.55572969740024 68.63505214871839,183.5112114532385 68.17587221879512,185.7333444278338 66.4922124762088,185.64445921889273 64.96161271026358,184.9333772167447 63.048363003414124,184.04452388931531 61.59429322602227,182.80012769147288 59.98716347152367,181.64461532788118 58.07391376467422,180.8446443231078 56.084134068805724,179.60024350625463 54.323944338131696,178.4447268540971 55.931074092164636,179.2447000858374 69.85953196138144,171.15604765841272 69.5534120076336,173.91153118404327 69.09423207817599,176.31146127270767 69.01770209008828,178.6224987473106 68.86464211298153,181.55572969740024 68.63505214871839,183.86675311403815 68.17587221879512,185.7333444278338 66.79833242949098,185.64445921889273 64.96161271026358,184.75560662458884 62.66571306204423,183.42232601490105 60.752463354729116,182.35570004268084 58.53309369459748,181.20018708350835 57.00249392865226,180.04467257566284 55.395364174153656,178.88915651896968 53.86476440867409,178.0891829569009 52.18110466655344,177.37809472321533 50.42091493541375,176.31146127270767 48.35460525145754,175.6003715726547 46.288295567967,174.71150862280047 44.14545589592308,173.644871873199 42.308736176695675,172.57823380362242 40.47201645793393,171.511594414711 38.32917678589001,170.6227272489341 36.415927078574896,169.6449723081896 34.579207359813154,168.66721625818172 32.74248764058575,167.86723321099998 30.676177957095206,167.0672494210885 28.99251821450889,166.00060321338242 27.614978425670415,164.93395568581764 27.768038402311504,162.71176909771748 28.45680829649791,161.2006789460429 29.451698144432157,159.15625864220783 30.06393805053085,156.84516898205038 30.37005800381303,154.71184995025396 30.75270794518292,152.7563028666773 30.599647969007492,149.82297392346663 30.523117980454117,147.86741574917687 30.293528015259653,145.82296382368077 30.293528015259653,143.6007279701298 30.21699802717194,141.28959660505643 30.21699802717194,139.0673490644549 30.21699802717194,137.02287626708858 30.293528015259653,135.06728905421915 30.21699802717194,133.11169740429614 30.21699802717194,131.24499214545358 29.987408062443137,129.37828284379793 29.68128810916096,127.4226782869082 29.52822813251987,125.37817787000677 29.52822813251987,123.33367260365048 29.83434808580205,121.28916248783935 29.83434808580205,119.15575545741012 29.910878073889762,117.1112354315701 30.21699802717194,114.62224798474927 32.13024773448706,114.17778518458363 33.890437465161085,114.80003304092679 35.65062719583511,115.2444955202518 37.640406891237944,115.77785019320436 39.783246563281864,116.40009689441649 41.773026258684695,116.75566623627674 43.68627596646547,117.37791223166278 45.59952567331493,118.00015777774388 47.43624539207667,118.62240287469467 49.34949509985745,119.24464752257336 51.262744806706905,119.8668917210307 53.558644455391914,120.31135158753023 55.395364174153656,120.84470312512713 57.07902391673997,121.378054332803 58.91574363550171,121.8225134203094 60.905523331370205,122.62253920023795 62.74224305013195,123.15588930778904 64.65549275744706,123.6892390854191 66.41568248812109,124.044805420388 68.32893219543621,124.57815464760642 70.24218190228567,125.11150354513666 71.31360173830763,125.55596070742467 72.61461153952405,127.51156949944561 72.69114152807742,129.37828284379793 72.61461153952405,131.4227737726178 72.38502157432958,133.73393159237457 72.30849158624187,135.68952183041256 72.15543160960078,137.64510763192084 72.00237163342535,139.86735883913934 71.77278166823089,141.73404542566277 71.61972169205546,143.68961751420284 71.77278166823089,146.0007424444775 71.46666171541438,148.31186117825564 71.390131726861,150.2674183443305 71.31360173830763,152.31185972917592 71.1605417621322,154.97851511806948 70.9309517974034,157.02294532977976 70.62483184365556,158.534042804793 70.31871189083904,160.66735237755347 70.31871189083904,162.80065667128656 70.08912192611024,165.02284303010674 69.85953196138144,167.68945909943432 69.47688201954588,170.35606692056172 69.40035203145817,172.57823380362242 69.3238220429048,174.80039495893288 69.09423207817599,177.2003225730732 69.01770209008828,179.60024350625463 68.78811212535948,181.55572969740024 68.63505214871839,183.5112114532385 68.17587221879512,185.7333444278338 66.4922124762088,185.64445921889273 64.96161271026358,184.9333772167447 63.048363003414124,184.04452388931531 61.59429322602227,182.80012769147288 59.98716347152367,181.64461532788118 58.07391376467422,180.8446443231078 56.084134068805724,179.60024350625463 54.323944338131696,178.4447268540971 55.931074092164636,179.2447000858374 69.85953196138144,171.15604765841272 69.5534120076336,173.91153118404327 69.09423207817599,176.31146127270767 69.01770209008828,178.6224987473106 68.86464211298153,181.55572969740024 68.63505214871839,183.86675311403815 68.17587221879512,185.7333444278338 66.79833242949098,185.64445921889273 64.96161271026358,184.75560662458884 62.66571306204423,183.42232601490105 60.752463354729116,182.35570004268084 58.53309369459748,181.20018708350835 57.00249392865226,180.04467257566284 55.395364174153656,178.88915651896968 53.86476440867409,178.0891829569009 52.18110466655344,177.37809472321533 50.42091493541375,176.31146127270767 48.35460525145754,175.6003715726547 46.288295567967,174.71150862280047 44.14545589592308,173.644871873199 42.308736176695675,172.57823380362242 40.47201645793393,171.511594414711 38.32917678589001,170.6227272489341 36.415927078574896,169.6449723081896 34.579207359813154,168.66721625818172 32.74248764058575,167.86723321099998 30.676177957095206,167.0672494210885 28.99251821450889,166.00060321338242 27.614978425670415,164.93395568581764 27.768038402311504,162.71176909771748 28.45680829649791,161.2006789460429 29.451698144432157,159.15625864220783 30.06393805053085,156.84516898205038 30.37005800381303,154.71184995025396 30.75270794518292,152.7563028666773 30.599647969007492,149.82297392346663 30.523117980454117,147.86741574917687 30.293528015259653,145.82296382368077 30.293528015259653,143.6007279701298 30.21699802717194,141.28959660505643 30.21699802717194,139.0673490644549 30.21699802717194,137.02287626708858 30.293528015259653,135.06728905421915 30.21699802717194,133.11169740429614 30.21699802717194,131.24499214545358 29.987408062443137,129.37828284379793 29.68128810916096,127.4226782869082 29.52822813251987,125.37817787000677 29.52822813251987,123.33367260365048 29.83434808580205,121.28916248783935 29.83434808580205,119.15575545741012 29.910878073889762,117.1112354315701 30.21699802717194,114.62224798474927 32.13024773448706,114.17778518458363 33.890437465161085,114.80003304092679 35.65062719583511,115.2444955202518 37.640406891237944,115.77785019320436 39.783246563281864,116.40009689441649 41.773026258684695,116.75566623627674 43.68627596646547,117.37791223166278 45.59952567331493,118.00015777774388 47.43624539207667,118.62240287469467 49.34949509985745,119.24464752257336 51.262744806706905,119.8668917210307 53.558644455391914,120.31135158753023 55.395364174153656,120.84470312512713 57.07902391673997,121.378054332803 58.91574363550171,121.8225134203094 60.905523331370205,122.62253920023795 62.74224305013195,123.15588930778904 64.65549275744706,123.6892390854191 66.41568248812109,124.044805420388 68.32893219543621,124.57815464760642 70.24218190228567,125.11150354513666 71.31360173830763,125.55596070742467" stroke="#4DD2FF" stroke-dasharray="1,0.5" stroke-linecap="round" stroke-linejoin="round" stroke-width="0.5"><title>2026-05-01 12.1km</title><desc>9223370259215195807</desc></polyline><polyline fill="none" opacity="1" points="119.80751604039688,137.18107013091503 119.80751604039688,136.51033861233736 119.87351054081228,135.82044081020285 119.95600366644794,135.13054044659657 120.0384967920254,134.45980152615812 120.02199816686334,133.76989611060708 120.0384967920254,133.0608239863359 120.08799266733695,132.35174915616517 120.1374885427067,131.70016449398827 120.18698441801826,131.02941319020465 120.2034830430639,130.33949503728945 120.2364802933298,129.72623230614408 120.58295142074348,129.24711938899418 121.14390467468183,129.51542277479894 121.78735105419764,129.76456128612335 122.39780018338934,129.975370534783 123.00824931258103,130.1861795441946 123.63519706693478,130.39698831446003 124.36113657202804,130.64612564370327 124.97158570127795,130.85693389212247 125.6975252062548,131.06774190133729 126.32447296060855,131.3168783311994 126.9844179652282,131.527685818568 127.5618698442704,131.71932878134248 128.18881759856595,131.93013581214473 128.86526122828946,132.14094260372804 129.5252062328509,132.3709133763623 130.1686526122503,132.62004805880133 130.8780934922397,132.86918240720115 131.55453712196322,133.13748056265467 132.23098075162852,133.3674501018977 132.90742438135203,133.559091167117 133.56736938591348,133.80822425644146 134.2108157654293,134.0190289172897 134.82126489462098,134.22983333894808 135.36571952345548,134.49812952970387 135.87717690196587,134.9005730895151 136.48762603121577,134.84308120573405 137.09807516046567,135.0347207490704 137.77451879013097,135.30301577763748 138.35197066917317,135.5521465287602 138.94592117331922,135.66712983968318 139.57286892767297,135.97375165425183 140.1008249312872,136.26120914593048 140.77726856101071,136.43368342753092 141.42071494046832,136.7594677447487 141.99816681951052,136.95110531157115 142.5426214482286,136.98943280123058 143.07057745190104,137.1044152227405 143.697525206313,137.29605243388505 144.32447296066675,137.46852575489902 144.90192483965075,137.8134719166701 145.5618698442122,137.96678111638175 146.28780934924725,138.13925381480658 146.8817598533933,138.3117263532331 147.57470210816246,138.4841987315449 148.21814848767826,138.6758345196431 148.8450962419738,138.84830656000122 149.63703024754068,139.00161490596656 150.29697525210213,139.19325016047515 150.92392300645588,139.36572172059095 151.6003666361794,139.53819312062114 152.26031164074084,139.69150089735922 152.88725939503638,139.90229888386966 153.58020164992195,140.2089137101866 154.15765352896415,140.57301815922256 154.83409715862945,140.80297849638737 155.54353803856065,141.0904285175784 155.90650779107818,141.28206161805429 156.3684692942188,141.53118435318174 156.813932172372,141.83779649181815 157.4573785518296,142.02942882161005 158.1008249312872,142.2593873563892 158.72777268564096,142.56599829356128 159.27222731441725,142.93009812441596 159.91567369393306,143.31336033348634 160.5426214482286,143.61996953169 161.0540788267972,144.06071936785884 161.6975252062548,144.42481627012603 161.97800183325307,144.9613788259594 162.53895508713322,145.28714819329616 163.06691109080566,145.59375413499947 162.8854262145469,146.2452900816279 162.65444546297658,146.80101011348597 162.45646196155576,147.33756580889167 162.2749770853552,147.7783068283461 162.39046746108215,147.10761355770228 162.70394133834634,146.47524339983647 163.33088909258367,146.11115051464003 163.97433547209948,146.32194121931389 164.51879010087578,146.74352191141224 165.07974335475592,147.1459389526135 165.5582034831168,147.5675177755038 166.2016498625162,148.08490866022476 166.89459211740177,148.4873227969365 167.53803849685937,148.8514110270189 168.16498625121312,149.1388485995849 168.77543538046302,149.38796080286556 169.50137488549808,149.63707267219434 170.09532538958592,149.82869695988484 170.80476626945892,150.13529540927266 171.25022914761212,150.5185427597171 171.87717690196587,150.4227309962007 172.3721356554306,150.67184147864464 172.9495875344728,150.59519213494787 173.3950504125096,150.90178931987612 173.9395050413441,151.0550877226342 174.59945004590554,151.22754827464814 175.09440879931208,151.57246889855014 175.82034830434714,151.74492897048185 176.39780018333113,151.89822667784756 177.1237396884244,151.99403768073535 177.71769019257044,152.16649736152613 178.29514207155444,152.31979472115927 178.82309807522688,152.41560550672875 179.49954170489218,152.70303756711655 180.12648945924593,152.8371723765158 180.90192483970895,152.97130708911573 181.54537121910835,153.23957622385933 182.073327222839,153.50784497143468 182.73327222740045,153.6228171732946 183.31072410638444,153.77611333184177 183.82218148489483,154.1018672488717 184.46562786441064,154.29348693335487 185.14207149407594,154.37013475185086 185.7690192484297,154.485106420354 185.9670027498505,155.04080181533936 185.736021998222,155.63481919353944 185.422548121016,156.3821286825405 185.15857011917979,156.97614177411015 184.89459211740177,157.627637820784 184.6141154904617,158.18332382089284 184.41613198904088,158.7773311563069 184.0036663612118,159.42882088999613 183.85517873516073,160.0419856122462 183.54170485795476,160.5976643947797 183.19523373059928,161.15334151613933 182.93125572876306,161.74733936077973 182.8157653529197,162.41797980722913 182.58478460134938,162.95449042246037 182.28780934930546,163.49099948923686 182.05682859767694,164.18079458556895 181.67736021999735,164.71730011308682 181.5288725939463,165.36876902922813 181.19890009169467,165.92443188893958 181.0174152154359,166.4226109717274 180.55545371223707,166.19268233019102 179.97800183319487,166.0585571579286 179.51604032999603,165.80946729560674 179.0540788267972,165.59869868986425 178.5756186984945,165.38792984516476 178.04766269476386,165.1388390842185 177.47021081577986,164.92806971815298 176.92575618700357,164.64065656112507 176.36480293312343,164.3915647988906 175.78735105413944,164.123311758638 175.17690192483133,163.87421930319397 174.6489459212171,163.54848251167277 174.05499541707104,163.3185503151617 173.7250229147612,163.22274514944002 173.16406966088107,162.95449042246037 172.65261228237068,162.76287966623204 172.15765352890594,162.55210760624323 171.6296975252917,162.28385191148845 171.085242896399,162.05391815079201 170.55728689284297,161.80482292237866 170.01283226400847,161.55572736021713 169.43538038502447,161.26830898903427 168.84142988087842,161.0383739721583 168.28047662699828,160.71263221137633 167.736021998222,160.46353518559772 167.10907424386824,160.23359917315247 166.53162236482603,159.98450150544522 165.95417048584204,159.7545649005333 165.360219981696,159.5054665908683 164.76626947760815,159.2563679473824 164.1393217232544,158.94978454333614 163.54537121910835,158.7006851551705 162.96791934012435,158.41326236947498 162.42346471140627,158.06835443993623 162.22548120998545,157.55099134561897 162.53895508713322,157.01446513419796 162.8524289643392,156.30548169372196 163.11640696617542,155.63481919353944 163.34738771774573,154.96415427340253 163.5948670944781,154.37013475185086 163.82584784610663,153.7569513188937 164.0733272227808,153.18209001333162 164.35380384972086,152.549740523551 164.55178735108348,151.9748754841421 164.7497708524461,151.41917092252697 164.9807516040746,150.76765311372583 165.19523373054108,150.21194494255178 165.44271310733166,149.52209800478886 165.67369385890197,148.94722360058222 165.9706691109459,148.29569712623197 166.44912923930679,148.23820938651625 166.99358386808308,148.6214606489375 167.290559120127,148.7172733410698 166.66361136571504,148.35318484819436 166.21814848767826,148.00825824971253 166.53162236482603,147.52919246748206 166.6141154904035,146.89682374411495 166.845096242032,146.2452900816279 167.05957836849848,145.61291698958667 167.290559120127,145.03803049313137 167.53803849685937,144.42481627012603 167.75252062332584,143.77327394110034 168.0000000000582,143.1983817537257 168.23098075162852,142.58516146031616 168.49495875340654,141.9911023714085 168.70944087998942,141.4736945208424 168.90742438141024,140.99461189330032 169.1219065078185,140.4963646503311 169.36938588455087,139.9981160714524 169.50137488549808,139.5190296396613 169.7653528873343,138.7908158976934 170.3428047663183,138.6758345196431 169.7983501376002,138.73332521758857 169.28689275903162,138.7716523396084 169.0229147571372,139.34655822184868 168.80843263067072,139.90229888386966 168.56095325393835,140.4772012681351 168.32997250236804,141.1095918365172 168.09899175073951,141.70365374341782 167.9340054995264,142.2785505547945 167.78551787353354,142.7959561644384 167.47204399632756,143.2175448553171 167.2575618699193,143.79243698334903 167.02658111829078,144.40565329306992 166.82859761692816,144.98054174569552 166.51512373972218,145.59375413499947 166.31714023841778,146.0919877114793 166.05316223652335,146.5902199522243 165.5252062329091,147.2034270302538 165.72318973427173,147.73998156384914 165.5912007333245,148.3148597021791 165.37671860685805,148.92806108984223 165.17873510543723,149.48377309981151 164.96425297897076,150.0394834481849 164.73327222728403,150.5568674512906 164.51879010087578,151.1317368766322 164.28780934930546,151.68744229762524 164.05682859767694,152.26230822606885 163.84234647115227,152.8371723765158 163.61136571952375,153.4120347489079 163.38038496795343,154.00605733253178 163.16590284148697,154.6000780176546 162.9184234647546,155.21325866908592 162.68744271318428,155.84559909719974 162.4399633363937,156.45877563973772 162.19248395971954,157.14859683223767 161.89550870767562,157.68512265649042 161.26856095326366,157.64679943468946 160.62511457386427,157.32105173033779 160.04766269482207,157.07195015947218 159.53620531625347,156.84200995162246 159.10724106326234,156.45877563973772 158.46379468386294,156.26715818751836 157.86984417965868,155.99889342251117 157.24289642536314,155.71146645890258 156.64894592115888,155.44320089188113 156.05499541712925,155.19409680436365 155.47754353802884,154.96415427340253 154.99908340978436,154.65756378963124 154.32263978011906,154.38929670151265 153.77818515128456,154.15935317492404 153.16773602197645,153.891085367708 152.63978001836222,153.6419792000088 152.02933088911232,153.35454859168385 151.50137488549808,153.12460378493415 151.1219065078767,152.72219968866557 150.5114573786268,152.68387544357392 149.98350137489615,152.45392980713223 149.3235563703347,152.14733518261346 148.7791017415584,151.89822667784756 148.18515123741236,151.6491178391734 147.64069660869427,151.40000866663468 147.04674610454822,151.1317368766322 146.46929422556423,150.88262701062195 145.74335472047096,150.49938041098358 145.19890009175288,150.21194494255178 144.63794683787273,149.9245090296754 144.14298808434978,149.98199624780682 143.81301558203995,150.5760297941015 143.1200733272708,150.59519213494787 142.39413382223574,150.36524391434796 142.16315307060722,150.9592762357206 141.8331805682974,151.6491178391734 141.43721356563037,152.33895688218763 141.14023831352824,152.97130708911573 140.82676443638047,153.5844931139727 140.5462878094404,154.29348693335487 140.29880843264982,154.94499238299613 140.01833180570975,155.558171896555 139.75435380393174,156.1330258533999 139.4573785518296,156.8228482547711 139.19340054999338,157.41685993796273 138.89642529794946,158.0875160083233 138.59945004584733,158.7006851551705 138.3024747938034,159.39049802764202 138.02199816686334,159.9078560020571 137.72502291481942,160.50185782663175 137.4610449129832,161.09585775302548 137.21356553625083,161.65153338515665 136.90009165904485,162.32217417735956 136.63611365726683,162.87784614368866 136.32263978006085,163.45267746438913 136.05866177822463,164.06582891391008 135.79468377644662,164.65981745206227 135.5307057746104,165.21548243085272 135.26672777271597,165.82862806606863 135.00274977087975,166.38428955120617 134.75527039420558,166.93994937548996 134.4417965169996,167.61057108953537 134.17781851516338,168.20454830167 133.88084326311946,168.89432590844808 133.58386801107554,169.48829901911085 133.30339138413547,170.1397512164258 132.95692025666358,170.69539981611888 132.34647112741368,170.48463674967934 131.78551787353354,170.1397512164258 131.2245646196534,169.81402540308773 130.6801099908771,169.58410095599538 130.18515123741236,169.27753458413645 129.59120073338272,168.93264681159053 129.11274060502183,168.6069188833353 128.56828597624553,168.2620298666734 128.08982584788464,167.9937824114022 127.51237396890065,167.61057108953537 127.00091659039026,167.32316207973054 126.39046746114036,166.95911002949288 125.84601283224765,166.57589657482458 125.20256645284826,166.23100379020616 124.69110907427967,165.94359264754166 124.21264894597698,165.6370202723192 123.63519706693478,165.29212574585108 123.23923006426776,164.98555229626072 122.77726856101071,164.5448520766804 122.24931255733827,164.31492111260013 121.68835930345813,163.9317022071482 121.12740604957798,163.81673638144275 120.59945004590554,163.49099948923686 120.07149404217489,163.16526202618843 119.54353803856065,162.87784614368866 119.06507791019976,162.5904298167443 118.63611365720863,162.39881868520752 118.07516040332848,162.07307930839306 117.86067827686202,161.70901697642694 117.67919340060325,161.9006288189412 117.58020164992195,162.05391815079201 117.74518790113507,162.1305627693364 117.89367552706972,161.76650054994388 117.99266727775102,161.86230646628246 117.5637030248181,161.78566173714353 117.11824014672311,161.47908250468026 116.59028414299246,161.13418026376166 116.04582951427437,160.80843867079238 115.50137488543987,160.482696507097 115.03941338224104,160.21443782599817 114.54445462889271,159.9270173808909 114.08249312563566,159.67791930233943 114.19798350142082,159.14139923009498 114.5774518790422,158.64320063359628 114.95692025672179,158.2024853774492 115.30339138407726,157.6084762049577 115.63336388638709,157.12943516703672 116.01283226400847,156.59290773878456 116.3758020165842,156.05637876181572 116.75527039414737,155.500686403102 117.0852428964572,154.96415427340253 117.31622364802752,154.42762059495726 117.64619615039555,153.98689534336154 118.00916590291308,153.50784497143468 118.3391384051647,153.06711753881245 118.65261228231248,152.60722692967101" stroke="#4DD2FF" stroke-dasharray="none" stroke-linecap="round" stroke-linejoin="round" stroke-width="0.5"><title>2026-04-26 15.1km</title><desc>9223370259653729807</desc></polyline><polyline fill="none" opacity="1" points="67.03879060782492,239.05278021236882 67.03879060782492,226.84226270997897 66.67626314796507,214.63170870020986 65.22615331038833,206.21061569731683 63.41351601108909,202.84217363363132 60.5132963322103,199.8947845492512 56.88802173547447,197.3684493568726 49.274945080280304,195.2631688346155 45.287143021821976,195.2631688346155 41.66186842508614,196.52633727760985 38.39912128634751,199.05267299246043 35.86142906732857,201.57900714408606 34.04879176989198,205.3685054415837 32.96120939031243,209.57905498193577 32.23615447059274,221.78962409915403 32.23615447059274,233.5791044672951 32.23615447059274,245.36855080304667 32.598681930452585,249.57905910303816 34.04879176989198,253.36851286236197 36.223956529051065,256.7369132526219 39.124176206067204,259.6842613145709 42.749450804665685,261.7895086281933 50.3625274579972,262.6316072498448 54.35032951645553,261.7895086281933 57.61307665333152,260.52636037021875 60.87582379207015,258.0000626822002 65.22615331038833,251.6843116269447 66.67626314796507,240.31593511300161 66.67626314796507,228.52647419134155 66.31373568996787,216.31592521583661 65.58868077024817,208.31589057529345 64.13857093080878,204.52639501355588 61.963406171649694,201.15795156126842 59.063186494633555,198.21056126151234 55.437911896035075,196.1052811741829 47.82483524084091,195.2631688346155 43.837033182382584,195.68422502558678 40.21175858564675,197.3684493568726 37.31153890863061,199.8947845492512 35.13637414947152,202.84217363363132 33.32373685017228,206.6316707599908 32.598681930452585,218.42119488492608 32.23615447059274,230.6317375660874 32.598681930452585,242.42119240900502 33.32373685017228,250.0001096953638 34.77384668961167,253.7895630635321 37.31153890863061,257.1579631064087 40.21175858564675,260.10531086474657 43.837033182382584,261.7895086281933 47.82483524084091,262.21055795950815 51.81263729929924,262.21055795950815 55.437911896035075,261.36845925217494 59.063186494633555,259.26321172108874 61.600878711789846,256.31586335552856 65.22615331038833,249.57905910303816 66.31373568996787,237.78962492290884 65.95120822824538,226.00015670852736 66.31373568996787,213.789600180462 65.22615331038833,206.21061569731683 61.600878711789846,199.4737287927419 58.70065903291106,196.94739333819598 55.07538443617523,195.2631688346155 47.82483524084091,194.0 44.562088103964925,194.8421125994064 40.5742860455066,197.3684493568726 36.58648398891091,203.2632290441543 32.96120939031243,214.63170870020986 33.32373685017228,218.00014103902504 31.87362701073289,228.10542138572782 32.23615447059274,241.57908962108195 32.23615447059274,247.89485630393028 32.96120939031243,251.26326120831072 36.949011446908116,257.1579631064087 39.48670366592705,259.26321172108874 45.64967048354447,262.21055795950815 49.274945080280304,262.21055795950815 52.53769221715629,261.7895086281933 59.063186494633555,258.8421620852314 63.77604346908629,252.5264123310335 67.03879060782492,241.57908962108195 67.40131806954741,237.78962492290884 66.31373568996787,226.42120973113924 66.31373568996787,214.63170870020986 65.95120822824538,207.05272577889264 63.05098855122924,200.315840263851 60.5132963322103,197.3684493568726 57.250549195334315,195.2631688346155 49.63747254014015,194.0 46.01219794154167,194.8421125994064 39.48670366592705,198.21056126151234 36.58648398891091,200.7368959346786 34.411319229751825,204.10533973295242 32.96120939031243,207.8948356867768 32.23615447059274,219.26330244913697 31.87362701073289,234.00015670852736 32.23615447059274,248.3159070694819 32.96120939031243,252.10536199994385 34.77384668961167,255.4737634314224 37.31153890863061,258.4211124051362 43.47450572438538,261.7895086281933 50.725054919719696,262.6316072498448 57.97560411505401,260.52636037021875 63.41351601108909,255.4737634314224 65.22615331038833,252.10536199994385 67.03879060782492,237.36857307329774 66.67626314796507,222.63173096859828 65.95120822824538,208.31589057529345 64.50109839066863,204.52639501355588 62.688461089506745,201.57900714408606 57.250549195334315,196.52633727760985 50.3625274579972,194.8421125994064 43.47450572438538,195.68422502558678 40.5742860455066,197.3684493568726 35.13637414947152,203.2632290441543 33.32373685017228,206.6316707599908 31.87362701073289,218.00014103902504 31.87362701073289,232.73699985491112 32.23615447059274,247.47380549600348 32.96120939031243,250.84221074683592 36.949011446908116,257.1579631064087 39.48670366592705,259.6842613145709 42.749450804665685,261.36845925217494 46.01219794154167,262.21055795950815 53.26274713687599,262.21055795950815 60.1507688742131,258.8421620852314 64.86362585052848,253.36851286236197 66.67626314796507,246.6317037488334 67.03879060782492,232.3159474846907 67.76384552754462,218.00014103902504 65.58868077024817,207.05272577889264 63.77604346908629,204.10533973295242 59.42571395263076,199.8947845492512 53.26274713687599,196.94739333819598 46.01219794154167,196.1052811741829 42.749450804665685,196.94739333819598 39.48670366592705,199.05267299246043 36.949011446908116,201.57900714408606 32.96120939031243,207.8948356867768 31.87362701073289,211.2632735813968 31.87362701073289,226.42120973113924 31.87362701073289,241.57908962108195 32.23615447059274,249.15800846880302 33.32373685017228,252.5264123310335 38.03659382648766,258.4211124051362 44.562088103964925,261.7895086281933 48.54989016056061,262.21055795950815 55.80043935589492,260.94740983238444 61.600878711789846,256.7369132526219 65.22615331038833,250.42116024252027 66.67626314796507,235.68436523713171 67.40131806954741,220.94751705648378 66.67626314796507,209.57905498193577 65.58868077024817,205.78956059040502 63.77604346908629,202.42111818073317 60.87582379207015,199.8947845492512 57.61307665333152,197.3684493568726 54.35032951645553,196.1052811741829 46.37472540140152,195.68422502558678 42.38692334480584,196.94739333819598 39.124176206067204,199.4737287927419 34.411319229751825,205.3685054415837 33.32373685017228,209.15800022380427 32.598681930452585,221.36857059877366 32.598681930452585,233.1580521822907 32.598681930452585,244.52644862188026 32.96120939031243,248.3159070694819 33.68626431003213,252.5264123310335 35.49890160933137,255.89481341606006 38.39912128634751,258.8421620852314 41.29934096522629,260.94740983238444 44.562088103964925,262.21055795950815 52.17516475915909,262.21055795950815 55.80043935589492,260.94740983238444 59.063186494633555,258.8421620852314 64.13857093080878,252.94746261881664 65.95120822824538,245.36855080304667 66.31373568996787,233.5791044672951 66.31373568996787,221.78962409915403 65.58868077024817,210.00010969815776 62.688461089506745,203.2632290441543 60.1507688742131,200.315840263851 56.88802173547447,198.21056126151234 49.63747254014015,196.1052811741829 45.64967048354447,196.52633727760985 42.38692334480584,197.78950533038005 36.58648398891091,203.6842844109051 34.77384668961167,207.05272577889264 32.96120939031243,219.68435616558418 32.598681930452585,231.89489507023245 32.598681930452585,243.68434626748785 33.32373685017228,251.6843116269447 35.13637414947152,255.05271340487525 37.67406636662781,258.0000626822002 43.837033182382584,261.7895086281933 47.82483524084091,262.21055795950815 55.437911896035075,260.94740983238444 58.70065903291106,259.6842613145709 63.77604346908629,254.21061322046444 66.67626314796507,243.26329502509907 67.03879060782492,239.47383188875392 66.31373568996787,227.68436853727326 66.31373568996787,215.4738170458004 65.22615331038833,207.47378075495362 63.41351601108909,203.6842844109051 60.87582379207015,200.7368959346786 57.61307665333152,198.21056126151234 53.625274596735835,196.94739333819598 49.63747254014015,196.1052811741829 46.01219794154167,196.52633727760985 42.02439588308334,197.3684493568726 39.124176206067204,199.8947845492512 36.223956529051065,202.42111818073317 32.96120939031243,209.57905498193577 32.598681930452585,221.78962409915403 32.598681930452585,233.1580521822907 32.598681930452585,244.94749973341823 32.96120939031243,249.15800846880302 34.04879176989198,252.94746261881664 35.86142906732857,256.31586335552856 38.39912128634751,258.8421620852314 41.66186842508614,260.94740983238444 45.287143021821976,262.21055795950815 49.274945080280304,262.6316072498448 53.26274713687599,263.89475485589355 56.525494273751974,262.21055795950815 59.788241412490606,260.10531086474657 64.50109839066863,253.7895630635321 65.95120822824538,245.78960182936862 66.31373568996787,234.00015670852736 65.95120822824538,229.78963234601542 65.95120822824538,217.5790871474892 65.58868077024817,209.57905498193577 63.41351601108909,202.00006268452853 60.87582379207015,199.8947845492512 53.625274596735835,196.94739333819598 49.274945080280304,196.1052811741829 44.92461556196213,196.1052811741829 41.29934096522629,197.78950533038005 38.39912128634751,200.315840263851 35.49890160933137,203.6842844109051 34.04879176989198,207.47378075495362 32.96120939031243,211.68432812346146 32.598681930452585,223.47383766435087 32.598681930452585,238.21067672921345 33.32373685017228,250.0001096953638 34.77384668961167,253.7895630635321 37.31153890863061,256.7369132526219 40.21175858564675,259.26321172108874 43.11197826452553,260.94740983238444 47.099780321121216,261.7895086281933 50.725054919719696,261.7895086281933 54.35032951645553,260.94740983238444 57.97560411505401,259.26321172108874 60.87582379207015,256.7369132526219 63.05098855122924,253.7895630635321 64.86362585052848,250.42116024252027 67.40131806954741,238.63172849221155 66.67626314796507,224.73699738178402 65.58868077024817,210.4211643692106 61.963406171649694,202.84217363363132 59.42571395263076,199.8947845492512 56.16296681575477,197.78950533038005 52.53769221715629,196.1052811741829 48.912417620420456,196.52633727760985 42.02439588308334,198.63161714794114 38.76164874620736,200.315840263851 35.86142906732857,202.84217363363132 34.04879176989198,206.6316707599908 32.96120939031243,218.42119488492608 32.598681930452585,229.78963234601542 32.23615447059274,241.57908962108195 32.598681930452585,249.15800846880302 34.04879176989198,252.94746261881664 38.76164874620736,258.8421620852314 42.02439588308334,260.94740983238444 45.64967048354447,262.21055795950815 52.900219678878784,261.7895086281933 59.788241412490606,258.4211124051362 62.32593363337219,255.4737634314224 64.50109839066863,252.5264123310335 65.58868077024817,248.73695779126137 67.03879060782492,234.00015670852736 66.31373568996787,226.84226270997897 66.67626314796507,212.52643707673997 66.31373568996787,209.15800022380427 65.22615331038833,205.78956059040502 63.77604346908629,202.42111818073317 61.23835125379264,199.4737287927419 57.97560411505401,197.3684493568726 50.3625274579972,195.2631688346155 46.73725286126137,195.68422502558678 40.21175858564675,199.05267299246043 37.67406636662781,201.57900714408606 33.68626431003213,208.31589057529345 32.96120939031243,223.47383766435087 32.96120939031243,238.21067672921345 32.96120939031243,249.15800846880302 35.86142906732857,255.89481341606006 38.39912128634751,258.8421620852314 40.936813505366445,260.52636037021875 48.187362698838115,262.6316072498448 50.725054919719696,266.0 54.71285697631538,265.15790207264945 60.87582379207015,259.26321172108874 63.41351601108909,255.89481341606006 64.86362585052848,252.10536199994385 65.58868077024817,240.31593511300161 65.58868077024817,228.52647419134155 65.95120822824538,217.15803321404383 65.58868077024817,213.789600180462 64.50109839066863,210.84221899695694 61.963406171649694,208.31589057529345 61.600878711789846,207.8948356867768 60.5132963322103,201.57900714408606 56.16296681575477,197.3684493568726 52.53769221715629,196.1052811741829 45.287143021821976,196.1052811741829 41.66186842508614,197.3684493568726 38.76164874620736,199.8947845492512 34.411319229751825,206.21061569731683 32.96120939031243,209.57905498193577 32.23615447059274,224.73699738178402 32.23615447059274,236.1054172613658 32.96120939031243,250.84221074683592 36.223956529051065,257.1579631064087 39.124176206067204,259.6842613145709 42.38692334480584,261.7895086281933 49.63747254014015,262.6316072498448 53.26274713687599,262.21055795950815 59.788241412490606,258.4211124051362 64.13857093080878,252.5264123310335 65.95120822824538,245.36855080304667 66.31373568996787,230.6317375660874 66.67626314796507,215.8948711529374 66.31373568996787,209.15800022380427 65.22615331038833,205.3685054415837 60.5132963322103,197.78950533038005 53.625274596735835,195.2631688346155 49.63747254014015,195.68422502558678 43.47450572438538,197.78950533038005 37.31153890863061,202.42111818073317 34.77384668961167,205.3685054415837 33.68626431003213,209.15800022380427 32.96120939031243,223.8948909463361 32.598681930452585,238.63172849221155 32.598681930452585,245.78960182936862 32.96120939031243,249.57905910303816 36.58648398891091,256.31586335552856 39.124176206067204,258.8421620852314 42.02439588308334,260.52636037021875 49.274945080280304,261.7895086281933 52.900219678878784,261.7895086281933 59.42571395263076,258.8421620852314 62.32593363337219,256.31586335552856 64.50109839066863,252.94746261881664 66.31373568996787,245.78960182936862 66.67626314796507,231.05279010999948 65.95120822824538,215.8948711529374 65.95120822824538,208.73694542096928 64.86362585052848,205.3685054415837 60.5132963322103,199.4737287927419 57.61307665333152,197.3684493568726 53.98780205845833,196.1052811741829 46.37472540140152,196.1052811741829 39.8492311257869,199.05267299246043 34.77384668961167,204.52639501355588 33.32373685017228,207.8948356867768 32.598681930452585,222.2106775548309 32.23615447059274,236.52646924182773 32.23615447059274,247.47380549600348 32.96120939031243,250.84221074683592 36.58648398891091,257.5790129164234 39.124176206067204,259.6842613145709 46.01219794154167,263.89475485589355 48.54989016056061,263.89475485589355 56.525494273751974,260.94740983238444 61.963406171649694,256.7369132526219 63.77604346908629,253.7895630635321 65.22615331038833,250.42116024252027 67.40131806954741,235.68436523713171 68.12637298740447,223.8948909463361 67.76384552754462,216.31592521583661 66.31373568996787,207.8948356867768 64.13857093080878,204.52639501355588 58.70065903291106,198.63161714794114 55.437911896035075,196.94739333819598 51.81263729929924,195.68422502558678" stroke="#4DD2FF" stroke-dasharray="none" stroke-linecap="round" stroke-linejoin="round" stroke-width="0.5"><title>2025-06-07 10.0km</title><desc>9223370287551093656</desc></polyline></svg>