<?xml version="1.0" encoding="utf-8" ?>
<svg baseProfile="full" height="300mm" version="1.1" viewBox="0,0,200,300" width="200mm" xmlns="http://www.w3.org/2000/svg" xmlns:ev="http://www.w3.org/2001/xml-events" xmlns:xlink="http://www.w3.org/1999/xlink"><defs /><rect fill="#222222" height="300" width="200" x="0" y="0" /><text fill="#FFFFFF" style="font-size:12px; font-family:Arial; font-weight:bold;" x="10" y="20">10km 以上跑步</text><text fill="#FFFFFF" style="font-size:4px; font-family:Arial" x="10" y="280">跑者</text><text fill="#FFFFFF" style="font-size:9px; font-family:Arial" x="10" y="290">未有期</text><text fill="#FFFFFF" style="font-size:4px; font-family:Arial" x="65" y="280">特殊里程</text><rect fill="yellow" height="2.6" width="2.6" x="65" y="283" /><text fill="#FFFFFF" style="font-size:3px; font-family:Arial" x="70" y="285.5">超过 20.0 km</text><rect fill="red" height="2.6" width="2.6" x="65" y="287" /><text fill="#FFFFFF" style="font-size:3px; font-family:Arial" x="70" y="289.5">超过 40.0 km</text><text fill="#FFFFFF" style="font-size:4px; font-family:Arial" x="120" y="280">统计</text><text fill="#FFFFFF" style="font-size:3px; font-family:Arial" x="120" y="285">次数: 4</text><text fill="#FFFFFF" style="font-size:3px; font-family:Arial" x="120" y="290">周均: 1.0</text><text fill="#FFFFFF" style="font-size:3px; font-family:Arial" x="141" y="285">总里程: 60.1 km</text><text fill="#FFFFFF" style="font-size:3px; font-family:Arial" x="141" y="290">平均: 15.0 km</text><text fill="#FFFFFF" style="font-size:3px; font-family:Arial" x="167" y="285">最短: 10.0 km</text><text fill="#FFFFFF" style="font-size:3px; font-family:Arial" x="167" y="290">最长: 25.0 km</text><polyline fill="none" opacity="1" points="77.4400077322498,93.82184073101962 30.01481180684641,75.88771911448566 32.89934966247529,66.72345011366997 32.644831616431475,57.75617709412472 32.81451031379402,53.814491999859456 32.729670965112746,44.45292473514564 32.89934966247529,35.682531138067134 37.3958351444453,35.682531138067134 45.54041261970997,38.3432208482991 52.07304247003049,40.21555361000355 60.64181668916717,42.77768723387271 68.95607286179438,44.945641088241246 77.60968642961234,47.60630500485422 80.49422428570688,52.533440843515564 79.56099144974723,59.62847181822872 79.05195535765961,65.04825165559305 78.54291926557198,71.35486586182378 78.28840121952817,79.53369417175418 77.52484708139673,87.51537479268154 76.8461322914809,96.18675472907489 76.93097164016217,104.46390763577074 75.91289945552126,108.99660385015886 75.57354206126183,114.21903153083986 70.99221723061055,113.82488704123534 63.865711939521134,109.78489664947847 58.52083297120407,107.22294267418329 52.15788181871176,103.87268480547937 44.6920191324316,100.22680260374909 39.431979512795806,97.56628519186052 34.5112972878851,94.31453163002152 30.269329852890223,91.9496129991021 31.032883991021663,87.71245248318883 33.408385755028576,80.91324867401272 33.66290380107239,71.65048738149926 33.57806445239112,65.9351217932417 32.81451031379402,57.46055127622094 31.881277477834374,48.19756264705211 31.966116826981306,40.31409733812325 33.57806445239112,35.97816369403154 39.431979512795806,37.35778107866645 48.255271778441966,39.525747229810804 54.787901628762484,41.200990432233084 63.2718364992179,43.66457804176025 68.36219742102548,45.33981398778269 73.96159443538636,46.32524552557152 78.88227666029707,48.19756264705211 80.23970623966306,53.02615303004859 79.39131275285035,61.3036797773093 78.62775861425325,68.59572726784972 78.28840121952817,74.50815735710785 77.69452577875927,82.09572237648536 77.35516838356853,90.37299732741667 77.01581098884344,95.59552677825559 76.252256850712,102.09901412023464 76.08257815334946,108.40538382396335 75.57354206126183,113.52927856717724 72.43448615912348,114.31756762805162 66.6654104469344,110.67172527167713 59.62374450452626,107.32147949264618 56.14533120766282,105.54781520779943 49.52786200866103,102.49316344590625 46.21912740916014,100.42387767264154 40.789409092161804,98.15751192357857 35.10517272911966,94.61014604725642 29.845133109483868,90.5700744286296 33.23870705766603,81.50448570831213 33.57806445239112,74.90231806237716 33.1538677085191,68.79280886054039 33.06902836030349,62.190553390653804 32.89934966247529,53.4203225960955 32.81451031379402,47.507762029068545 32.30547422170639,38.83594035159331 34.42645793920383,34.99272148538148 41.04392713820562,36.76651672931621 47.40687829116359,38.934484221972525 56.14533120766282,41.59516487666406 64.28990868339315,43.7631214139401 72.77384355384856,46.22670241736341 79.22163405548781,48.099019731918816 79.98518819361925,56.37658916064538 78.967116009444,65.34387512615649 78.28840121952817,73.62129517574795 77.94904382480308,82.88403736555483 77.18548968620598,92.73791985952994 76.93097164016217,96.77798231400084 76.252256850712,103.67561044747708 75.57354206126183,111.26294389594113 73.79191573802382,115.00732002302539 65.13830217020586,110.5731887985603 58.4359936225228,107.02586900693132 50.545934192836285,102.88731260877103 44.8616978302598,100.02972749376204 39.77133690798655,97.27067168877693 31.37224138621241,93.13207304605749 29.92997245816514,90.5700744286296 32.22063487302512,83.27819461614126 33.408385755028576,76.28187925060047 33.06902836030349,69.58113482297631 32.729670965112746,60.712430244719144 32.89934966247529,52.92761061305646 32.39031357038766,44.35438143409556 32.39031357038766,36.4708844171837 34.850654682610184,35.09126575203845 42.82555346097797,37.751957108441275 51.309488331433386,40.117009872046765 59.538905155844986,42.48205678188242 67.68348263157532,44.74855457741069 75.65838140947744,47.113590023771394 80.57906363438815,50.56258955685189 79.64583079889417,57.75617709412472 79.05195535765961,62.880343409546185 78.62775861425325,69.48259411350591 78.2035618708469,76.77457919233711 78.2035618708469,82.68695867923088 77.52484708139673,87.71245248318883 76.93097164016217,96.87652020936366 76.252256850712,105.64635219902266 75.4887027121149,114.21903153083986 73.36771899461746,114.90878399700159 67.34412523685023,111.36148029757896 63.01731845270842,109.29221372614847 55.46661641821265,105.64635219902266 47.66139633720741,101.50778982718475 39.262300815433264,97.36920953309163 33.49322510370985,94.21599347074516 29.590615063440055,90.5700744286296 32.47515291906893,83.27819461614126 33.66290380107239,78.94245591812069 33.74774314975366,71.84756834380096 33.323546406347305,67.41323686070973 33.49322510370985,60.613888620457146 32.729670965112746,50.85821750888135 32.47515291906893,42.28496976295719 32.644831616431475,35.682531138067134 37.141317097935826,35.682531138067134 45.455573270563036,38.244676916860044 53.515311397612095,40.80681582534453 61.40537082729861,43.07331759482622 69.63478765124455,45.43835718726041 77.77936512697488,47.70484797068639 80.74874233175069,50.75967486813897 79.56099144974723,58.84013764496194 78.967116009444,67.41323686070973 78.37324056820944,75.19793848466361 78.03388317348436,84.75628285773564 77.10065033752471,90.66861296398565 77.10065033752471,94.21599347074516 76.16741750156507,104.16829626623075 75.57354206126183,111.46001668920508 74.47063052747399,115.20439204457216 72.51932550733909,114.61317585833604 65.22314151888713,110.5731887985603 59.0298690632917,107.22294267418329 51.988203120883554,103.77414763136767 43.92846499430016,99.43850192037644 36.97163840057328,95.59552677825559 30.77836594497785,92.73791985952994 30.09965115552768,89.68322715314571 32.729670965112746,81.6030251783086 33.408385755028576,73.12859360827133 33.06902836030349,64.4570044396678 32.98418901162222,55.686794447072316 32.729670965112746,48.493191330868285 32.47515291906893,40.01846612378722 34.34161859052256,34.99272148538148 42.910392810124904,37.55486911366461 51.309488331433386,40.21555361000355 58.18147557694465,42.18642623809865 65.05346282152459,44.25583812268451 72.34964680997655,46.32524552557152 79.30647340370342,48.099019731918816 80.4093849370256,54.79991479788441 79.13679470634088,63.57013293035561 78.71259796293452,70.86216312553734 78.11872252169997,78.055597851926 77.94904382480308,84.36212621710729 77.35516838356853,90.27445876167621 76.67645359411836,98.94581366324564 75.74322075815871,107.32147949264618 75.4887027121149,113.92342317907605 73.53739769244567,115.00732002302539 66.24121370352805,111.06587106181541 57.67243948439136,106.33611085190205 51.05497028538957,102.88731260877103 43.92846499430016,99.43850192037644 36.12324491329491,95.49698875070317 30.09965115552768,92.34376651077764 30.439008549787104,87.90953013312537 32.644831616431475,82.09572237648536 33.23870705766603,73.3256742656813 33.06902836030349,67.90594137465814 32.644831616431475,59.82555525976932 32.729670965112746,50.956760139379185 32.559992268215865,44.35438143409556 32.39031357038766,37.062148949771654 34.171939893160015,34.99272148538148 37.989710584748536,36.07670785917435 46.049448711797595,38.63885258085793 54.278865536209196,41.200990432233084 64.37474803207442,44.157294801145326 72.6890042051673,46.22670241736341 79.05195535765961,48.099019731918816 80.83358168043196,51.44947313860757 79.73067014757544,57.36200931633357 79.13679470634088,62.289094852341805 78.45807991689071,71.05924425052945 78.03388317348436,79.63223384489538 77.18548968620598,88.50076283863746 76.93097164016217,96.97505809442373 75.74322075815871,106.0405000615865 75.40386336343363,113.62781473546056 73.36771899461746,114.71171191462781 66.41089240089059,110.77026173425838 57.163403392303735,106.33611085190205 48.76430787006393,101.80340201949002 42.7407141122967,98.45312515186379 34.42645793920383,94.80722227483056 29.845133109483868,90.5700744286296 32.644831616431475,82.29280118504539 33.23870705766603,72.43881098704878 32.644831616431475,63.86575685831485 33.06902836030349,55.19408363249386 32.47515291906893,46.029616170795634 32.39031357038766,38.934484221972525 41.97715997416526,37.259237045946065 47.06752089597285,39.131571931939106 53.600150746293366,41.102446795848664 60.64181668916717,42.87623069778783 68.70155481575057,45.14272755838465 77.4400077322498,47.60630500485422 80.1548668909818,49.97133337811101 79.64583079889417,56.475131221930496 78.88227666029707,65.14679282263387 78.37324056820944,74.21253672119929 77.4400077322498,83.27819461614126 77.01581098884344,90.47153588302899 77.18548968620598,94.01891712110955 76.59161424543709,99.93118992360542 76.08257815334946,106.33611085190205 75.57354206126183,113.92342317907605 70.82253853371367,113.43074238894042 63.2718364992179,108.99660385015886 55.29693772085011,105.35074119537603 48.50978982448578,101.50778982718475 40.789409092161804,97.76336080941837 35.8687268672511,95.20137460780097 30.523847898934036,91.85107459576102 32.05095617566258,84.85482199280523 33.74774314975366,74.50815735710785 33.23870705766603,65.63949850550853 32.81451031379402,57.46055127622094 32.729670965112746,49.08444842410972 32.559992268215865,41.102446795848664 32.47515291906893,36.4708844171837 34.765815334394574,35.09126575203845 43.58910759957507,37.94904506241437 48.424950475338846,39.230115771642886 56.90888534579426,41.79225203790702 65.3079808675684,44.25583812268451 73.70707638934255,46.71941785584204 80.32454558834434,50.26696151308715 79.73067014757544,55.588252304529306 79.13679470634088,64.25992195337312 78.45807991689071,72.8329725456424 77.77936512697488,81.01178820518544 77.10065033752471,89.97884300304577 76.42193554760888,98.94581366324564 75.91289945552126,106.63172155094799 75.4887027121149,113.82488704123534 73.02836159942672,114.71171191462781 65.98669565748423,110.5731887985603 63.61119389347732,108.8980672043399 57.58760013571009,105.84342615067726 51.47916702879593,103.18292437453056 42.82555346097797,99.04435133485822 35.529369472526014,95.49698875070317 29.505775714293122,92.04815139219863" stroke="yellow" stroke-dasharray="none" stroke-linecap="round" stroke-linejoin="round" stroke-width="0.5"><title>2026-05-29 25.0km</title><desc>9223370256785020044</desc></polyline><polyline fill="none" opacity="1" points="153.57834290410392,85.23668030335102 154.6908924956806,86.12079697102308 155.92055257083848,87.20893893565517 157.15021264599636,88.09305296005914 158.43842796236277,89.04517443024088 160.0779747290071,89.92928599356674 161.71752149565145,90.7453879233799 163.1228472958319,92.03754724713508 163.00573681248352,93.53372856514761 162.06885294569656,94.89389045489952 161.307634804165,95.98201794712804 160.37075093737803,97.1381514412933 159.55097755393945,98.36229057941819 158.78975941240788,99.65443498280365 157.9114307872951,100.87856945162639 156.9745469209738,102.30672346049687 156.15477353753522,103.59886013792129 155.1007791873999,104.68697327165864 153.9882295958232,105.91109840152785 153.2270114540588,106.99920772132464 152.40723807085305,108.08731524622999 151.5874646876473,109.44744712853571 150.88480178755708,110.3315313483472 150.35780461272225,111.28362072148593 149.4209207459353,112.5757398159476 148.3083711543586,114.00386850198265 146.9616005960852,114.81994064885657 145.32205382920802,114.2758926632232 143.85817278758623,113.59583204996306 142.39429174596444,112.64374601381132 140.93041070457548,111.82767117483309 139.29086393793114,110.80757620668737 137.82698289607652,109.92349262489006 136.30454661278054,109.03940785833402 134.89922081283294,108.15532190690283 133.37678452953696,107.27123477071291 131.73723776289262,106.31913960672682 130.21480147959664,105.36704306869069 128.69236519606784,104.55095922789769 127.11137367133051,103.66686726146145 125.7060478713829,102.71476689534029 124.18361158808693,101.83067246788414 122.66117530455813,101.01458425226156 122.25128861307167,99.65443498280365 123.36383820464835,100.60653976601316 124.41783255478367,100.94657685549464 125.7060478713829,101.42262848623795 126.76004222151823,102.64675967395306 128.10681277979165,103.46284586994443 129.6292490628548,104.00690277351532 131.15168534615077,104.41494515666272 132.32279017963447,105.5710638712626 133.4938950126525,106.65917375177378 135.0748865378555,107.40724825358484 136.4216570961289,108.42734847974498 137.76842765463516,109.37944060115842 139.17375345434994,110.26352491189027 140.87185546266846,111.3516270526452 142.39429174596444,112.09969623346115 143.79961754614487,112.98377689876361 145.43916431278922,113.52782595017925 146.25893769599497,114.54791671194835 146.43460342101753,115.43199409655062 145.20494334585965,114.47991071030265 143.9752832709346,113.73184422869235 142.68706795410253,112.91577073588269 141.28174215438776,112.09969623346115 139.7007506294176,111.28362072148593 138.29542482970282,110.53555061540101 137.00720951287076,109.78747966099763 135.48477322957478,108.7673815380549 134.13800267106853,108.15532190690283 132.8497873544693,107.40724825358484 131.62012727954425,106.86319415451726 130.21480147959664,106.1831258998136 128.69236519606784,105.29903612058843 127.28703939635307,104.41494515666272 125.88171359640546,103.53085300768726 124.35927731287666,102.57875244517345 122.7782857879065,101.62665050866781 122.07562288804911,100.4025174282724 122.7782857879065,98.83834407507675 123.42239344655536,97.34217478870414 123.832280137809,95.84600210888311 124.53494303789921,94.28181795141427 125.23760593798943,92.85364656848833 126.05737932142802,91.49348047183594 126.76004222151823,89.92928599356674 127.22848415467888,88.4330965000554 127.69692608783953,86.86889476462966 128.34103374602273,85.50871632742928 129.10225188801996,84.14853508543456 129.39502809615806,82.65233247971628 130.0391357545741,81.224135917495 130.56613292964175,79.65991708694492 130.91746437968686,78.43574324052315 131.32735107117333,76.93952767649898 132.26423493796028,75.57932876388077 133.2596740461886,74.55917773867259 132.90834259614348,72.85892252373742 133.4938950126525,71.43070475623244 134.07944742962718,70.07049448339967 134.4307788796723,68.30221693497151 135.01633129594848,66.46592369407881 135.4262179879006,64.6976364821312 135.4262179879006,62.86133320571389 135.60188371292315,61.36508231161861 135.7189941960387,59.86882802285254 135.7189941960387,58.10052312380867 135.7189941960387,56.536249453551136 135.60188371292315,54.56389910285361 135.48477322957478,52.727567611960694 135.48477322957478,50.75520587118808 135.25055226287805,48.98687653709203 135.30910750455223,47.49059416662203 134.89922081283294,45.85828225425212 134.89922081283294,44.430006016918924 134.89922081283294,43.001726686314214 134.89922081283294,41.505430736695416 134.95777605473995,39.94111770496238 134.95777605473995,38.240773244411685 135.01633129594848,36.60843843803741 135.19199702097103,35.18014216813026 136.4216570961289,34.63602848968003 137.8855381377507,34.97609959146939 139.40797442104667,35.45219883910613 141.1060764293652,35.9282977427938 142.62851271266118,36.33638224424794 144.20950423763134,36.88049451971892 145.84905100404285,37.42460634640884 147.5471530125942,37.96871772402665 149.06958929589018,38.44481481122784 150.70913606253453,38.78488394897431 152.46579331276007,39.19296668242896 153.92967435414903,39.53303543420043 155.39355539577082,40.009131392114796 157.03310216218233,40.621254261699505 158.3213174790144,41.09734943404328 159.60953279584646,41.36940366378985 161.13196907914244,41.84549829602474 162.59585012076423,42.38960602635052 164.17684164573438,42.79768652940402 165.99205413740128,43.341793474100996 167.04604848707095,44.157953049463686 167.80726662906818,45.24616424564738 167.86582187050954,46.5384127087309 167.80726662906818,48.102710091974586 167.63160090404563,49.73501644952921 167.39737993711606,51.2993062507594 167.2217142120935,52.86359234218253 167.04604848707095,54.29185031563975 166.81182752083987,56.060165426228195 166.75327227893285,57.76046394603327 166.5776065539103,59.46075808239402 166.40194082888775,61.093036329664756 166.46049607079476,62.86133320571389 166.34338558721356,64.42559187475126 166.2262751038652,66.19387981615728 166.167719862191,68.03017381438985 165.9334988957271,69.86646270035999 165.8749436540529,71.56672562903259 165.69927792903036,73.13096365268575 165.75783317070454,74.76320806989679 165.40650172065943,76.32743851293344 165.28939123731107,77.68763588264119 165.1137255122885,79.45588827028405 165.1137255122885,81.224135917495 165.05517027061433,82.85636030760361 164.99661502917297,84.42057155823568 164.82094930415042,86.12079697102308 164.87950454559177,87.68500048061833 164.87950454559177,89.24920028075576 164.29395212908275,89.92928599356674 163.41562350396998,89.99729452643078 162.47873963741586,89.92928599356674 161.36619004583918,88.90915716154268 159.96086424589157,88.02504423097707 158.6726489290595,87.00491245393641 157.15021264599636,86.25681481492938 155.68633160414174,85.30468931992073 154.28100580419414,84.48858065885724 153.16845621261746,83.87649850046728 151.70457517076284,83.40043420688016 150.1235836460255,82.65233247971628 148.71825784584507,81.97223926422885 147.6057082542684,81.224135917495 146.02471672929823,80.81607918883674 144.61939092935063,80.20399362238823 143.38973085419275,79.38787865074119 141.69162884587422,78.63977237278596 140.461968771182,78.02768478705548 139.05664297100157,77.41559663321823 137.65131717105396,76.73549801827176 136.24599137110636,76.05539870233042 135.01633129594848,75.37529868498677 133.66956073767506,74.76320806989679 132.67412162944674,73.81106598401675 133.02545307949185,72.11080884066178 133.66956073767506,70.61457892903127 134.19655791274272,68.91431354585802 134.4893341208808,67.41807638300816 134.89922081283294,66.12586882920004 135.0748865378555,64.28956952918088 135.13344177952968,62.58928784093587 135.19199702097103,60.957013296778314 135.19199702097103,59.392746401019394 134.60644460469484,57.896487638296094 134.72355508781038,55.99215339415241 134.84066557115875,54.15582587994868 134.78211032948457,52.38750566355884 134.72355508781038,50.82321844313992 134.89922081283294,49.25892751250649 135.0748865378555,47.55860707513057 135.13344177952968,45.79026917030569 135.0748865378555,43.95391325041419 135.13344177952968,42.11755221732892 135.0748865378555,40.34919972316129 135.13344177952968,38.17275937489467 135.19199702097103,36.404396303056274 135.48477322957478,34.97609959146939 136.83154378761537,34.90808538516285 138.47109055449255,35.58822713221889 139.81786111276597,35.99631184403552 141.1646316710394,36.54042440018384 142.80417843791656,36.948508522706106 144.26805947930552,37.42460634640884 145.84905100404285,37.62864816561341 147.43004252924584,38.10474549833452 148.95247881277464,38.580842487339396 150.4749150958378,39.05693913268624 152.05590662080795,39.46502169803716 153.57834290410392,39.873104010825045 155.1007791873999,40.34919972316129 156.6232154709287,40.621254261699505 158.0285412708763,41.16536300198641 159.55097755393945,41.57344426261261 161.01485859579407,42.04953874758212 162.47873963741586,42.32159258448519 163.94262067903765,42.72967312979745 165.46505696233362,43.20576678001089 166.9289380039554,44.02192652388476 167.80726662906818,45.24616424564738 167.69015614548698,46.74245170829818 167.69015614548698,48.442774249764625 167.5730456621386,49.87104179681046 167.51449042046443,51.43533127568662 167.28026945400052,52.93160469690338 167.16315897088498,54.49588691646932 167.10460372897796,56.128177451260854 166.9289380039554,57.82847579551162 166.75327227893285,59.528769756667316 166.5776065539103,61.1610478356597 166.51905131223612,62.86133320571389 166.40194082888775,64.49360303714639 166.34338558721356,66.26189079607138 166.34338558721356,67.89415221224772 165.99205413740128,69.73044147668406 165.9334988957271,71.36269430915127 165.69927792903036,72.99494310223963 165.69927792903036,74.69519796647364 165.64072268735617,76.39544844790362 165.582167445682,78.09569454676239 165.40650172065943,79.99996497435495 165.28939123731107,81.70020178181585 164.99661502917297,83.19640654727118 164.87950454559177,84.69260791869601 164.87950454559177,86.25681481492938 164.7623940622434,87.75300924485782 164.64528357912786,89.3172088835272 163.88406543713063,89.8612774538924 162.94718157080933,90.20132008218206 161.71752149565145,89.38521747948835 160.4878614207264,88.36508780595614 158.90686989575624,87.5489829313592 157.50154409580864,86.66486817790428 155.97910781227984,85.91677015315508 154.51522677089088,85.10066224931506 152.93423524592072,84.21654421405401 151.52890944574028,83.40043420688016 150.00647316267714,82.5843231898034 148.48403687914833,81.8362205371377 146.90304535417818,81.08811703580432 145.43916431278922,80.27200315805385 144.09239375428297,79.45588827028405 142.45284698787145,78.63977237278596 140.93041070457548,77.68763588264119 139.3494191793725,76.93952767649898 137.70987241272815,76.19141862163087 136.18743612943217,75.4433087183279 134.72355508781038,74.76320806989679 133.3182292880956,74.28713719872758 132.55701114609838,73.26698417507578 133.2011188045144,71.97478807991138 133.90378170460463,70.47855785960564 134.37222363776527,68.91431354585802 134.72355508781038,67.07802200911101 135.01633129594848,65.3777475093375 135.13344177952968,63.47343486582395 135.0748865378555,61.841162509750575 135.30910750455223,60.00485128030414 135.13344177952968,58.372570339997765 135.25055226287805,56.87630926276324 135.13344177952968,55.17600846354617 134.95777605473995,53.61172785691451 135.01633129594848,52.11545597889926 134.95777605473995,50.48315551294945 135.01633129594848,48.91886377573246 134.95777605473995,47.21854246157454 134.84066557115875,45.722256079199724 134.84066557115875,44.089939790195785 134.72355508781038,42.52563288883539 134.54788936278783,40.82529509195592 134.4307788796723,39.328994204232 134.4893341208808,37.56063423282467 134.54788936278783,35.99631184403552 135.66043895459734,34.772056951362174 137.5927619296126,35.18014216813026 138.9980877295602,35.65624126844341 140.40341352950782,36.132340025156736 142.10151553782634,36.67645246908069 143.5653965792153,36.948508522706106 145.14638810418546,37.42460634640884 146.72737962915562,37.83268992166268 148.36692639579996,38.44481481122784 149.94791792100295,38.98892534727929 151.47035420429893,39.46502169803716 153.16845621261746,39.873104010825045 154.63233725423925,40.21317241189536 156.5061049873475,40.6892678787699 158.0285412708763,41.09734943404328 159.4338670708239,41.57344426261261 161.13196907914244,41.913511786900926 162.5372948788572,42.38960602635052 164.05973116215318,42.86569992202567 165.64072268735617,43.27378013066482 166.98749324586242,43.95391325041419 167.86582187050954,45.31417738564778 168.04148759529926,46.74245170829818 167.69015614548698,48.30674860771978 167.51449042046443,49.80302912660409 167.33882469590753,51.231293727993034 167.28026945400052,52.79557998047676 167.28026945400052,54.49588691646932 167.10460372897796,56.128177451260854 166.9289380039554,57.76046394603327 166.81182752083987,59.32473471283447 166.5776065539103,60.957013296778314 166.5776065539103,62.65729919268051 166.51905131223612,64.49360303714639 166.51905131223612,66.26189079607138 166.2848303457722,68.16619538870873 166.05060937884264,69.93447330180788 165.81638841237873,71.70274647406768 165.69927792903036,73.53902513557114 165.64072268735617,75.10325848177308 165.5236122040078,77.00753754843026 165.46505696233362,78.84380144171882 165.28939123731107,80.61205072968733 165.05517027061433,82.44830458867364 164.87950454559177,84.08052594983019 164.82094930415042,86.05278803879628 164.7623940622434,87.75300924485782 164.64528357912786,89.3172088835272 163.7669549540151,90.06530305201886 162.59585012076423,90.06530305201886 161.13196907914244,89.3172088835272 159.84375376231037,88.4330965000554 158.3213174790144,87.5489829313592 156.79888119595125,86.80088590929518 155.39355539577082,85.84876119962428 153.9882295958232,84.82862605713308 152.9927904875949,84.14853508543456 151.52890944574028,83.26441577408696 150.1235836460255,82.24427663476672 148.60114736272953,81.8362205371377 147.1958215625491,81.15612648020033 146.02471672929823,80.54404122964479" stroke="#4DD2FF" stroke-dasharray="none" stroke-linecap="round" stroke-linejoin="round" stroke-width="0.5"><title>2026-05-05 10.0km</title><desc>9223370258867873807</desc></polyline><polyline fill="none" opacity="1" points="19.530018331832252,222.17722554557258 19.67850595782511,221.1855555420334 19.82699358393438,220.10764802935591 19.88267644366715,219.09440990029543 19.901237396872602,218.27519250374462 19.938359303516336,217.43441341667494 20.086846929509193,216.57207237902912 20.161090742447414,215.68816912398324 20.23533455550205,214.8042621318309 20.328139321762137,213.98502792396175 20.383822181494907,213.18734942629817 20.90352887264453,213.03643693566846 21.0520164987538,212.08784164303506 20.922089825966395,211.0961237802985 21.033455545431934,210.44934872645536 21.033455545431934,209.6085381647863 21.126260311692022,208.76772422116483 21.27474793768488,207.9484663564508 21.27474793768488,207.0860861879919 21.293308891006745,206.22370246172068 21.330430797534063,205.3613151776226 21.386113657266833,204.54204396228306 21.441796516999602,203.7012096390099 21.47891842352692,202.88193191694154 21.51604033005424,202.12733117400785 22.03574702120386,201.65300931262027 22.77818515128456,202.0410909156053 23.520623281481676,202.32137162523577 24.26306141167879,202.55853193205257 25.04262144828681,202.8603719334933 25.896425297949463,203.1406515444978 26.63886342814658,203.3993708518683 27.52978918433655,203.63652993558208 28.30934922094457,203.95992825260328 29.107470210874453,204.21864654589444 29.81278643454425,204.45580470016284 30.648029331001453,204.73608217190485 31.42758936760947,204.9947995045368 32.225710357539356,205.27507625355793 33.09807516040746,205.5769123322243 33.877635197131895,205.9003076471854 34.76856095332187,206.22370246172068 35.52956003672443,206.41773911038763 36.38336388638709,206.7411331244366 37.1258020165842,206.97828841676528 37.92392300651409,207.25856250632205 38.55499541712925,207.6250742101838 39.26031164068263,208.03470417765493 39.96562786446884,208.03470417765493 40.76374885439873,208.29341742771794 41.524747937801294,208.57368975390273 42.267186067881994,208.76772422116483 42.95394133834634,209.09111459972337 43.69637946842704,209.45762309065321 44.494500458356924,209.71633457958524 45.29262144828681,210.10440121284046 45.997937671956606,210.31999347552483 46.66613198898267,210.36311190138804 47.297204399714246,210.53558551594324 48.095325389527716,210.77273650349525 48.83776351972483,211.03144636499928 49.580201649921946,211.31171502028883 50.37832263985183,211.54886512740632 51.250687442719936,211.80757402829477 52.0116865261225,211.95848740605288 52.846929422579706,212.21719580006902 53.64505041250959,212.47590387395758 54.59165902843233,212.62681676921784 55.40834097168408,212.86396538447298 56.16934005508665,213.05799586960347 56.986021998221986,213.2520261745667 57.80270394147374,213.51073296782852 58.56370302475989,213.7909982992569 59.38038496801164,214.24373381007172 60.178505957941525,214.56711571758206 61.106553620658815,214.89049712485576 61.5520164987538,215.14920189046825 62.12740604951978,215.42946502532868 62.665673693991266,215.81752105330816 63.445233730599284,216.05466604915273 64.22479376732372,216.3564865638764 64.96723189740442,216.74454087119375 65.65398716786876,217.17571147884883 66.507791017415,217.64999812026508 67.17598533455748,218.102725274337 67.93698441796005,218.57700981276867 68.34532538964413,219.18064312377828 68.97639780025929,219.69804171746364 69.6260311640799,219.99985697251395 69.49610449140891,220.7759513418423 69.2362511458341,221.4442525181803 68.99495875346474,222.09099355799844 68.69798350147903,222.43592129465833 69.06920256651938,221.465810585054 69.588909257669,220.88374199869577 70.44271310733166,220.66816062950238 71.12946837767959,221.14243934823025 71.79766269482207,221.65983308707655 72.39161319890991,222.17722554557258 73.17117323563434,222.80240639125986 74.00641613209154,223.29823814656993 74.80453712202143,223.75095307019365 75.565536205424,224.0743202726153 76.36365719535388,224.4192447372916 77.18033913848922,224.65637997664453 77.99702108162455,224.93663036738872 78.68377635197248,225.38934174350288 79.3890925757587,225.45401471723744 79.98304307984654,225.77737928579154 80.7440421632491,225.73426403888152 81.28230980760418,225.99295538695878 81.9319431715412,226.1869736879744 82.73006416135468,226.42410692252452 83.41681943181902,226.81214254442602 84.2149404217489,227.02771757879236 85.03162236488424,227.26484985979914 85.81118240149226,227.35107971356774 86.5907424382167,227.480424427471 87.20325389550999,227.65288392148796 87.92713107250165,227.9546876937966 88.76237396895885,228.17026155019994 89.7089825848816,228.34272047525155 90.48854262148961,228.64452325184538 91.17529789195396,228.9463255928713 91.93629697535653,229.14034115349932 92.58593033917714,229.42058553437528 93.3098075161688,229.679272321795 94.18217231903691,229.78705838878523 94.94317140243948,229.98107316932874 95.5,230.43377362386673 95.31439046759624,231.10204393212916 94.90604949591216,232.05055296096543 94.59051329060458,232.78348880911653 94.25641613209154,233.581092548382 93.94087992678396,234.27090954524465 93.60678276815452,235.11162093354505 93.17988084326498,235.77987629269774 92.93858845112845,236.5774686032819 92.58593033917714,237.2672757160326 92.14046746119857,237.93552418675972 91.95485792856198,238.71155198899214 91.73212648951449,239.42290827806573 91.34234647126868,240.04803756486217 91.08249312569387,240.8887257284805 90.63703024748247,241.55696262721904 90.43285976175684,242.35453290495207 90.0616406967165,243.00120927557873 89.78322639781982,243.64788364668493 89.11503208079375,243.1736559700512 88.50252062338404,242.91498587506067 87.92713107250165,242.67787134017271 87.35174152161926,242.39764472514798 86.70210815768223,242.1174177346984 86.01535288745072,241.83719036870752 85.34715857019182,241.5138506337098 84.66040329972748,241.19051039875194 83.95508707605768,240.86716966390668 83.21264894597698,240.54382842913037 82.58157653536182,240.1127060051076 81.89482126489747,239.96181294672715 81.4493583869189,239.72469506364723 80.76260311645456,239.44446449150564 80.1315307058394,239.2073460217798 79.50045829522423,238.90555848968506 78.83226397808176,238.60377052197873 78.18263061414473,238.3019821188791 77.51443629700225,238.00019328024064 76.80912007344887,237.65529121707368 76.0852428964572,237.3535014451918 75.3799266727874,236.98704185095266 74.7302933089668,236.6852511146426 73.95073327224236,236.3834599428519 73.24541704868898,236.0816683355224 72.52153987181373,235.80143288160616 71.79766269482207,235.4996404343401 71.01810265821405,235.1331775913568 70.2942254813388,234.80982749075338 69.588909257669,234.46492016567208 68.95783684705384,234.03378520929255 68.88359303388279,233.3870811080269 69.18056828610133,232.69726119558618 69.57034830434714,231.81342610705178 69.8487626031274,231.03737270538113 70.16429880843498,230.2182021010958 70.46127406053711,229.48525726127264 70.77681026584469,228.75230985227972 71.07378551794682,228.04091726300248 71.35219981672708,227.26484985979914 71.59349220898002,226.59656728785194 71.8719065078767,225.79893690587778 72.13175985345151,225.13064964866498 72.4472960587591,224.2898981297185 72.74427131074481,223.57849035771505 73.17117323563434,222.82396431814414 73.89505041250959,223.27668026865285 74.60036663617939,223.6862795696652 73.91361136571504,223.25512238846568 73.28253895509988,222.82396431814414 73.57951420720201,222.2850154798507 73.69087992678396,221.5089267121366 73.96929422556423,220.6897187764116 74.24770852434449,219.95674053410767 74.5075618699193,219.2453180179291 74.84165902854875,218.46921796673269 75.10151237412356,217.71467348803708 75.3799266727874,216.96012628612516 75.71402383141685,216.22713496805227 75.99243813019712,215.58037578847143 76.21516956936102,214.9551733462431 76.49358386802487,214.37308663311705 76.790559120127,213.7478805803985 76.97616865264717,213.07955480125383 77.34738771768752,212.32499086979078 77.73716773604974,212.30343186027312 77.06897341890726,212.41122688548057 76.51214482134674,212.66993471921887 76.2708524290938,213.33826180796314 75.99243813019712,214.04970442548802 75.67690192488953,214.8042621318309 75.41704857943114,215.55881711463735 75.17575618694536,216.24869357291027 75.00870760774706,216.89545068499865 74.6374885427067,217.43441341667494 74.35907424392644,218.1458420950221 74.09922089835163,218.87882668609382 73.82080659957137,219.59025044934242 73.46814848773647,220.30167179180717 73.1897341888398,220.92685824577347 72.63290559127927,221.5089267121366 72.55866177822463,222.30657346009684 72.5772227315465,222.97486974389176 72.31736938585527,223.72939523888635 72.07607699360233,224.4192447372916 71.79766269482207,225.08753426832845 71.53780934924725,225.7558216634643 71.25939505046699,226.42410692252452 70.96241979836486,227.11394753024797 70.72112740611192,227.84690068227064 70.42415215400979,228.53673659593915 70.14573785522953,229.2696847605839 69.88588450965472,229.98107316932874 69.588909257669,230.7355733824079 69.29193400568329,231.51162790421222 68.99495875346474,232.26612259470858 68.69798350147903,233.1068420430238 68.28964252979495,233.71043340866163 67.38015582039952,233.47330843709642 66.71196150325704,233.14995576984074 66.0252062327927,232.8481594958721 65.57974335481413,232.3954642682802 64.80018331820611,232.1798947678617 64.03918423468713,231.83498310491268 63.31530705781188,231.51162790421222 62.55430797440931,231.14515807227872 61.8118698442122,230.8433589049091 61.125114573864266,230.54155930189881 60.51260311645456,230.19664493663004 59.67736022011377,229.87328720232472 59.04628780938219,229.59304342824908 58.30384967918508,229.24812749831472 57.654216315364465,228.9463255928713 56.87465627864003,228.5798512649926 56.44775435386691,228.19181892358756 55.686755270464346,227.97624508939043 55.03712190652732,227.7822284486465 54.23900091659743,227.41575208044378 53.57080659957137,227.11394753024797 52.846929422579706,226.81214254442602 52.19729605875909,226.48877957623336 51.43629697535653,226.16541610789136 50.74954170489218,225.84205213948735 49.85861594870221,225.43245706158632 49.22754353808705,225.02286118127813 48.46654445468448,224.72105317711248 48.1510082493769,225.56180296235834 47.3157653529197,225.7127064121014 46.44340055005159,225.41089940365055 46.14642529794946,226.1438585255819 45.71952337305993,227.0061600853369 45.25549954175949,227.82534327325993 44.88428047671914,228.5798512649926 44.51306141167879,229.42058553437528 44.197525206254795,230.2397592633497 43.86342804774176,230.99425854302535 43.566452795639634,231.72719809359114 43.17667277727742,232.54636278640828 42.879697525291704,233.27929689671146 42.508478460251354,234.09845550937462 42.13725939509459,234.85294086641807 41.78460128325969,235.67209331464255 41.43194317142479,236.29723381377698 41.09784601291176,237.03015477771987 40.76374885439873,237.7846295574418 40.373968835920095,238.56065791964647 40.07699358393438,239.27201472198067 39.70577451889403,239.9833691045642 39.371677360264584,240.6947210675571 39.03758020175155,241.44918262668943 38.72204399644397,242.1174177346984 38.40650779113639,242.87187416139932 38.090971585712396,243.54010472363734 37.73831347399391,244.29455601815425 37.385655362159014,245.04900459109922 36.9958753437968,245.86811710313486 36.68033913848922,246.62255999978515 36.32768102665432,247.42011095998168 35.97502291481942,248.13143762890832 35.23258478473872,248.15299294474244 34.564390467479825,247.67877548316028 33.877635197131895,247.29077857847733 33.209440879989415,247.01055814411666 32.61549037590157,246.62255999978515 31.873052245704457,246.19145010634384 31.279101741616614,245.76033932427526 30.666590284206904,245.4154500588047 29.961274060537107,244.98433767717506 29.330201649921946,244.6178914540942 28.606324473046698,244.1652217038063 27.919569202582352,243.73410674501793 27.158570119179785,243.28143508188077 26.527497708564624,242.9365417284862 25.93354720447678,242.54853602609364 25.228230980806984,242.2036414640752 24.857011915766634,241.68629855458857 24.13313473877497,241.2982905326353 23.557745188008994,240.9318378509197 22.81530705781188,240.58694062265567 22.16567369387485,240.34982344828313 21.460357470205054,239.89714445981372 20.86640696611721,239.57380172527337 20.253895508823916,239.16423354385188 19.715627864352427,238.94867102085846 19.04743354720995,238.56065791964647 18.71333638881333,238.21575678088993 18.58340971590951,238.47443268826464 18.601970669231378,238.53910161509702 18.843263061484322,238.45287637486763 18.93606782774441,238.28042578767054 18.71333638881333,238.40976374142338 18.137946837814525,238.02174964027654 17.506874427199364,237.6121784191928 16.85724106337875,237.18104995142494 16.189046746119857,236.79303357048775 15.613657195237465,236.4481295163714 15.019706691149622,236.1032248933334 14.5,235.7367631081579 14.889780018362217,235.0253942800482 15.35380384977907,234.50803361242288 15.836388634401374,233.81821739774023 16.207607699441724,233.21462634328054 16.690192484064028,232.54636278640828 17.117094408953562,231.92121107400453 17.581118240254,231.23138632581686 17.9708982584998,230.58467355757602 18.286434463923797,229.91640159583767 18.657653528964147,229.39902828764752 19.103116406942718,228.81698178581428 19.5114573786268,228.25649103047908 19.82699358393438,227.60976906130963 19.67850595782511,227.0061600853369 19.381530705839396,226.61812482347887 19.36296975251753,225.92828257996007 19.400091659044847,225.2384380603762 19.437213565572165,224.4192447372916 19.49289642542135,223.6862795696652 19.54857928515412,222.97486974389176 19.54857928515412,222.30657346009684 18.95462878094986,222.62994289642666 18.917506874538958,223.42758536765177 18.82470210827887,224.18210922896105 18.769019248429686,224.89351494715083 18.156507791019976,225.2384380603762 17.562557286932133,225.64803351837327 17.32126489467919,226.1438585255819 17.989459211705253,226.48877957623336" stroke="#4DD2FF" stroke-dasharray="none" stroke-linecap="round" stroke-linejoin="round" stroke-width="0.5"><title>2026-04-26 15.1km</title><desc>9223370259653729807</desc></polyline><polyline fill="none" opacity="1" points="159.3942627031356,195.33147854311392 146.82462484948337,187.79653966706246 133.44404261931777,190.1512094005011 126.95648759789765,199.0989433210343 124.52365446463227,220.29087479179725 124.92912665382028,245.25013465667143 128.57837635278702,254.1977606457658 136.6878201290965,260.79073700029403 146.82462484948337,262.20351641019806 155.74501300416887,257.96517686964944 161.82709583826363,250.4303413121961 164.25992896966636,231.12226846488193 164.66540115885437,212.28504556883126 160.61067926883698,193.9186784508638 149.25745798274875,185.44186871824786 135.87687575258315,186.854671433568 126.95648759789765,196.2733450285159 124.52365446463227,215.11063395626843 124.52365446463227,243.36642168974504 133.44404261931777,259.37795715406537 146.01368047297,262.20351641019806 154.5285964384675,259.84888381743804 161.01615145988762,253.25590610364452 164.25992896966636,240.06992212729529 163.448984593153,214.16877135448158 161.42162364721298,196.2733450285159 151.28481892682612,187.32560557546094 138.30970888398588,186.38373724464327 130.6057372968644,191.09307695459574 124.92912665382028,204.2792023140937 125.33459884300828,232.53505705017596 126.55101540870965,250.4303413121961 141.14801420643926,261.2616635179147 150.06840236112475,260.79073700029403 160.61067926883698,252.78497876040637 164.25992896966636,235.36063290992752 163.85445678047836,208.04665971267968 160.20520708337426,194.8605452273041 152.9067076817155,188.73840770684183 139.93159763887525,186.38373724464327 132.2276260536164,190.6221432024613 127.36195978708565,197.68614439293742 125.33459884300828,216.05249636340886 125.33459884300828,242.42456491477787 127.36195978708565,251.37219643685967 133.03857043012977,258.4361036801711 145.60820828191936,261.7325899885036 153.7176520600915,259.37795715406537 162.232568025589,249.48848599474877 163.85445678047836,223.58738862909377 162.638040214777,200.9826745428145 158.58331832662225,192.97681148024276 151.28481892682612,187.32560557546094 138.30970888398588,186.854671433568 131.0112094860524,191.5640106583014 126.55101540870965,199.0989433210343 125.33459884300828,225.94203991256654 126.55101540870965,247.60477477498353 131.0112094860524,255.61054209433496 138.30970888398588,260.79073700029403 147.23009703867137,261.2616635179147 155.33954081498086,257.96517686964944 162.232568025589,247.13384684780613 163.04351240210235,220.76180548546836 162.232568025589,198.62801039312035 154.93406862579286,188.2674737102352 142.76990296319127,184.97093438357115 134.66045918688178,188.73840770684183 126.14554321952164,208.04665971267968 124.92912665382028,223.11645822552964 125.33459884300828,245.25013465667143 130.6057372968644,255.61054209433496 140.3370698299259,261.2616635179147 148.04104141518474,260.79073700029403 160.61067926883698,250.4303413121961 164.66540115885437,233.94784519914538 163.448984593153,208.04665971267968 159.7997348923236,192.03494431450963 153.31217987276614,186.38373724464327 140.74254201725125,185.91280300542712 130.20026510953903,192.5058779218234 126.14554321952164,200.51174181047827 124.92912665382028,229.70947944233194 126.14554321952164,249.959413677454 131.0112094860524,257.02332310471684 146.01368047297,261.7325899885036 160.20520708337426,253.72683339798823 164.25992896966636,233.4769158656709 163.04351240210235,200.9826745428145 159.3942627031356,193.447744989302 145.60820828191936,185.91280300542712 134.66045918688178,188.73840770684183 126.55101540870965,199.0989433210343 124.92912665382028,228.29668998206034 126.14554321952164,248.54663048079237 133.44404261931777,258.4361036801711 140.74254201725125,261.2616635179147 156.55595738254488,257.494250012096 163.85445678047836,243.83735000435263 165.07087334804237,211.81411400204524 160.61067926883698,196.2733450285159 148.85198579356074,188.2674737102352 137.09329232014716,188.2674737102352 130.6057372968644,193.447744989302 124.92912665382028,204.2792023140937 124.92912665382028,238.18620702344924 126.55101540870965,250.4303413121961 139.12065326236188,260.79073700029403 151.69029111601412,259.84888381743804 162.232568025589,248.0757026518695 164.66540115885437,215.11063395626843 162.638040214777,198.15707741631195 157.36690175905824,191.5640106583014 150.06840236112475,187.32560557546094 136.6878201290965,188.2674737102352 127.76743197627366,197.68614439293742 125.74007103219628,215.58156518358737 125.74007103219628,241.4827079451643 126.95648759789765,250.4303413121961 132.2276260536164,257.494250012096 139.12065326236188,261.2616635179147 151.69029111601412,259.84888381743804 161.01615145988762,250.90126889944077 163.448984593153,229.23854967067018 162.638040214777,202.86640499113128 156.55595738254488,192.03494431450963 144.797263905406,187.32560557546094 136.6878201290965,189.20934165315703 128.17290416546166,199.56987619912252 125.74007103219628,227.35483010066673 126.55101540870965,249.48848599474877 131.4166816752404,256.5523961498402 142.76990296319127,261.2616635179147 154.93406862579286,258.4361036801711 163.85445678047836,240.06992212729529 163.448984593153,222.64552777493373 162.232568025589,200.04080902971327 157.36690175905824,192.5058779218234 149.25745798274875,188.2674737102352 140.74254201725125,187.79653966706246 133.03857043012977,191.5640106583014 126.14554321952164,202.39547245111316 125.74007103219628,228.767619850114 126.14554321952164,246.66291887313128 129.38932072930038,254.6686878427863 135.87687575258315,259.84888381743804 144.39179171808064,261.7325899885036 152.50123549252748,261.2616635179147 161.42162364721298,251.84312392678112 163.448984593153,229.70947944233194 163.04351240210235,211.3431823849678 160.20520708337426,193.9186784508638 149.25745798274875,188.2674737102352 139.5261254515499,187.32560557546094 132.2276260536164,192.03494431450963 127.36195978708565,200.04080902971327 125.74007103219628,217.93622059514746 126.55101540870965,247.60477477498353 131.0112094860524,255.13961499324068 137.49876450747252,259.84888381743804 146.01368047297,260.79073700029403 154.1231242492795,257.96517686964944 159.7997348923236,251.84312392678112 164.66540115885437,234.8897037212737 162.638040214777,203.3373374803923 155.74501300416887,191.5640106583014 148.04104141518474,187.32560557546094 136.2823479399085,190.1512094005011 129.38932072930038,194.8605452273041 126.14554321952164,212.28504556883126 125.33459884300828,238.18620702344924 127.36195978708565,250.90126889944077 136.2823479399085,259.84888381743804 148.44651360623538,260.79073700029403 158.98879051581025,253.72683339798823 162.638040214777,246.1919908504933 163.448984593153,221.7036667270586 163.448984593153,201.92453986452892 160.61067926883698,194.38961186353117 154.1231242492795,188.73840770684183 141.55348639562726,186.854671433568 131.4166816752404,193.447744989302 126.14554321952164,217.93622059514746 126.14554321952164,246.66291887313128 132.2276260536164,257.494250012096 143.17537514865398,261.7325899885036 150.4738745484501,264.5581477880478 160.20520708337426,254.1977606457658 162.638040214777,236.77342018624768 163.04351240210235,210.8722507203929 161.42162364721298,203.80826992169023 158.17784613743424,200.51174181047827 152.09576330520213,188.73840770684183 139.93159763887525,187.32560557546094 132.63309824094176,191.5640106583014 126.14554321952164,202.39547245111316 125.33459884300828,232.06412757048383 129.79479292035103,255.61054209433496 136.6878201290965,260.79073700029403 148.85198579356074,261.2616635179147 161.01615145988762,250.4303413121961 163.448984593153,225.94203991256654 163.448984593153,201.92453986452892 156.96142957173288,189.20934165315703 144.797263905406,186.854671433568 131.0112094860524,194.38961186353117 126.95648759789765,201.92453986452892 125.74007103219628,234.8897037212737 126.14554321952164,247.13384684780613 133.03857043012977,257.494250012096 144.39179171808064,260.79073700029403 155.74501300416887,257.494250012096 161.42162364721298,250.90126889944077 163.85445678047836,226.41297002276406 163.04351240210235,201.45360722811893 156.96142957173288,191.09307695459574 149.66293017193675,187.32560557546094 133.84951480850577,190.6221432024613 126.55101540870965,200.51174181047827 125.33459884300828,232.53505705017596 126.14554321952164,248.54663048079237 133.03857043012977,258.4361036801711 143.58084733970463,263.14536910597235 158.58331832662225,255.13961499324068 162.232568025589,248.0757026518695 165.47634553536773,218.40715153096244 163.448984593153,200.51174181047827 154.93406862579286,190.1512094005011 147.23009703867137,186.854671433568 139.12065326236188,186.854671433568 131.82215386256576,191.5640106583014 125.33459884300828,206.16293140221387 125.74007103219628,239.59899342339486 128.17290416546166,251.84312392678112 137.49876450747252,259.84888381743804 145.60820828191936,261.2616635179147 156.96142957173288,256.0814691465348 161.82709583826363,249.48848599474877 162.638040214777,220.29087479179725 163.04351240210235,200.51174181047827 155.74501300416887,190.6221432024613 148.04104141518474,186.854671433568 133.03857043012977,190.1512094005011 126.55101540870965,200.04080902971327 126.14554321952164,232.53505705017596 126.95648759789765,249.0175582622178 138.30970888398588,259.84888381743804 150.06840236112475,260.31981043331325 159.7997348923236,253.25590610364452 163.448984593153,233.4769158656709 163.448984593153,204.2792023140937 161.42162364721298,196.74427819950506 155.74501300416887,190.1512094005011 143.98631952889264,186.854671433568 132.63309824094176,191.09307695459574 127.36195978708565,197.68614439293742 125.74007103219628,221.2327361307107 126.55101540870965,245.7210627780296 132.2276260536164,256.0814691465348 142.76990296319127,261.2616635179147 157.77237395010889,255.61054209433496 163.448984593153,232.53505705017596 165.07087334804237,208.51759166875854 158.98879051581025,193.447744989302 152.50123549252748,188.73840770684183 137.09329232014716,189.20934165315703 128.17290416546166,199.0989433210343 126.14554321952164,219.81994404876605 126.95648759789765,247.60477477498353 129.79479292035103,254.6686878427863 139.93159763887525,260.31981043331325 154.93406862579286,257.494250012096 162.232568025589,248.0757026518695 164.66540115885437,220.29087479179725 163.04351240210235,204.2792023140937" stroke="#4DD2FF" stroke-dasharray="none" stroke-linecap="round" stroke-linejoin="round" stroke-width="0.5"><title>2025-06-07 10.0km</title><desc>9223370287551093656</desc></polyline></svg>