<?xml version="1.0" encoding="utf-8" ?>
<svg baseProfile="full" height="300mm" version="1.1" viewBox="0,0,200,300" width="200mm" xmlns="http://www.w3.org/2000/svg" xmlns:ev="http://www.w3.org/2001/xml-events" xmlns:xlink="http://www.w3.org/1999/xlink"><defs /><rect fill="#222222" height="300" width="200" x="0" y="0" /><text fill="#FFFFFF" style="font-size:12px; font-family:Arial; font-weight:bold;" x="10" y="20">Over 10km Runs</text><text fill="#FFFFFF" style="font-size:4px; font-family:Arial" x="10" y="280">Runner</text><text fill="#FFFFFF" style="font-size:9px; font-family:Arial" x="10" y="290">未有期</text><text fill="#FFFFFF" style="font-size:4px; font-family:Arial" x="65" y="280">SPECIAL TRACKS</text><rect fill="yellow" height="2.6" width="2.6" x="65" y="283" /><text fill="#FFFFFF" style="font-size:3px; font-family:Arial" x="70" y="285.5">Over 20.0 km</text><rect fill="red" height="2.6" width="2.6" x="65" y="287" /><text fill="#FFFFFF" style="font-size:3px; font-family:Arial" x="70" y="289.5">Over 40.0 km</text><text fill="#FFFFFF" style="font-size:4px; font-family:Arial" x="120" y="280">STATISTICS</text><text fill="#FFFFFF" style="font-size:3px; font-family:Arial" x="120" y="285">Number: 2</text><text fill="#FFFFFF" style="font-size:3px; font-family:Arial" x="120" y="290">Weekly: 1.0</text><text fill="#FFFFFF" style="font-size:3px; font-family:Arial" x="141" y="285">Total: 25.1 km</text><text fill="#FFFFFF" style="font-size:3px; font-family:Arial" x="141" y="290">Avg: 12.5 km</text><text fill="#FFFFFF" style="font-size:3px; font-family:Arial" x="167" y="285">Min: 10.0 km</text><text fill="#FFFFFF" style="font-size:3px; font-family:Arial" x="167" y="290">Max: 15.1 km</text><polyline fill="none" opacity="1" points="52.70669110910967,86.23630072743981 52.904674610472284,84.91407405605423 53.102658111951314,83.47686403914122 53.176901924889535,82.12587986706058 53.20164986257441,81.03359000498313 53.25114573794417,79.91255122222356 53.4491292394232,78.76276317203883 53.548120989929885,77.58422549866373 53.6471127406694,76.40568284242181 53.77085242909379,75.31337056527263 53.845096242032014,74.24979923505452 54.53803849685937,74.04858258090098 54.736021998221986,72.78378885739949 54.56278643454425,71.46149837374105 54.71127406065352,70.5991316352738 54.71127406065352,69.47805088639143 54.8350137489615,68.35696562821977 55.032997250324115,67.26462180860108 55.032997250324115,66.1147815839795 55.057745188008994,64.96493661560817 55.107241063262336,63.8150869034871 55.18148487631697,62.72272528303438 55.25572868937161,61.601612852013204 55.30522456462495,60.509242555941455 55.35472043999471,59.50310823202017 56.04766269493848,58.870679083513096 57.03758020175155,59.38812122080708 58.02749770868104,59.76182883363799 59.01741521549411,60.0780425760604 60.05682859767694,60.4804959113244 61.195233730599284,60.85420205933042 62.18515123752877,61.1991611358244 63.37305224570446,61.51537324744277 64.41246562788729,61.946571003471036 65.47662694787141,62.29152872785926 66.41704857943114,62.607739600207424 67.53070577455219,62.98144289586344 68.57011915673502,63.32639933939208 69.63428047671914,63.70010167142027 70.79743354720995,64.10254977628938 71.83684692950919,64.53374352958053 73.02474793768488,64.96493661560817 74.03941338229924,65.2236521471932 75.17781851522159,65.65484416589607 76.16773602215108,65.97105122235371 77.23189734201878,66.3447500084294 78.073327222839,66.83343228025478 79.01374885428231,67.37960557019687 79.95417048595846,67.37960557019687 81.01833180582616,67.72455657029059 82.03299725032412,68.09825300521334 83.02291475713719,68.35696562821977 83.93858845101204,68.78815279965056 84.92850595794152,69.27683078753762 85.99266727780923,69.62177943944698 87.05682859767694,70.13920161713031 87.99725022923667,70.42665796738584 88.88817598542664,70.48414920186042 89.72960586624686,70.71411402124795 90.79376718611456,71.03031533799367 91.78368469304405,71.37526182000875 92.77360219985712,71.74895336039481 93.83776351972483,72.06515350320842 95.00091659033205,72.41009870439302 96.01558203483,72.61131654138444 97.12923923018388,72.956261066749 98.19340054993518,73.30120516527677 99.45554537128191,73.50242235895712 100.5444546288345,73.81862051261123 101.55912007344887,74.07732782611856 102.64802933088504,74.33603489943198 103.73693858855404,74.68097729043802 104.75160403305199,75.0546643990092 105.84051329060458,75.65831174678169 106.9046746105887,76.08948762345244 108.14207149413414,76.52066283315071 108.73602199822199,76.86560252061463 109.50320806610398,77.23928670043824 110.22089825861622,77.7566947377345 111.26031164079905,78.07288806553697 112.29972502298187,78.47531541850185 113.28964252979495,78.99272116160137 114.20531622378621,79.56761530513177 115.34372135659214,80.19999749370618 116.23464711278211,80.80363369910629 117.24931255728006,81.43601308370125 117.79376718611456,82.24085749837104 118.6351970670512,82.93072228995152 119.50137488543987,83.3331426300283 119.32813932187855,84.3679351224564 118.98166819452308,85.25900335758342 118.65994500461966,86.12132474398823 118.26397800201084,86.58122839289717 118.75893675535917,85.28774744673865 119.45187901018653,84.51165599824162 120.59028414310887,84.22421417266014 121.50595783698373,84.85658579765004 122.39688359305728,85.54644411610207 123.18881759862415,86.23630072743981 124.22823098080698,87.06987518834649 125.34188817604445,87.73098419542657 126.40604949602857,88.33460409360123 127.42071494052652,88.76576036348706 128.48487626039423,89.22565964973182 129.57378551806323,89.54183996884967 130.6626947754994,89.91550715651829 131.57836846937425,90.51912232465111 132.51879010093398,90.60535295633599 133.31072410638444,91.03650571437902 134.3253895508824,90.97901871849899 135.04307974339463,91.32394051592564 135.90925756201614,91.58263158396585 136.97341888188384,91.89880923004239 137.88909257564228,92.4161900592444 138.9532538956264,92.70362343839952 140.042163153179,93.01979981304612 141.08157653536182,93.13477295142366 142.12098991766106,93.30723256996134 142.9376718607964,93.53717856199364 143.902841430041,93.93958359170938 145.01649862527847,94.22701540024718 146.2786434465088,94.45696063365904 147.31805682869162,94.85936433580355 148.23373052256647,95.26176745715202 149.24839596706443,95.52045487132273 150.11457378568593,95.8941140458337 151.07974335493054,96.23902976239333 152.24289642530493,96.3827445183997 153.25756187003572,96.64143089242862 154.0,97.24503149848897 153.75252062338404,98.13605857617222 153.20806599454954,99.40073728127754 152.78735105413944,100.37798507881234 152.34188817616086,101.441456731176 151.92117323575076,102.36121272700257 151.47571035753936,103.48216124472674 150.9065077911364,104.37316839027335 150.5847846014658,105.43662480436615 150.11457378568593,106.3563676213671 149.52062328148168,107.247365582356 149.2731439047493,108.28206931863679 148.9761686527636,109.23054437074461 148.45646196161397,110.0640500864829 148.1099908342585,111.18496763796429 147.51604033005424,112.07595016964478 147.243813015637,113.13937720659305 146.74885426217224,114.0016123674286 146.3776351971319,114.86384486223687 145.48670944094192,114.23154129338218 144.6700274978066,113.88664783342392 143.902841430041,113.57049512022058 143.1356553620426,113.19685963352094 142.26947754365392,112.82322364626452 141.35380384989548,112.4495871582767 140.4628780935891,112.01846751163248 139.54720439971425,111.58734719833592 138.60678276815452,111.15622621853254 137.61686526134145,110.72510457216413 136.77543538052123,110.15027467347682 135.85976168652996,109.94908392895013 135.26581118255854,109.63292675153934 134.35013748868369,109.25928598866449 133.50870760774706,108.94312802903005 132.66727772692684,108.54074465291342 131.77635197073687,108.13836069597164 130.91017415223178,107.73597615849576 130.0192483960418,107.33359104034025 129.07882676448207,106.8737216227455 128.11365719523747,106.47133526025573 127.17323556379415,105.98272246794659 126.30705774528906,105.58033481953316 125.26764436310623,105.17794659046922 124.3272227315465,104.77555778069654 123.3620531624183,104.40191050880821 122.39688359305728,103.99952057912014 121.35747021087445,103.5109034551424 120.39230064174626,103.07976998767117 119.45187901018653,102.61989355421974 118.61044912936632,102.0450469457137 118.5114573786268,101.18277481070254 118.90742438146845,100.26301492744824 119.42713107250165,99.08456814274541 119.798350137542,98.04983027384151 120.21906507795211,96.95760280144168 120.61503208079375,95.98034301504958 121.03574702120386,95.00307980304933 121.43171402392909,94.05455635068938 121.80293308896944,93.01979981304612 122.12465627875645,92.12875638381229 122.4958753437968,91.06524920783704 122.84234647126868,90.17419953155331 123.26306141167879,89.05319750629133 123.6590284142876,88.10465381029644 124.22823098080698,87.09861909085885 125.19340055005159,87.7022403581941 126.13382218161132,88.2483727595536 125.21814848762006,87.67349651796394 124.37671860679984,87.09861909085885 124.77268560964148,86.38002063980093 124.92117323563434,85.34523561617243 125.29239230067469,84.25295836853911 125.66361136583146,83.27565404548659 126.01008249318693,82.32709069058183 126.45554537139833,81.29229062231025 126.8020164987538,80.28623131738277 127.17323556379415,79.28016838149051 127.61869844188914,78.3028466240794 127.98991750692949,77.44050105128554 128.28689275903162,76.6068977949908 128.65811182407197,75.8307821774797 129.0540788269136,74.99717410717858 129.30155820352957,74.10607306833845 129.7965169569943,73.09998782639741 130.31622364814393,73.07124248036416 129.42529789195396,73.21496918064076 128.68285976175684,73.5599129589391 128.36113657208625,74.45101574395085 127.98991750692949,75.39960590066039 127.56920256651938,76.40568284242181 127.22273143916391,77.4117561528692 126.9010082493769,78.33159143055673 126.67827681032941,79.19393424666487 126.18331805686466,79.91255122222356 125.81209899182431,80.86112279334338 125.46562786446884,81.83843558144872 125.09440879931208,82.78700059911353 124.62419798364863,83.73556238907622 124.25297891849186,84.56914432768826 123.51054078841116,85.34523561617243 123.41154903767165,86.40876461347216 123.43629697535653,87.29982632517931 123.08982584788464,88.30586031850544 122.76810265821405,89.22565964973182 122.39688359305728,90.11671235779068 122.05041246570181,91.0077622179524 121.67919340054505,91.89880923004239 121.28322639793623,92.81859670698759 120.96150320814922,93.79586757635116 120.56553620530758,94.71564879457583 120.19431714038365,95.69291301409248 119.84784601291176,96.64143089242862 119.45187901018653,97.64743117653416 119.0559120074613,98.68217053893022 118.65994500461966,99.68816345962114 118.26397800201084,100.80912272402202 117.71952337317634,101.61391121154884 116.50687442731578,101.29774458278553 115.61594867100939,100.86660769311129 114.70027497713454,100.4642126611725 114.1063244730467,99.86061902437359 113.06691109098028,99.5731930238253 112.0522456462495,99.11331080656964 111.08707607712131,98.68217053893022 110.07241063250694,98.19354409637162 109.08249312569387,97.79114520654548 108.16681943181902,97.38874573586509 107.35013748856727,96.92885991549701 106.23648029344622,96.49771626977599 105.39505041250959,96.1240579043224 104.4051329055801,95.66416999776266 103.53895508719143,95.26176745715202 102.49954170489218,94.77313501999015 101.9303391383728,94.25575856477371 100.91567369399127,93.96832678586361 100.04949587536976,93.70963793151896 98.98533455550205,93.22100277393474 98.09440879942849,92.81859670698759 97.12923923018388,92.4161900592444 96.26306141167879,91.9850394349778 95.24839596706443,91.55388814385515 94.33272227318957,91.12273618596373 93.14482126501389,90.57660941543872 92.30339138419367,90.0304815750278 91.28872593957931,89.62807090283604 90.8680109991692,90.74907061646809 89.75435380393174,90.9502752161352 88.59120073332451,90.54786587151466 88.19523373059928,91.52514470077585 87.6260311640799,92.67488011377282 87.0073327224236,93.76712436435628 86.51237396895885,94.77313501999015 86.01741521549411,95.8941140458337 85.596700275084,96.98634568447596 85.1512373968726,97.9923447240435 84.75527039426379,98.96959745814092 84.23556370311417,100.06181704852497 83.83959670038894,101.03906252895831 83.3446379469242,102.13127401249949 82.84967919345945,103.13725448853802 82.37946837767959,104.22945775286644 81.90925756189972,105.06297841836931 81.46379468392115,106.04020637029316 81.01833180582616,107.04617274325574 80.49862511467654,108.0808772261953 80.10265811195131,109.02935296265059 79.60769935848657,109.97782547274255 79.16223648039158,110.92629475673311 78.7167736022966,111.93224350226228 78.29605866188649,112.82322364626452 77.87534372147638,113.82916554852272 77.45462878094986,114.72013963150675 76.98441796528641,115.72607469087234 76.51420714950655,116.73200612145592 75.99450045835692,117.82415613753255 75.57378551794682,118.83007999972324 75.10357470228337,119.89348127998528 74.63336388638709,120.84191683854442 73.64344637957402,120.87065725965658 72.75252062338404,120.23836731087067 71.83684692950919,119.72103810464614 70.94592117331922,119.34741085881251 70.15398716786876,118.83007999972324 69.16406966093928,118.25526680843905 68.37213565548882,117.68045243236702 67.55545371235348,117.22060007840628 66.61503208079375,116.64578356954735 65.77360219997354,116.15718860545894 64.80843263072893,115.55362893841811 63.89275893685408,114.97880899335723 62.87809349235613,114.37524677583133 62.0366636114195,113.91538897130522 61.24472960596904,113.39804803478182 60.30430797440931,112.93818861877662 59.80934922094457,112.24839807278477 58.84417965169996,111.73105404351372 58.07699358393438,111.24245046789292 57.08707607712131,110.78258749688393 56.2208982584998,110.46643126438721 55.28047662705649,109.86285927976132 54.48854262160603,109.43173563369783 53.67186067835428,108.88564472511644 52.95417048584204,108.59822802781127 52.06324472965207,108.0808772261953 51.6177818516735,107.62100904117688 51.44454628787935,107.96591025101952 51.46929422568064,108.05213548679603 51.79101741523482,107.9371684998041 51.91475710365921,107.70723438356072 51.6177818516735,107.8796849885548 50.85059578367509,107.36233285369235 50.00916590297129,106.81623789225705 49.1429880844662,106.24139993521385 48.25206232815981,105.72404476066004 47.48487626039423,105.26417268850491 46.69294225494377,104.80429985775845 46.0,104.31568414421054 46.51970669126604,103.3671923734073 47.138405132922344,102.67737814987777 47.78185151249636,101.75762319698697 48.2768102659611,100.95283512439346 48.920256645418704,100.06181704852497 49.48945921182167,99.22828143200604 50.10815765359439,98.30851510108914 50.62786434474401,97.44623141011107 51.048579285270534,96.55520212778356 51.54353803850245,95.8653710501967 52.137488542706706,95.08930904773297 52.68194317154121,94.34198804062908 53.102658111951314,93.47969208174618 52.904674610472284,92.67488011377282 52.508707607747056,92.15749976463849 52.48395967006218,91.23771010659402 52.533455545431934,90.31791741383495 52.58295142080169,89.22565964973182 52.65719523385633,88.2483727595536 52.731439046910964,87.29982632517931 52.731439046910964,86.40876461347216 51.93950504134409,86.83992386190221 51.89000916609075,87.90344715688843 51.766269477666356,88.90947897193837 51.69202566461172,89.85801992952474 50.87534372147638,90.31791741383495 50.08340971590951,90.86404469117406 49.76168652623892,91.52514470077585 50.652612282312475,91.9850394349778" stroke="#4DD2FF" stroke-dasharray="none" stroke-linecap="round" stroke-linejoin="round" stroke-width="0.5"><title>2026-04-26 15.1km</title><desc>9223370259653729807</desc></polyline><polyline fill="none" opacity="1" points="108.37975857034326,257.0930805783719 119.1923502702266,249.55825045751408 124.59864612296224,237.62808370403945 125.13927570916712,199.3258114354685 124.05801653675735,174.20943655539304 111.623536080122,159.76747410092503 99.18905562348664,156.0 82.97016807086766,162.2791222045198 73.77946512401104,177.9768993910402 73.23883553780615,215.65139956120402 75.40135388076305,246.41873515676707 89.99835267849267,258.34888469055295 107.29849939979613,258.9767866516486 117.57046151719987,252.6977641400881 124.05801653675735,242.0234110164456 125.13927570916712,213.1397734680213 123.51738695241511,177.34898908110335 118.651720687747,166.67450389638543 102.43283313326538,157.8837373405695 85.67331599630415,161.02329828077927 77.02324263565242,169.81406030291691 73.23883553780615,201.2095353747718 73.23883553780615,238.25598780065775 84.05142723955214,253.32566668326035 100.810944378376,258.9767866516486 117.02983193285763,251.4419588628225 124.59864612296224,235.74437102675438 125.67990529350936,205.60488897003233 122.97675736807287,174.8373471912928 115.9485727623105,165.41868087789044 99.18905562348664,158.5116496598348 87.83583433739841,160.39538622274995 79.18576097302139,167.93032665271312 74.86072429269552,179.8606299352832 73.77946512401104,215.65139956120402 74.32009470835328,239.5117957969196 79.72639055922627,250.18615332478657 89.45772309415042,257.72098266752437 106.75786981545389,257.72098266752437 116.48920234665275,252.06986153358594 125.13927570916712,225.6978935818188 124.59864612296224,189.90718299336731 121.3548686131835,172.3257042663172 113.78605442121625,162.9070340692997 97.02653728425503,158.5116496598348 85.67331599630415,161.65121027640998 78.1045018043369,169.81406030291691 74.32009470835328,193.04672742495313 74.32009470835328,228.83741956204176 77.56387221999466,245.79083190253004 85.67331599630415,255.20937392301857 97.02653728425503,258.34888469055295 108.37975857034326,257.0930805783719 117.57046151719987,249.55825045751408 124.59864612296224,221.9304602658376 124.59864612296224,186.1397275389172 117.57046151719987,164.7907692734152 107.83912898600101,158.5116496598348 92.16087101772428,157.8837373405695 80.2670201472938,170.44197139143944 75.40135388076305,192.41881866939366 73.77946512401104,227.581609364599 74.86072429269552,242.0234110164456 84.59205682575703,253.9535691603087 99.18905562348664,258.34888469055295 113.78605442121625,253.32566668326035 125.67990529350936,227.581609364599 124.59864612296224,204.97698150807992 124.05801653675735,176.0931682656519 115.9485727623105,161.65121027640998 99.72968520782888,156.62791251158342 84.59205682575703,162.9070340692997 77.02324263565242,171.69779337197542 73.77946512401104,194.30254474561661 73.77946512401104,237.62808370403945 77.56387221999466,248.30244453111663 90.5389822628349,257.72098266752437 112.16416566632688,255.8372762054205 122.97675736807287,243.27921823691577 125.13927570916712,199.3258114354685 121.89549819752574,172.3257042663172 111.0829064976424,160.39538622274995 90.5389822628349,159.13956191157922 78.1045018043369,170.44197139143944 73.23883553780615,192.41881866939366 73.77946512401104,236.37227531755343 80.8076497297734,250.81405612640083 89.45772309415042,257.0930805783719 105.13598106056452,258.34888469055295 122.43612778373063,245.16292858310044 125.67990529350936,213.76768008852378 123.51738695241511,176.0931682656519 114.32668400555849,165.41868087789044 94.32338935695589,159.76747410092503 84.59205682575703,164.1628576037474 74.86072429269552,177.34898908110335 73.23883553780615,204.97698150807992 73.77946512401104,238.88389183115214 82.42953848466277,252.6977641400881 98.10779645293951,258.34888469055295 117.57046151719987,250.18615332478657 125.13927570916712,218.7909307219088 125.13927570916712,179.8606299352832 120.81423902697861,169.18614915153012 111.623536080122,161.65121027640998 94.86401894129813,159.13956191157922 84.05142723955214,164.7907692734152 75.40135388076305,179.23271981952712 74.32009470835328,215.02349313395098 74.86072429269552,237.62808370403945 78.64513139054179,248.93034752784297 87.29520475119352,256.46517842356116 103.51409230567515,258.34888469055295 113.78605442121625,253.32566668326035 124.05801653675735,233.23275322001427 124.59864612296224,198.06999515136704 119.1923502702266,170.44197139143944 110.54227691143751,162.9070340692997 93.78275977261364,160.39538622274995 80.2670201472938,171.06988241476938 74.86072429269552,194.93045330699533 74.32009470835328,230.72113437578082 78.1045018043369,247.6745414719917 91.07961184717715,257.72098266752437 108.37975857034326,256.46517842356116 120.81423902697861,246.41873515676707 125.67990529350936,224.4420827338472 124.59864612296224,188.65136476932094 120.27360944449902,171.06988241476938 111.623536080122,162.9070340692997 99.72968520782888,159.76747410092503 88.376463919878,161.65121027640998 79.72639055922627,169.18614915153012 74.32009470835328,198.06999515136704 74.32009470835328,232.6048486046493 76.48261304944754,244.53502519940957 82.97016807086766,253.32566668326035 93.24213018640876,258.34888469055295 105.13598106056452,260.86049214191735 114.86731358990073,255.20937392301857 124.05801653675735,233.86065777018666 124.05801653675735,210.00023939274251 123.51738695241511,179.8606299352832 116.48920234665275,165.41868087789044 99.18905562348664,159.76747410092503 87.29520475119352,162.2791222045198 78.64513139054179,171.06988241476938 74.86072429269552,183.00017954595387 74.32009470835328,222.5583659792319 77.56387221999466,245.79083190253004 85.67331599630415,253.9535691603087 95.9452781137079,257.72098266752437 106.75786981545389,256.46517842356116 116.48920234665275,250.18615332478657 122.43612778373063,240.7676035366021 125.13927570916712,202.46535101206973 118.11109110154212,169.81406030291691 109.46101773902774,162.2791222045198 98.6484260391444,160.39538622274995 83.5107976552099,166.0465924195014 76.48261304944754,175.4652577615343 74.32009470835328,210.00023939274251 74.32009470835328,238.88389183115214 83.5107976552099,253.32566668326035 93.78275977261364,258.34888469055295 114.86731358990073,252.6977641400881 121.89549819752574,243.90712175006047 125.67990529350936,216.27930592373013 125.13927570916712,184.2559989374131 122.97675736807287,174.20943655539304 117.02983193285763,164.7907692734152 100.810944378376,158.5116496598348 85.67331599630415,164.1628576037474 75.9419834651053,177.9768993910402 74.86072429269552,222.5583659792319 79.18576097302139,248.93034752784297 86.75457516685128,255.8372762054205 101.3515739645809,264.0 116.48920234665275,253.9535691603087 122.43612778373063,243.27921823691577 123.51738695241511,208.11651817243546 123.51738695241511,186.1397275389172 118.11109110154212,177.9768993910402 115.9485727623105,167.93032665271312 104.05472188815475,159.76747410092503 87.83583433739841,161.65121027640998 77.02324263565242,174.8373471912928 73.77946512401104,202.46535101206973 74.86072429269552,241.39550730818883 84.05142723955214,254.5814715740271 99.72968520782888,258.9767866516486 114.86731358990073,252.6977641400881 124.05801653675735,233.23275322001427 125.13927570916712,189.27927391417325 122.97675736807287,173.58152585709468 105.67661064490676,158.5116496598348 90.5389822628349,162.2791222045198 77.56387221999466,173.58152585709468 74.86072429269552,201.2095353747718 74.32009470835328,233.86065777018666 80.2670201472938,249.55825045751408 88.376463919878,255.8372762054205 104.59535147435963,257.72098266752437 118.651720687747,249.55825045751408 124.59864612296224,233.86065777018666 124.05801653675735,189.27927391417325 122.43612778373063,173.58152585709468 111.623536080122,161.65121027640998 94.86401894129813,159.76747410092503 77.56387221999466,172.3257042663172 74.32009470835328,198.6979033248499 73.77946512401104,236.37227531755343 80.2670201472938,251.4419588628225 94.32338935695589,260.86049214191735 110.00164732336998,256.46517842356116 120.81423902697861,245.79083190253004 126.22053487971425,218.7909307219088 126.76116446405649,189.90718299336731 121.3548686131835,172.3257042663172 108.37975857034326,161.02329828077927 97.02653728425503,158.5116496598348 86.75457516685128,161.65121027640998 76.48261304944754,174.20943655539304 74.32009470835328,207.48861096799374 75.40135388076305,240.7676035366021 85.13268641196191,253.9535691603087 94.86401894129813,257.72098266752437 106.21724023111165,257.0930805783719 119.73297985643148,247.6745414719917 124.59864612296224,226.32579890685156 124.59864612296224,182.3722697524354 121.3548686131835,172.3257042663172 109.46101773902774,161.02329828077927 93.78275977261364,159.76747410092503 77.56387221999466,171.69779337197542 74.32009470835328,198.6979033248499 74.86072429269552,237.00017954269424 81.88890890032053,250.81405612640083 95.9452781137079,257.72098266752437 115.9485727623105,251.4419588628225 122.43612778373063,242.65131465997547 124.05801653675735,199.3258114354685 124.05801653675735,177.34898908110335 118.11109110154212,167.30241530714557 109.46101773902774,161.02329828077927 93.24213018640876,159.76747410092503 79.72639055922627,169.18614915153012 74.32009470835328,183.62808927474543 74.32009470835328,215.65139956120402 77.02324263565242,242.65131465997547 92.16087101772428,257.0930805783719 107.83912898600101,256.46517842356116 122.43612778373063,241.39550730818883 126.76116446405649,198.6979033248499 124.05801653675735,177.34898908110335" stroke="#4DD2FF" stroke-dasharray="none" stroke-linecap="round" stroke-linejoin="round" stroke-width="0.5"><title>2025-06-07 10.0km</title><desc>9223370287551093656</desc></polyline></svg>