<?xml version="1.0" encoding="utf-8" ?>
<svg baseProfile="full" height="300mm" version="1.1" viewBox="0,0,200,300" width="200mm" xmlns="http://www.w3.org/2000/svg" xmlns:ev="http://www.w3.org/2001/xml-events" xmlns:xlink="http://www.w3.org/1999/xlink"><defs /><rect fill="#222222" height="300" width="200" x="0" y="0" /><text fill="#FFFFFF" style="font-size:12px; font-family:Arial; font-weight:bold;" x="10" y="20">Over 10km Runs</text><text fill="#FFFFFF" style="font-size:4px; font-family:Arial" x="10" y="280">Runner</text><text fill="#FFFFFF" style="font-size:9px; font-family:Arial" x="10" y="290">未有期</text><text fill="#FFFFFF" style="font-size:4px; font-family:Arial" x="65" y="280">SPECIAL TRACKS</text><rect fill="yellow" height="2.6" width="2.6" x="65" y="283" /><text fill="#FFFFFF" style="font-size:3px; font-family:Arial" x="70" y="285.5">Over 20.0 km</text><rect fill="red" height="2.6" width="2.6" x="65" y="287" /><text fill="#FFFFFF" style="font-size:3px; font-family:Arial" x="70" y="289.5">Over 40.0 km</text><text fill="#FFFFFF" style="font-size:4px; font-family:Arial" x="120" y="280">STATISTICS</text><text fill="#FFFFFF" style="font-size:3px; font-family:Arial" x="120" y="285">Number: 1</text><text fill="#FFFFFF" style="font-size:3px; font-family:Arial" x="120" y="290">Weekly: 1.0</text><text fill="#FFFFFF" style="font-size:3px; font-family:Arial" x="141" y="285">Total: 10.0 km</text><text fill="#FFFFFF" style="font-size:3px; font-family:Arial" x="141" y="290">Avg: 10.0 km</text><text fill="#FFFFFF" style="font-size:3px; font-family:Arial" x="167" y="285">Min: 10.0 km</text><text fill="#FFFFFF" style="font-size:3px; font-family:Arial" x="167" y="290">Max: 10.0 km</text><polyline fill="none" opacity="1" points="67.15675270557404,208.39552129153162 83.37564025819302,221.58147400058806 103.64924969896674,224.40703282132745 121.49002600833774,215.93035374116153 133.65419167280197,200.86068262532353 138.51985793933272,162.24453692883253 139.33080231770873,124.57009113766253 131.22135853767395,87.83735690265894 108.5149159654975,70.88373743649572 81.75375150516629,73.70934286620468 63.9129751957953,92.54669005703181 59.047308929264545,130.22126791253686 59.047308929264545,186.7328433804214 76.88808523863554,218.75591430813074 102.02736094594002,224.40703282132745 119.05719287320971,219.69776763673872 132.03230291604996,206.51181220728904 138.51985793933272,180.1398442555219 136.8979691825807,128.33754270896316 132.84324729442596,92.54669005703181 112.56963785365224,74.65121114999056 86.61941776797175,72.76747448835522 71.21147459000349,82.18615390919149 59.85825330391526,108.55840462818742 60.66919768601656,165.07011410035193 63.10203081741929,200.86068262532353 92.29602841287851,222.52332703769207 110.13680472224951,221.58147400058806 131.22135853767395,205.56995752174407 138.51985793933272,170.72126582171768 137.70891356095672,116.09331942535937 130.41041416302323,89.7210904546082 115.81341536343098,77.47681541275233 89.86319527775049,72.76747448835522 74.45525210350752,81.24428640585393 64.72391957044601,95.37228878587484 60.66919768601656,132.1049927258864 60.66919768601656,184.84912982955575 64.72391957044601,202.74439287465066 76.07714085653424,216.87220736127347 101.21641656383872,223.46517997886986 117.4353041164577,218.75591430813074 134.46513605117798,198.97697199042886 137.70891356095672,147.1747772572562 135.27608042955399,101.96534908656031 127.1666366495192,85.9536229595542 112.56963785365224,74.65121114999056 86.61941776797175,73.70934286620468 72.02241897210479,83.1280213156715 63.10203081741929,98.1978866411373 60.66919768601656,151.88407982513309 63.10203081741929,195.20954954996705 72.02241897210479,211.22108419053257 86.61941776797175,221.58147400058806 104.46019407734275,222.52332703769207 120.67908162996173,215.93035374116153 134.46513605117798,194.26769369654357 136.0870248042047,141.52361097093672 134.46513605117798,97.25602078530937 119.86813725158572,76.53494742140174 95.53980592638254,69.94186876621097 79.32091837003827,77.47681541275233 62.29108643904328,116.09331942535937 59.85825330391526,146.23291645105928 60.66919768601656,190.5002693142742 71.21147459000349,211.22108419053257 90.6741396561265,222.52332703769207 106.08208283036947,221.58147400058806 131.22135853767395,200.86068262532353 139.33080231770873,167.89569039922208 136.8979691825807,116.09331942535937 129.59946978464723,84.06988862808794 116.62435974553227,72.76747448835522 91.4850840345025,71.82560601085424 70.40053021907806,85.01175584364682 62.29108643904328,101.02348362095654 59.85825330391526,159.41895888466388 62.29108643904328,199.91882735677063 72.02241897210479,214.046646210365 102.02736094594002,223.46517997886986 130.41041416302323,207.45366679690778 138.51985793933272,166.95383173134178 136.0870248042047,101.96534908656031 128.78852540627122,86.89548997860402 101.21641656383872,71.82560601085424 79.32091837003827,77.47681541275233 63.10203081741929,98.1978866411373 59.85825330391526,156.593379965052 62.29108643904328,197.09326096251607 76.88808523863554,216.87220736127347 91.4850840345025,222.52332703769207 123.11191476508975,214.98850002512336 137.70891356095672,187.67470000963658 140.14174669608474,123.62822800409049 131.22135853767395,92.54669005703181 107.70397158712149,76.53494742140174 84.18658463656902,76.53494742140174 71.21147459000349,86.89548997860402 59.85825330391526,108.55840462818742 59.85825330391526,176.37241404689848 63.10203081741929,200.86068262532353 88.24130652472377,221.58147400058806 113.38058223202825,219.69776763673872 134.46513605117798,196.15140530467033 139.33080231770873,130.22126791253686 135.27608042955399,96.3141548326239 124.73380351811647,83.1280213156715 110.13680472224951,74.65121114999056 83.37564025819302,76.53494742140174 65.53486395254731,95.37228878587484 61.480142060667276,131.16313036717474 61.480142060667276,182.9654158912599 63.9129751957953,200.86068262532353 74.45525210350752,214.98850002512336 88.24130652472377,222.52332703769207 113.38058223202825,219.69776763673872 132.03230291604996,201.80253780074418 136.8979691825807,158.47709934134036 135.27608042955399,105.73280998226255 123.11191476508975,84.06988862808794 99.594527810812,74.65121114999056 83.37564025819302,78.41868330538273 66.34580832719803,99.13975239731371 61.480142060667276,154.70966020133346 63.10203081741929,198.97697199042886 72.8333633467555,213.10479230154306 95.53980592638254,222.52332703769207 119.86813725158572,216.87220736127347 137.70891356095672,180.1398442555219 136.8979691825807,145.29105554986745 134.46513605117798,100.08161805942655 124.73380351811647,85.01175584364682 108.5149159654975,76.53494742140174 91.4850840345025,75.5930793331936 76.07714085653424,83.1280213156715 62.29108643904328,104.79094490315765 61.480142060667276,157.5352397011593 62.29108643904328,193.3258377481252 68.77864145860076,209.33737568743527 81.75375150516629,219.69776763673872 98.78358343616128,223.46517997886986 115.00247098505497,222.52332703769207 132.84324729442596,203.68624785449356 136.8979691825807,159.41895888466388 136.0870248042047,122.68636476993561 130.41041416302323,87.83735690265894 108.5149159654975,76.53494742140174 89.05225090309978,74.65121114999056 74.45525210350752,84.06988862808794 64.72391957044601,100.08161805942655 61.480142060667276,135.87244119122624 63.10203081741929,195.20954954996705 72.02241897210479,210.27922998648137 84.99752901494503,219.69776763673872 102.02736094594002,221.58147400058806 118.246248498559,215.93035374116153 129.59946978464723,203.68624785449356 139.33080231770873,169.77940744161606 135.27608042955399,106.67467496078461 121.49002600833774,83.1280213156715 106.08208283036947,74.65121114999056 82.56469587981701,80.30241880007088 68.77864145860076,89.7210904546082 62.29108643904328,124.57009113766253 60.66919768601656,176.37241404689848 64.72391957044601,201.80253780074418 82.56469587981701,219.69776763673872 106.89302721247077,221.58147400058806 127.9775810316205,207.45366679690778 135.27608042955399,192.38398170191795 136.8979691825807,143.40733345411718 136.8979691825807,103.84907972998917 131.22135853767395,88.77922372613102 118.246248498559,77.47681541275233 93.10697279125452,73.70934286620468 72.8333633467555,86.89548997860402 62.29108643904328,135.87244119122624 62.29108643904328,193.3258377481252 74.45525210350752,214.98850002512336 96.35075029730797,223.46517997886986 110.94774909690022,229.1162955770269 130.41041416302323,208.39552129153162 135.27608042955399,173.54684037249535 136.0870248042047,121.74450144171715 132.84324729442596,107.61653984338045 126.35569227486849,101.02348362095654 114.19152660667896,77.47681541275233 89.86319527775049,74.65121114999056 75.26619648188353,83.1280213156715 62.29108643904328,104.79094490315765 60.66919768601656,164.12825514003634 69.58958583697677,211.22108419053257 83.37564025819302,221.58147400058806 107.70397158712149,222.52332703769207 132.03230291604996,200.86068262532353 136.8979691825807,151.88407982513309 136.8979691825807,103.84907972998917 123.92285913974047,78.41868330538273 99.594527810812,73.70934286620468 72.02241897210479,88.77922372613102 63.9129751957953,103.84907972998917 61.480142060667276,169.77940744161606 62.29108643904328,194.26769369654357 76.07714085653424,214.98850002512336 98.78358343616128,221.58147400058806 121.49002600833774,214.98850002512336 132.84324729442596,201.80253780074418 137.70891356095672,152.82594004645944 136.0870248042047,102.90721445623785 123.92285913974047,82.18615390919149 109.3258603438735,74.65121114999056 77.69902961328626,81.24428640585393 63.10203081741929,101.02348362095654 60.66919768601656,165.07011410035193 62.29108643904328,197.09326096251607 76.07714085653424,216.87220736127347 97.16169467940927,226.29073821287602 127.1666366495192,210.27922998648137 134.46513605117798,196.15140530467033 140.95269107073545,136.8143030628562 136.8979691825807,101.02348362095654 119.86813725158572,80.30241880007088 104.46019407734275,73.70934286620468 88.24130652472377,73.70934286620468 73.64430772513151,83.1280213156715 60.66919768601656,112.32586280535907 61.480142060667276,179.19798684772104 66.34580832719803,203.68624785449356 84.99752901494503,219.69776763673872 101.21641656383872,222.52332703769207 123.92285913974047,212.16293829400092 133.65419167280197,198.97697199042886 135.27608042955399,140.5817495835945 136.0870248042047,101.02348362095654 121.49002600833774,81.24428640585393 106.08208283036947,73.70934286620468 76.07714085653424,80.30241880007088 63.10203081741929,100.08161805942655 62.29108643904328,165.07011410035193 63.9129751957953,198.03511652443558 86.61941776797175,219.69776763673872 110.13680472224951,220.63962086848915 129.59946978464723,206.51181220728904 136.8979691825807,166.95383173134178 136.8979691825807,108.55840462818742 132.84324729442596,93.48855639994144 121.49002600833774,80.30241880007088 97.97263905778527,73.70934286620468 75.26619648188353,82.18615390919149 64.72391957044601,95.37228878587484 61.480142060667276,142.4654722623527 63.10203081741929,191.4421255569905 74.45525210350752,212.16293829400092 95.53980592638254,222.52332703769207 125.54474789649248,211.22108419053257 136.8979691825807,165.07011410035193 140.14174669608474,117.03518333751708 127.9775810316205,86.89548997860402 115.00247098505497,77.47681541275233 84.18658463656902,78.41868330538273" stroke="#4DD2FF" stroke-dasharray="none" stroke-linecap="round" stroke-linejoin="round" stroke-width="0.5"><title>2025-06-07 10.0km</title><desc>9223370287551093656</desc></polyline></svg>