<?xml version="1.0" encoding="utf-8" ?>
<svg baseProfile="full" height="300mm" version="1.1" viewBox="0,0,200,300" width="200mm" xmlns="http://www.w3.org/2000/svg" xmlns:ev="http://www.w3.org/2001/xml-events" xmlns:xlink="http://www.w3.org/1999/xlink"><defs /><rect fill="#222222" height="300" width="200" x="0" y="0" /><text fill="#FFFFFF" style="font-size:12px; font-family:Arial; font-weight:bold;" x="10" y="20">Over 10km Runs</text><text fill="#FFFFFF" style="font-size:4px; font-family:Arial" x="10" y="280">Runner</text><text fill="#FFFFFF" style="font-size:9px; font-family:Arial" x="10" y="290">未有期</text><text fill="#FFFFFF" style="font-size:4px; font-family:Arial" x="65" y="280">SPECIAL TRACKS</text><rect fill="yellow" height="2.6" width="2.6" x="65" y="283" /><text fill="#FFFFFF" style="font-size:3px; font-family:Arial" x="70" y="285.5">Over 20.0 km</text><rect fill="red" height="2.6" width="2.6" x="65" y="287" /><text fill="#FFFFFF" style="font-size:3px; font-family:Arial" x="70" y="289.5">Over 40.0 km</text><text fill="#FFFFFF" style="font-size:4px; font-family:Arial" x="120" y="280">STATISTICS</text><text fill="#FFFFFF" style="font-size:3px; font-family:Arial" x="120" y="285">Number: 1</text><text fill="#FFFFFF" style="font-size:3px; font-family:Arial" x="120" y="290">Weekly: 1.0</text><text fill="#FFFFFF" style="font-size:3px; font-family:Arial" x="141" y="285">Total: 10.0 km</text><text fill="#FFFFFF" style="font-size:3px; font-family:Arial" x="141" y="290">Avg: 10.0 km</text><text fill="#FFFFFF" style="font-size:3px; font-family:Arial" x="167" y="285">Min: 10.0 km</text><text fill="#FFFFFF" style="font-size:3px; font-family:Arial" x="167" y="290">Max: 10.0 km</text><polyline fill="none" opacity="1" points="103.64924969896674,224.40703282039613 121.49002600833774,215.93035373929888 133.65419167652726,200.8606826243922 138.51985793933272,162.24453692976385 139.33080231770873,124.57009113766253 131.22135853767395,87.83735690172762 108.5149159654975,70.88373743649572 81.75375150516629,73.709342867136 63.9129751957953,92.54669005703181 59.047308929264545,130.22126791253686 59.047308929264545,186.73284337949008 76.88808523863554,218.75591430813074 102.02736094594002,224.40703282039613 119.057192876935,219.69776763487607 132.03230291977525,206.51181220728904 138.51985793933272,180.13984425459057 136.897969186306,128.33754270896316 132.84324729442596,92.54669005703181 112.56963785365224,74.65121115092188 86.61941776797175,72.76747448928654 71.21147459372878,82.18615390919149 59.85825330764055,108.55840462818742 60.66919768601656,165.07011410035193 63.10203081741929,200.8606826243922 92.29602841287851,222.52332703582942 110.13680472224951,221.58147400058806 131.22135853767395,205.56995752081275 138.51985793933272,170.72126581985503 137.70891356095672,116.09331942535937 130.41041416674852,89.7210904546082 115.81341536343098,77.47681541368365 89.86319527775049,72.76747448928654 74.45525210723281,81.2442864049226 64.7239195741713,95.37228878587484 60.66919768601656,132.10499272681773 60.66919768601656,184.84912982955575 64.7239195741713,202.74439287371933 76.07714086025953,216.87220736034214 101.21641656383872,223.4651799770072 117.43530412018299,218.75591430813074 134.46513605117798,198.97697198949754 137.70891356095672,147.17477725818753 135.27608042955399,101.96534908562899 127.1666366532445,85.95362296048552 112.56963785365224,74.65121115092188 86.61941776797175,73.709342867136 72.02241897210479,83.12802131660283 63.10203081741929,98.19788664206862 60.66919768601656,151.88407982513309 63.10203081741929,195.20954954996705 72.02241897210479,211.22108418866992 86.61941776797175,221.58147400058806 104.46019407734275,222.52332703582942 120.67908162996173,215.93035373929888 134.46513605117798,194.26769369561225 136.0870248042047,141.52361097093672 134.46513605117798,97.2560207862407 119.86813725158572,76.53494742047042 95.53980592638254,69.9418687671423 79.32091837376356,77.47681541368365 62.29108643904328,116.09331942535937 59.85825330764055,146.23291645105928 60.66919768601656,190.50026931334287 71.21147459372878,211.22108418866992 90.67413965985179,222.52332703582942 106.08208283036947,221.58147400058806 131.22135853767395,200.8606826243922 139.33080231770873,167.89569039829075 136.897969186306,116.09331942535937 129.59946978464723,84.06988862901926 116.62435974553227,72.76747448928654 91.4850840345025,71.82560601085424 70.40053021907806,85.01175584364682 62.29108643904328,101.02348362095654 59.85825330764055,159.41895888466388 62.29108643904328,199.918827354908 72.02241897210479,214.04664620943367 102.02736094594002,223.4651799770072 130.41041416674852,207.45366679597646 138.51985793933272,166.95383173134178 136.0870248042047,101.96534908562899 128.78852540627122,86.89548997860402 101.21641656383872,71.82560601085424 79.32091837376356,77.47681541368365 63.10203081741929,98.19788664206862 59.85825330764055,156.5933799641207 62.29108643904328,197.09326096158475 76.88808523863554,216.87220736034214 91.4850840345025,222.52332703582942 123.11191476508975,214.98850002419204 137.70891356095672,187.67470000870526 140.14174669608474,123.62822800409049 131.22135853767395,92.54669005703181 107.70397158712149,76.53494742047042 84.18658464029431,76.53494742047042 71.21147459372878,86.89548997860402 59.85825330764055,108.55840462818742 59.85825330764055,176.37241404689848 63.10203081741929,200.8606826243922 88.24130652472377,221.58147400058806 113.38058223202825,219.69776763487607 134.46513605117798,196.151405303739 139.33080231770873,130.22126791253686 135.27608042955399,96.3141548326239 124.73380351811647,83.12802131660283 110.13680472224951,74.65121115092188 83.37564025819302,76.53494742047042 65.53486395254731,95.37228878587484 61.48014206439257,131.16313036717474 61.48014206439257,182.9654158903286 63.9129751957953,200.8606826243922 74.45525210723281,214.98850002419204 88.24130652472377,222.52332703582942 113.38058223202825,219.69776763487607 132.03230291977525,201.80253779888153 136.897969186306,158.47709934134036 135.27608042955399,105.73280998226255 123.11191476508975,84.06988862901926 99.594527810812,74.65121115092188 83.37564025819302,78.41868330631405 66.34580833092332,99.13975239824504 61.48014206439257,154.70966020133346 63.10203081741929,198.97697198949754 72.8333633504808,213.1047922996804 95.53980592638254,222.52332703582942 119.86813725158572,216.87220736034214 137.70891356095672,180.13984425459057 136.897969186306,145.29105554986745 134.46513605117798,100.08161805942655 124.73380351811647,85.01175584364682 108.5149159654975,76.53494742047042 91.4850840345025,75.59307933412492 76.07714086025953,83.12802131660283 62.29108643904328,104.79094490222633 61.48014206439257,157.53523970022798 62.29108643904328,193.32583774626255 68.77864145860076,209.33737568557262 81.75375150516629,219.69776763487607 98.78358343616128,223.4651799770072 115.00247098505497,222.52332703582942 132.84324729442596,203.68624785356224 136.897969186306,159.41895888466388 136.0870248042047,122.68636476993561 130.41041416674852,87.83735690172762 108.5149159654975,76.53494742047042 89.05225090309978,74.65121115092188 74.45525210723281,84.06988862901926 64.7239195741713,100.08161805942655 61.48014206439257,135.87244119029492 63.10203081741929,195.20954954996705 72.02241897210479,210.27922998648137 84.99752901494503,219.69776763487607 102.02736094594002,221.58147400058806 118.246248498559,215.93035373929888 129.59946978464723,203.68624785356224 139.33080231770873,169.77940744254738 135.27608042955399,106.67467496078461 121.49002600833774,83.12802131660283 106.08208283036947,74.65121115092188 82.56469587981701,80.3024188010022 68.77864145860076,89.7210904546082 62.29108643904328,124.57009113766253 60.66919768601656,176.37241404689848 64.7239195741713,201.80253779888153 82.56469587981701,219.69776763487607 106.89302721247077,221.58147400058806 127.9775810316205,207.45366679597646 135.27608042955399,192.38398170098662 136.897969186306,143.40733345411718 136.897969186306,103.84907972905785 131.22135853767395,88.77922372706234 118.246248498559,77.47681541368365 93.10697279125452,73.709342867136 72.8333633504808,86.89548997860402 62.29108643904328,135.87244119029492 62.29108643904328,193.32583774626255 74.45525210723281,214.98850002419204 96.35075029730797,223.4651799770072 110.94774909690022,229.11629557609558 130.41041416674852,208.39552129153162 135.27608042955399,173.54684037249535 136.0870248042047,121.74450144078583 132.84324729442596,107.61653984338045 126.35569227486849,101.02348362095654 114.19152661040425,77.47681541368365 89.86319527775049,74.65121115092188 75.26619648188353,83.12802131660283 62.29108643904328,104.79094490222633 60.66919768601656,164.12825514096767 69.58958584070206,211.22108418866992 83.37564025819302,221.58147400058806 107.70397158712149,222.52332703582942 132.03230291977525,200.8606826243922 136.897969186306,151.88407982513309 136.897969186306,103.84907972905785 123.92285914346576,78.41868330631405 99.594527810812,73.709342867136 72.02241897210479,88.77922372706234 63.9129751957953,103.84907972905785 61.48014206439257,169.77940744254738 62.29108643904328,194.26769369561225 76.07714086025953,214.98850002419204 98.78358343616128,221.58147400058806 121.49002600833774,214.98850002419204 132.84324729442596,201.80253779888153 137.70891356095672,152.8259400455281 136.0870248042047,102.90721445623785 123.92285914346576,82.18615390919149 109.3258603438735,74.65121115092188 77.69902961701155,81.2442864049226 63.10203081741929,101.02348362095654 60.66919768601656,165.07011410035193 62.29108643904328,197.09326096158475 76.07714086025953,216.87220736034214 97.16169467940927,226.2907382119447 127.1666366532445,210.27922998648137 134.46513605117798,196.151405303739 140.95269107073545,136.81430306192487 136.897969186306,101.02348362095654 119.86813725158572,80.3024188010022 104.46019407734275,73.709342867136 88.24130652472377,73.709342867136 73.64430772513151,83.12802131660283 60.66919768601656,112.32586280442774 61.48014206439257,179.19798684678972 66.34580833092332,203.68624785356224 84.99752901494503,219.69776763487607 101.21641656383872,222.52332703582942 123.92285914346576,212.1629382930696 133.65419167652726,198.97697198949754 135.27608042955399,140.5817495835945 136.0870248042047,101.02348362095654 121.49002600833774,81.2442864049226 106.08208283036947,73.709342867136 76.07714086025953,80.3024188010022 63.10203081741929,100.08161805942655 62.29108643904328,165.07011410035193 63.9129751957953,198.03511652443558 86.61941776797175,219.69776763487607 110.13680472224951,220.6396208666265 129.59946978464723,206.51181220728904 136.897969186306,166.95383173134178 136.897969186306,108.55840462818742 132.84324729442596,93.48855639901012 121.49002600833774,80.3024188010022 97.97263905778527,73.709342867136 75.26619648188353,82.18615390919149 64.7239195741713,95.37228878587484 61.48014206439257,142.46547226142138 63.10203081741929,191.44212555605918 74.45525210723281,212.1629382930696 95.53980592638254,222.52332703582942 125.54474790021777,211.22108418866992 136.897969186306,165.07011410035193 140.14174669608474,117.03518333751708 127.9775810316205,86.89548997860402" stroke="#4DD2FF" stroke-dasharray="none" stroke-linecap="round" stroke-linejoin="round" stroke-width="0.5"><title>2025-06-07 10.0km</title><desc>9223370287551093656</desc></polyline></svg>