<?xml version="1.0" encoding="utf-8" ?>
<svg baseProfile="full" height="300mm" version="1.1" viewBox="0,0,200,300" width="200mm" xmlns="http://www.w3.org/2000/svg" xmlns:ev="http://www.w3.org/2001/xml-events" xmlns:xlink="http://www.w3.org/1999/xlink"><defs /><rect fill="#222222" height="300" width="200" x="0" y="0" /><text fill="#FFFFFF" style="font-size:12px; font-family:Arial; font-weight:bold;" x="10" y="20">Over 10km Runs</text><text fill="#FFFFFF" style="font-size:4px; font-family:Arial" x="10" y="280">Runner</text><text fill="#FFFFFF" style="font-size:9px; font-family:Arial" x="10" y="290">未有期</text><text fill="#FFFFFF" style="font-size:4px; font-family:Arial" x="65" y="280">SPECIAL TRACKS</text><rect fill="yellow" height="2.6" width="2.6" x="65" y="283" /><text fill="#FFFFFF" style="font-size:3px; font-family:Arial" x="70" y="285.5">Over 20.0 km</text><rect fill="red" height="2.6" width="2.6" x="65" y="287" /><text fill="#FFFFFF" style="font-size:3px; font-family:Arial" x="70" y="289.5">Over 40.0 km</text><text fill="#FFFFFF" style="font-size:4px; font-family:Arial" x="120" y="280">STATISTICS</text><text fill="#FFFFFF" style="font-size:3px; font-family:Arial" x="120" y="285">Number: 4</text><text fill="#FFFFFF" style="font-size:3px; font-family:Arial" x="120" y="290">Weekly: 1.0</text><text fill="#FFFFFF" style="font-size:3px; font-family:Arial" x="141" y="285">Total: 47.2 km</text><text fill="#FFFFFF" style="font-size:3px; font-family:Arial" x="141" y="290">Avg: 11.8 km</text><text fill="#FFFFFF" style="font-size:3px; font-family:Arial" x="167" y="285">Min: 10.0 km</text><text fill="#FFFFFF" style="font-size:3px; font-family:Arial" x="167" y="290">Max: 15.1 km</text><polyline fill="none" opacity="1" points="71.48330052895471,95.70998624246567 70.54641666216776,96.93412803078536 69.78519852086902,98.02225215779617 68.90686989575624,99.38240479253 68.14565175422467,100.53853232698748 67.2673231291119,102.03469436394516 66.38899450399913,103.25882441567956 65.39355539577082,104.48295219574356 64.39811628730968,105.50305694399867 63.28556669596583,106.72718055965379 62.641459037782624,107.74728183733532 61.88024089578539,109.03940785833402 61.060467512579635,110.12751201807987 60.592025579186156,111.14760803803802 59.65514171263203,112.2357087204582 58.65970260417089,113.59583204996306 57.371487287571654,114.88794661546126 55.73194052092731,114.41190470167203 54.26805947930552,113.799850307405 52.74562319600955,112.91577073588269 51.28174215438776,112.03168997931061 49.64219538774341,111.0115953264758 48.17831434588879,110.19551846862305 46.714433304499835,109.24342752509983 45.250552262878045,108.35934184712823 43.72811597958207,107.54326170828426 42.08856921293773,106.52316011482617 40.56613292964175,105.63907079119235 39.102251888019964,104.75498028285801 37.521260362816975,103.87088858959032 36.057379321428016,102.91878851805814 34.53494303789921,102.03469436394516 33.07106199651025,101.28661376982927 32.017067646374926,100.06248005823 33.24672772153281,100.19849502725992 34.18361158808693,100.94657685549464 35.47182690468617,101.35462113155518 36.525821254588664,102.30672346049687 37.755481329746544,103.32683157414431 39.27791761304252,103.87088858959032 40.80035389610566,104.2789310568478 42.08856921293773,105.23102916532662 43.14256356284022,106.45515328575857 44.6649998461362,107.20322801888688 46.0703256460838,108.08731524622999 47.35854096268304,109.24342752509983 48.82242200453766,110.0595055607264 50.3448582876008,111.07960168580757 51.984405054245144,112.03168997931061 53.38973085419275,112.77975838870043 54.97072237916291,113.18779534549685 56.024716729298234,114.34389868588187 56.785934871062636,115.43199409655062 55.49771955423057,114.68392869445961 54.26805947930552,113.93586244405014 52.979844162939116,113.1197892036871 51.633073604200035,112.2357087204582 50.05208207946271,111.48763969400898 48.70531152095646,110.67156342498492 47.35854096268304,109.99149909621337 45.83610467938706,108.97140128881438 44.48933412088081,108.29133520729374 43.14256356284022,107.61126842495287 41.91290348791517,106.99920772132464 40.56613292964175,106.31913960672682 39.102251888019964,105.50305694399867 37.638370846165344,104.61896625329973 36.291600287891924,103.66686726146145 34.76916400459595,102.85078131733462 33.07106199651025,101.83067246788414 31.899957163026556,100.74255462287692 32.602620063116774,99.24638965527993 33.24672772153281,97.61420582060236 33.715169654693455,96.2540495399735 34.3007220714353,94.68986635003239 35.061940212966874,93.1936876543914 35.88171359640546,91.7655139156268 36.64293173793703,90.2693285869318 37.11137367133051,88.84114851657068 37.521260362816975,87.20893893565517 38.22392326290719,85.84876119962428 38.80947567964904,84.55658975261031 39.27791761304252,83.06038807245204 39.863470029551536,81.49617359618424 40.50757768773474,80.13598408014514 40.74179865466431,78.70778206957038 41.26879582973197,77.34758680331288 41.73723776289262,75.8513687706436 43.025453079491854,74.8992282556137 42.96689783781767,73.19897391751874 43.37678452953696,71.70274647406768 43.96233694604598,70.47855785960564 44.31366839609109,68.8463028394035 44.95777605473995,66.9420002103434 45.367662745993584,65.10570318251848 45.4262179879006,63.40542359830579 45.54332847101614,61.63712818099884 45.66043895459734,60.27689771092264 45.71899419603869,58.57660567847779 45.77754943771288,56.87630926276324 45.66043895459734,55.107996340317186 45.4262179879006,53.20365404494805 45.484773229574785,51.231293727993034 45.30910750455223,49.46296567033278 45.4262179879006,47.89867151330691 44.95777605473995,46.19834756909404 44.89922081283294,44.77007206826238 44.84066557115875,43.341793474100996 44.89922081283294,41.84549829602474 44.95777605473995,40.34919972316129 44.95777605473995,38.648856314772274 45.016331295948476,37.01652251847554 44.95777605473995,35.45219883910613 46.12888088775799,34.5 47.53420668770559,34.90808538516285 49.056642971001565,35.316170517588034 50.69618973764591,35.792269519821275 52.2771812628489,36.26836817822186 53.79961754614487,36.81248050974682 55.49771955423057,37.22056446393253 57.137266320874915,37.83268992166268 58.65970260417089,38.308787107118405 60.29924937104806,38.71687013533665 62.055906620807946,38.98892534727929 63.57834290410392,39.46502169803716 65.04222394572571,39.873104010825045 66.74032595404424,40.48522700637113 68.0285412708763,40.89330868789693 69.31675658747554,41.3013901169179 70.83919287077151,41.709471293434035 72.24451867071912,42.25357913586777 73.8255101959221,42.66165972320596 75.58216744568199,43.27378013066482 76.92893800395541,43.8858999699587 77.63160090404563,44.97411161492346 77.86582187050954,46.26636061118916 77.86582187050954,47.694632871542126 77.69015614548698,49.326940238825046 77.45593517902307,50.891231008281466 77.2217142120935,52.45551806734875 77.10460372897796,53.95178917393787 76.87038276228122,55.516068974044174 76.69471703725867,57.35239270096645 76.5776065539103,58.98467616608832 76.40194082888775,60.684967146546114 76.46049607079476,62.45326511672465 76.40194082888775,64.01752475340618 76.22627510386519,65.71780275990022 76.22627510386519,67.55409808357945 75.9334988957271,69.39038829493802 75.9334988957271,71.15866292605642 75.75783317070454,72.72290191717912 75.75783317070454,74.35514734435128 75.5236122040078,75.98738873220282 75.34794647898525,77.2795769663644 75.11372551228851,79.0478304476128 75.05517027061433,80.74806970963255 75.11372551228851,82.51631389273098 74.99661502917297,84.01251680700807 74.82094930415042,85.71274327178253 74.7623940622434,87.27694774890551 74.87950454559177,88.84114851657068 74.5281730957795,89.79326890711673 73.53273398731835,90.06530305201886 72.83007108722813,90.06530305201886 71.60041101230308,89.24920028075576 70.37075093737803,88.16106168198166 69.02398037910461,87.20893893565517 67.56009933725,86.39283263066318 66.03766305395402,85.57672531576827 64.57378201233223,84.7606169913779 63.46123242098838,83.94450765731744 62.055906620807946,83.53645261150086 60.65058082109317,82.85636030760361 59.06958929589018,82.10825796338031 57.9570397043135,81.4281641872949 56.43460342101753,80.95209812646499 54.97072237916291,80.34001268638531 53.68250706256367,79.52389788278379 52.2771812628489,78.91181111731566 50.754744979552925,78.29972378420644 49.46652966295369,77.61962608090835 48.00264862109907,76.87151779752458 46.597322821151465,76.25942857074551 45.367662745993584,75.51131874474231 43.96233694604598,74.9672383381403 42.8497873544693,74.15111688693287 42.8497873544693,72.45086062001064 43.6110054962337,71.02264196885517 44.138002671068534,69.32237763761077 44.43077887967229,67.75813058181666 44.84066557115875,66.46592369407881 45.07488653785549,64.76564761635382 45.07488653785549,63.06536715535913 45.133441779529676,61.36508231161861 45.30910750455223,59.73280473751947 44.6649998461362,58.3045585466316 44.60644460469484,56.46823747060262 44.89922081283294,54.631911282020155 44.78211032948457,52.86359234218253 44.72355508781038,51.231293727993034 44.89922081283294,49.598991073842626 45.016331295948476,47.96668438002234 45.133441779529676,46.26636061118916 45.133441779529676,44.634045668761246 45.07488653785549,42.59364630962955 45.016331295948476,40.757281488738954 45.133441779529676,38.85289775527781 45.19199702097103,36.81248050974682 45.133441779529676,35.18014216813026 46.480212337803096,34.70404272410087 48.11975910444744,35.45219883910613 49.46652966295369,35.9282977427938 50.81330022099428,36.47241035517072 52.39429174596444,36.81248050974682 53.85817278758623,37.28857843170408 55.43916431278922,37.56063423282467 57.020155837759376,38.03673161473125 58.54259212105535,38.51282865286339 60.18213888746686,38.98892534727929 61.70457517076284,39.328994204232 63.22701145405881,39.73707660124637 64.74944773735479,40.28118607099168 66.21332877897657,40.621254261699505 67.67720982106403,41.09734943404328 69.14109086245298,41.505430736695416 70.66352714574896,41.84549829602474 72.12740818737075,42.25357913586777 73.59128922899254,42.66165972320596 75.11372551228851,43.13775342248846 76.5776065539103,43.61384677817114 77.63160090404563,44.97411161492346 77.74871138716117,46.40238667378435 77.69015614548698,48.102710091974586 77.57304566213861,49.46296567033278 77.51449042046443,51.02725611720234 77.33882469590753,52.59154285362456 77.16315897088498,54.15582587994868 77.04604848707095,55.72010519623291 76.92893800395541,57.42040459276177 76.81182752083987,59.05268788954709 76.63616179581732,60.684967146546114 76.51905131223612,62.385253743908834 76.40194082888775,64.08553595806006 76.40194082888775,65.78581378888339 76.40194082888775,67.48608723684447 76.05060937884264,69.32237763761077 75.9334988957271,70.95463147980627 75.75783317070454,72.58688128262293 75.69927792903036,74.28713719872758 75.58216744568199,75.98738873220282 75.64072268735617,77.68763588264119 75.46505696233362,79.38787865074119 75.34794647898525,81.29214534763014 74.99661502917297,82.7883510387037 74.87950454559177,84.28455333574675 74.82094930415042,85.84876119962428 74.7623940622434,87.4129653541022 74.70383882080205,88.84114851657068 74.1182864040602,89.92928599356674 73.3570682622958,90.20132008218206 72.06885294569656,89.65725179261062 70.89774811221287,88.63712253980339 69.25820134580135,87.82101800182136 67.85287554585375,86.86889476462966 66.33043926232494,86.12079697102308 64.86655822093599,85.30468931992073 63.46123242098838,84.55658975261031 61.88024089578539,83.60446180327563 60.35780461272225,82.7883510387037 58.83536832919344,82.04024861741345 57.31293204589747,81.224135917495 55.790495762834325,80.47603172215167 54.38516996265389,79.72792667837348 52.862733679125085,78.84380144171882 51.34029739582911,77.89166524633765 49.75930587109178,77.07554741331842 48.11975910444744,76.32743851293344 46.597322821151465,75.6473387760343 45.133441779529676,74.8992282556137 43.669560737675056,74.42315748269903 42.674121629446745,73.6070353583782 42.96689783781767,72.38285027822712 43.72811597958207,70.81861048040446 44.19655791274272,69.39038829493802 44.72355508781038,67.48608723684447 44.89922081283294,65.78581378888339 45.133441779529676,63.88150232372573 45.133441779529676,62.24923097732244 45.133441779529676,60.48093246045755 45.30910750455223,58.78064095391892 45.250552262878045,57.21636889647925 45.19199702097103,55.65209312911611 45.016331295948476,53.95178917393787 45.016331295948476,52.45551806734875 45.016331295948476,50.891231008281466 44.89922081283294,49.46296567033278 45.016331295948476,47.626619976828806 44.89922081283294,46.06232146418188 44.84066557115875,44.49801924120402 44.72355508781038,42.93371330777882 44.54788936278783,41.23337656306103 44.48933412088081,39.73707660124637 44.43077887967229,37.96871772402665 44.54788936278783,36.404396303056274 45.250552262878045,35.044113790558185 47.18287523766048,35.044113790558185 48.58820103784092,35.52021298895124 50.05208207946271,35.99631184403552 51.69162884587422,36.60843843803741 53.214065129170194,36.88049451971892 54.736501412699,37.28857843170408 56.31749293766916,37.7646760098869 57.9570397043135,38.308787107118405 59.53803122905083,38.85289775527781 61.060467512579635,39.328994204232 62.81712476257235,39.73707660124637 64.28100580419414,40.14515874552308 65.92055257083848,40.55324063752778 67.67720982106403,40.961322276853025 69.02398037910461,41.505430736695416 70.72208238719031,41.77748479816364 72.18596342904493,42.32159258448519 73.7083997123409,42.72967312979745 75.23083599563688,43.20576678001089 76.75327227893285,43.6818600865663 77.69015614548698,44.97411161492346 78.10004283720627,46.40238667378435 77.69015614548698,47.96668438002234 77.51449042046443,49.46296567033278 77.39737993711606,50.891231008281466 77.33882469590753,52.38750566355884 77.28026945400052,54.08781365171308 77.16315897088498,55.72010519623291 76.92893800395541,57.35239270096645 76.87038276228122,58.98467616608832 76.5776065539103,60.54894402943319 76.5776065539103,62.18121958366828 76.51905131223612,64.08553595806006 76.46049607079476,65.78581378888339 76.34338558721356,67.69011975603644 76.22627510386519,69.45839894528035 75.9334988957271,71.29468385514338 75.75783317070454,73.06295338092605 75.64072268735617,74.69519796647364 75.58216744568199,76.53146829718025 75.58216744568199,78.36773351591546 75.34794647898525,80.20399362238823 75.05517027061433,82.04024861741345 74.93805978726596,83.67247098812368 74.7623940622434,85.50871632742928 74.82094930415042,87.34495655493811 74.64528357912786,88.90915716154268 74.00117592094466,89.92928599356674 73.00573681248352,90.20132008218206 71.48330052895471,89.58924322488019 70.19508521212265,88.63712253980339" stroke="#4DD2FF" stroke-dasharray="none" stroke-linecap="round" stroke-linejoin="round" stroke-width="0.5"><title>2026-05-05 10.0km</title><desc>9223370258867873807</desc></polyline><polyline fill="none" opacity="0.5" points="155.2024040641263,110.50019590958254 153.1360943801701,109.0002496567322 151.0697846962139,107.5003010838409 149.08957124920562,106.5003340797266 147.02326156571507,105.40036918461556 144.52647069795057,104.20040605805116 141.94358359277248,103.30043273873162 139.01631154073402,101.90047258202685 136.60561690991744,100.60050777025754 134.28101851558313,99.20054371649167 131.61203517345712,98.00057291879784 129.1152443056926,96.80060063680867 126.79064591182396,95.60062687005848 124.03556633321568,94.70064557058504 121.88316041277722,93.40067110786913 119.90294696576893,92.10069490270689 119.98904320271686,89.30074023490306 121.10829428117722,87.2007689292077 122.14144912315533,84.50079914031085 122.74412278085947,81.70082253054716 123.17460396513343,79.10083701147232 123.43289267551154,76.10084505856503 123.00241149123758,72.90084341360489 122.83021901734173,70.3008343015681 122.83021901734173,67.500816692831 122.74412278085947,64.40078776713926 122.74412278085947,61.800755865871906 122.74412278085947,59.20071699330583 122.83021901734173,56.70067304139957 122.74412278085947,54.20062264421722 122.48583407048136,51.80056819925085 122.14144912315533,49.30050516879419 121.88316041277722,46.70043277996592 122.22754536010325,44.0003502277541 122.31364159658551,41.5002670866088 122.31364159658551,38.70016631647013 122.48583407048136,35.60004531726008 124.8965287017636,34.70000833267113 127.13503085914999,35.50004124949919 129.54572548996657,36.10006550408434 132.30080506857485,36.90009726549033 134.79759593633935,37.500120653770864 137.2082905676216,38.100143670802936 139.7050814353861,38.90017378231278 142.11577606666833,39.700203233980574 144.61256693443283,40.50023202545708 146.93716532876715,41.20025667664595 149.69224490737543,41.90028082235949 152.18903577513993,42.500301116670016 154.34144169604406,43.300327597826254 156.92432880029082,44.10035341914045 159.33502343157306,44.80037547124084 161.83181429933757,45.40039397106739 164.07031645718962,46.00041209947085 166.56710732495412,46.70043277996592 168.63341700891033,47.30045010370668 170.09705303469673,49.20050251361681 170.5275342189707,51.500560975808185 170.44143798202276,54.10062049416592 170.18314927164465,57.00067865574965 170.09705303469673,59.5007218340761 169.92486056126654,62.00075856730109 169.5804756139405,64.80079205648508 169.3221869035624,67.20081432705047 169.40828314004466,70.1008333118516 169.14999442966655,73.10084382549394 168.97780195623636,75.70084543060511 168.89170571928844,78.20084040018264 168.7195132453926,81.6008232163149 168.37512829853222,83.80080574558815 167.9446471137926,86.30077983468072 167.858550877776,89.00074461277109 167.60026216693223,91.9006984088337 167.34197345655411,95.20063528441824 166.91149227228016,98.6005585033563 166.8253960357979,101.50048359489301 166.65320356190205,104.20040605805116 166.39491485152394,107.60029772738926 166.13662614114583,110.30020320980111 165.96443366724998,112.70011288486421 165.10347129916772,115.30000833101803 163.03716161521152,114.70003307727166 161.22914064163342,114.20005341601791 158.73234977386892,112.50012063863687 156.83823256380856,110.90018118539592 154.42753793252632,109.80022128025303 151.8446508278139,108.30027394450735 149.8644373808056,106.90032100514509 152.44732448551804,108.10028079140466 167.083684746176,100.10052084020572 166.65320356190205,103.40042981540319 166.4810110880062,106.4003373226733 166.2227223776281,110.20020684460178 165.96443366724998,113.10009725327836 165.18956753564999,115.30000833101803 163.46764279948547,114.80002897884697 160.540370747447,113.30008937540697 158.0435798796825,111.90014365286333 155.2024040641263,110.50019590958254 153.1360943801701,109.0002496567322 151.0697846962139,107.5003010838409 149.08957124920562,106.5003340797266 147.02326156571507,105.40036918461556 144.52647069795057,104.20040605805116 141.94358359277248,103.30043273873162 139.01631154073402,101.90047258202685 136.60561690991744,100.60050777025754 134.28101851558313,99.20054371649167 131.61203517345712,98.00057291879784 129.1152443056926,96.80060063680867 126.79064591182396,95.60062687005848 124.03556633321568,94.70064557058504 121.88316041277722,93.40067110786913 119.90294696576893,92.10069490270689 119.98904320271686,89.30074023490306 121.10829428117722,87.2007689292077 122.14144912315533,84.50079914031085 122.74412278085947,81.70082253054716 123.17460396513343,79.10083701147232 123.43289267551154,76.10084505856503 123.00241149123758,72.90084341360489 122.83021901734173,70.3008343015681 122.83021901734173,67.500816692831 122.74412278085947,64.40078776713926 122.74412278085947,61.800755865871906 122.74412278085947,59.20071699330583 122.83021901734173,56.70067304139957 122.74412278085947,54.20062264421722 122.48583407048136,51.80056819925085 122.14144912315533,49.30050516879419 121.88316041277722,46.70043277996592 122.22754536010325,44.0003502277541 122.31364159658551,41.5002670866088 122.31364159658551,38.70016631647013 122.48583407048136,35.60004531726008 124.8965287017636,34.70000833267113 127.13503085914999,35.50004124949919 129.54572548996657,36.10006550408434 132.30080506857485,36.90009726549033 134.79759593633935,37.500120653770864 137.2082905676216,38.100143670802936 139.7050814353861,38.90017378231278 142.11577606666833,39.700203233980574 144.61256693443283,40.50023202545708 146.93716532876715,41.20025667664595 149.69224490737543,41.90028082235949 152.18903577513993,42.500301116670016 154.34144169604406,43.300327597826254 156.92432880029082,44.10035341914045 159.33502343157306,44.80037547124084 161.83181429933757,45.40039397106739 164.07031645718962,46.00041209947085 166.56710732495412,46.70043277996592 168.63341700891033,47.30045010370668 170.09705303469673,49.20050251361681 170.5275342189707,51.500560975808185 170.44143798202276,54.10062049416592 170.18314927164465,57.00067865574965 170.09705303469673,59.5007218340761 169.92486056126654,62.00075856730109 169.5804756139405,64.80079205648508 169.3221869035624,67.20081432705047 169.40828314004466,70.1008333118516 169.14999442966655,73.10084382549394 168.97780195623636,75.70084543060511 168.89170571928844,78.20084040018264 168.7195132453926,81.6008232163149 168.37512829853222,83.80080574558815 167.9446471137926,86.30077983468072 167.858550877776,89.00074461277109 167.60026216693223,91.9006984088337 167.34197345655411,95.20063528441824 166.91149227228016,98.6005585033563 166.8253960357979,101.50048359489301 166.65320356190205,104.20040605805116 166.39491485152394,107.60029772738926 166.13662614114583,110.30020320980111 165.96443366724998,112.70011288486421 165.10347129916772,115.30000833101803 163.03716161521152,114.70003307727166 161.22914064163342,114.20005341601791 158.73234977386892,112.50012063863687 156.83823256380856,110.90018118539592 154.42753793252632,109.80022128025303 151.8446508278139,108.30027394450735 149.8644373808056,106.90032100514509 152.44732448551804,108.10028079140466 167.083684746176,100.10052084020572 166.65320356190205,103.40042981540319 166.4810110880062,106.4003373226733 166.2227223776281,110.20020684460178 165.96443366724998,113.10009725327836 165.18956753564999,115.30000833101803 163.46764279948547,114.80002897884697 160.540370747447,113.30008937540697 158.0435798796825,111.90014365286333 155.2024040641263,110.50019590958254 153.1360943801701,109.0002496567322 151.0697846962139,107.5003010838409 149.08957124920562,106.5003340797266 147.02326156571507,105.40036918461556 144.52647069795057,104.20040605805116 141.94358359277248,103.30043273873162 139.01631154073402,101.90047258202685 136.60561690991744,100.60050777025754 134.28101851558313,99.20054371649167 131.61203517345712,98.00057291879784 129.1152443056926,96.80060063680867 126.79064591182396,95.60062687005848 124.03556633321568,94.70064557058504 121.88316041277722,93.40067110786913 119.90294696576893,92.10069490270689 119.98904320271686,89.30074023490306 121.10829428117722,87.2007689292077 122.14144912315533,84.50079914031085 122.74412278085947,81.70082253054716 123.17460396513343,79.10083701147232 123.43289267551154,76.10084505856503 123.00241149123758,72.90084341360489 122.83021901734173,70.3008343015681 122.83021901734173,67.500816692831 122.74412278085947,64.40078776713926 122.74412278085947,61.800755865871906 122.74412278085947,59.20071699330583 122.83021901734173,56.70067304139957 122.74412278085947,54.20062264421722 122.48583407048136,51.80056819925085 122.14144912315533,49.30050516879419 121.88316041277722,46.70043277996592 122.22754536010325,44.0003502277541 122.31364159658551,41.5002670866088 122.31364159658551,38.70016631647013 122.48583407048136,35.60004531726008 124.8965287017636,34.70000833267113 127.13503085914999,35.50004124949919 129.54572548996657,36.10006550408434 132.30080506857485,36.90009726549033 134.79759593633935,37.500120653770864 137.2082905676216,38.100143670802936 139.7050814353861,38.90017378231278 142.11577606666833,39.700203233980574 144.61256693443283,40.50023202545708 146.93716532876715,41.20025667664595 149.69224490737543,41.90028082235949 152.18903577513993,42.500301116670016 154.34144169604406,43.300327597826254 156.92432880029082,44.10035341914045 159.33502343157306,44.80037547124084 161.83181429933757,45.40039397106739 164.07031645718962,46.00041209947085 166.56710732495412,46.70043277996592 168.63341700891033,47.30045010370668 170.09705303469673,49.20050251361681 170.5275342189707,51.500560975808185 170.44143798202276,54.10062049416592 170.18314927164465,57.00067865574965 170.09705303469673,59.5007218340761 169.92486056126654,62.00075856730109 169.5804756139405,64.80079205648508 169.3221869035624,67.20081432705047 169.40828314004466,70.1008333118516 169.14999442966655,73.10084382549394 168.97780195623636,75.70084543060511 168.89170571928844,78.20084040018264 168.7195132453926,81.6008232163149 168.37512829853222,83.80080574558815 167.9446471137926,86.30077983468072 167.858550877776,89.00074461277109 167.60026216693223,91.9006984088337 167.34197345655411,95.20063528441824 166.91149227228016,98.6005585033563 166.8253960357979,101.50048359489301 166.65320356190205,104.20040605805116 166.39491485152394,107.60029772738926 166.13662614114583,110.30020320980111 165.96443366724998,112.70011288486421 165.10347129916772,115.30000833101803 163.03716161521152,114.70003307727166 161.22914064163342,114.20005341601791 158.73234977386892,112.50012063863687 156.83823256380856,110.90018118539592 154.42753793252632,109.80022128025303 151.8446508278139,108.30027394450735 149.8644373808056,106.90032100514509 152.44732448551804,108.10028079140466 167.083684746176,100.10052084020572 166.65320356190205,103.40042981540319 166.4810110880062,106.4003373226733 166.2227223776281,110.20020684460178 165.96443366724998,113.10009725327836 165.18956753564999,115.30000833101803 163.46764279948547,114.80002897884697 160.540370747447,113.30008937540697 158.0435798796825,111.90014365286333 155.2024040641263,110.50019590958254 153.1360943801701,109.0002496567322 151.0697846962139,107.5003010838409 149.08957124920562,106.5003340797266 147.02326156571507,105.40036918461556 144.52647069795057,104.20040605805116 141.94358359277248,103.30043273873162 139.01631154073402,101.90047258202685 136.60561690991744,100.60050777025754 134.28101851558313,99.20054371649167 131.61203517345712,98.00057291879784 129.1152443056926,96.80060063680867 126.79064591182396,95.60062687005848 124.03556633321568,94.70064557058504 121.88316041277722,93.40067110786913 119.90294696576893,92.10069490270689 119.98904320271686,89.30074023490306 121.10829428117722,87.2007689292077 122.14144912315533,84.50079914031085 122.74412278085947,81.70082253054716 123.17460396513343,79.10083701147232 123.43289267551154,76.10084505856503 123.00241149123758,72.90084341360489 122.83021901734173,70.3008343015681 122.83021901734173,67.500816692831 122.74412278085947,64.40078776713926 122.74412278085947,61.800755865871906 122.74412278085947,59.20071699330583 122.83021901734173,56.70067304139957 122.74412278085947,54.20062264421722 122.48583407048136,51.80056819925085 122.14144912315533,49.30050516879419 121.88316041277722,46.70043277996592 122.22754536010325,44.0003502277541 122.31364159658551,41.5002670866088 122.31364159658551,38.70016631647013 122.48583407048136,35.60004531726008 124.8965287017636,34.70000833267113 127.13503085914999,35.50004124949919 129.54572548996657,36.10006550408434 132.30080506857485,36.90009726549033 134.79759593633935,37.500120653770864 137.2082905676216,38.100143670802936 139.7050814353861,38.90017378231278 142.11577606666833,39.700203233980574 144.61256693443283,40.50023202545708 146.93716532876715,41.20025667664595 149.69224490737543,41.90028082235949 152.18903577513993,42.500301116670016 154.34144169604406,43.300327597826254 156.92432880029082,44.10035341914045 159.33502343157306,44.80037547124084 161.83181429933757,45.40039397106739 164.07031645718962,46.00041209947085 166.56710732495412,46.70043277996592 168.63341700891033,47.30045010370668 170.09705303469673,49.20050251361681 170.5275342189707,51.500560975808185 170.44143798202276,54.10062049416592 170.18314927164465,57.00067865574965 170.09705303469673,59.5007218340761 169.92486056126654,62.00075856730109 169.5804756139405,64.80079205648508 169.3221869035624,67.20081432705047" stroke="#4DD2FF" stroke-dasharray="1,0.5" stroke-linecap="round" stroke-linejoin="round" stroke-width="0.5"><title>2026-05-01 12.1km</title><desc>9223370259215195807</desc></polyline><polyline fill="none" opacity="1" points="20.23533455550205,214.8042621318309 20.328139321762137,214.04970442548802 20.365261228289455,213.29514399573964 20.717919340124354,213.12267265793344 21.08913840528112,212.41122688548057 20.81072410638444,211.57042421470396 20.959211732377298,210.7080589881225 21.070577451959252,210.10440121284046 21.070577451959252,209.32826722602476 21.16338221821934,208.5521303575224 21.293308891006745,207.797550083822 21.27474793768488,207.02140753195272 21.293308891006745,206.22370246172068 21.330430797534063,205.4259943473735 21.4046746105887,204.67140278866282 21.4046746105887,203.89524862921098 21.460357470205054,203.1406515444978 21.49747937673237,202.45073182597116 21.683088909368962,201.73924973113753 22.314161319984123,201.8254901140026 23.019477543537505,202.14889123299508 23.70623281400185,202.3860517355788 24.37442713114433,202.6232119690685 25.09830430801958,202.88193191694154 25.896425297949463,203.1406515444978 26.58318056841381,203.37781092182558 27.28849679196719,203.55029029992875 28.068056828691624,203.85212886915542 28.81049495888874,204.13240715037682 29.534372135763988,204.3480055724358 30.20256645279005,204.58516357991903 30.963565536309034,204.822321318381 31.687442713067867,205.08103854421643 32.411319890175946,205.3613151776226 33.22800183319487,205.62003173645644 33.98900091671385,205.9434269846388 34.76856095332187,206.22370246172068 35.4553162236698,206.39617949156673 36.25343721359968,206.69801395152172 36.94019248406403,206.91360972732946 37.68263061414473,207.17232436493214 38.332263978081755,207.3879196516209 38.83340971590951,207.97002581505512 39.59440879931208,207.97002581505512 40.26260311645456,208.099382520144 41.04216315317899,208.37965510654612 41.67323556379415,208.65992731717415 42.34142988093663,208.78928359529527 42.95394133834634,209.09111459972337 43.64069660869427,209.41450447792886 44.34601283236407,209.69477530108998 45.107011915766634,210.039723490685 45.812328139320016,210.2121973719186 46.369156736996956,210.36311190138804 46.963107241201214,210.44934872645536 47.668423464754596,210.64338145268266 48.35517873510253,210.83741399891733 49.04193400556687,211.18236030299158 49.76581118255854,211.33327413201914 50.50824931263924,211.57042421470396 51.250687442719936,211.80757402829477 51.956003666389734,211.9369283587439 52.717002749908715,212.1740777566738 53.4223189734621,212.45434488001047 54.313244729768485,212.56213982746704 55.055682859849185,212.75617059270735 55.77956003672443,212.9717601206503 56.52199816692155,213.12267265793344 57.26443629700225,213.33826180796314 58.006874427199364,213.5754096161545 58.73075160407461,213.8341160092241 59.43606782774441,214.28685142665927 60.178505957941525,214.56711571758206 60.99518790107686,214.86893837996467 61.4592117323773,215.0845257290348 61.99747937673237,215.32167155641946 62.405820348416455,215.81752105330816 63.092575618764386,215.8821969879209 63.872135655372404,216.1840177517006 64.52176901930943,216.46427949929785 65.15284142992459,216.89545068499865 65.82103574706707,217.2835039918573 66.63771769031882,217.67155657843978 67.21310724120121,218.1458420950221 67.93698441796005,218.57700981276867 68.32676443643868,219.13752651651157 68.84647112747189,219.69804171746364 69.53322639781982,219.84894939941296 69.588909257669,220.58192801957193 69.31049495877232,221.20711363558075 69.06920256651938,221.8107393530372 68.88359303388279,222.3496894138225 68.77222731441725,222.09099355799844 69.16200733277947,221.27178790298058 69.73739688366186,220.86218387173722 70.49839596706443,220.71127692110895 71.12946837767959,221.14243934823025 71.72341888188384,221.63827504016808 72.31736938585527,222.06943555558973 72.94844179658685,222.67305878348998 73.72800183331128,223.14733295422047 74.47043996339198,223.6000482045929 75.19431714026723,223.9234156404127 75.86251145740971,224.22522479588224 76.69775435398333,224.50547576451208 77.36594867100939,224.72105317711248 78.18263061414473,225.02286118127813 78.7208982584998,225.43245706158632 79.3890925757587,225.45401471723744 79.92736021999735,225.7558216634643 80.63267644366715,225.7127064121014 81.13382218161132,225.8851673641475 81.70921173249371,226.1438585255819 82.4145279560471,226.31631912199373 82.98991750692949,226.6827974171174 83.75091659033205,226.89837258482294 84.45623281400185,227.07083255898033 85.23579285060987,227.26484985979914 85.94110907427967,227.37263717142923 86.64642529794946,227.5019818719884 87.20325389550999,227.65288392148796 87.87144821265247,227.933130295889 88.6510082493769,228.12714679665805 89.35632447293028,228.27804839496093 90.19156736938749,228.53673659593915 90.76695692026988,228.86009639700933 91.50939505058341,229.054112037702 92.21471127402037,229.20501296705334 92.75297891849186,229.54992896811746 93.51397800189443,229.74394396867137 94.29353803850245,229.83017280003696 94.99885426228866,229.98107316932874 95.5,230.43377362386673 95.33295142080169,231.03737270538113 94.94317140243948,231.8996540850785 94.66475710365921,232.61103354652005 94.36778185155708,233.27929689671146 94.03368469304405,233.96911488912883 93.82951420720201,234.63737389928428 93.42117323563434,235.3487440473691 93.17988084326498,236.03855521327932 92.80866177822463,236.70680761027324 92.53024747944437,237.37505787191913 92.1219065078767,238.00019328024064 91.95485792856198,238.71155198899214 91.75068744271994,239.35823962450377 91.39802933100145,239.94025678666367 91.21241979836486,240.58694062265567 90.78551787347533,241.27673451026203 90.56278643454425,241.9880820739636 90.22868927603122,242.63475957773335 90.00595783686731,243.28143508188077 89.54193400556687,243.41076994276955 88.92942254815716,243.15210014100012 88.40971585700754,242.87187416139932 87.87144821265247,242.65631546008808 87.35174152161926,242.39764472514798 86.75779101753142,242.1389736703568 86.12671860679984,241.88030229561264 85.532768102712,241.57851862070675 84.90169569221325,241.2982905326353 84.25206232827622,241.01806206903711 83.56530705781188,240.6947210675571 82.93423464719672,240.39293568181165 82.24747937684879,239.9833691045642 81.80201649863739,239.9187006243883 81.28230980760418,239.66002650336304 80.68835930339992,239.42290827806573 80.1315307058394,239.2073460217798 79.556141154957,238.92711475638498 78.96219065086916,238.668439408837 78.331118240254,238.38820742131793 77.73716773604974,238.1079750583158 77.08753437211271,237.80618593971303 76.45646196149755,237.52595279674279 75.78826764447149,237.18104995142494 75.15719523385633,236.87925949507917 74.5446837763302,236.64213811680384 73.83936755277682,236.34034688281827 73.1897341888398,236.06011177552864 72.52153987181373,235.80143288160616 71.85334555455483,235.52119705211953 71.1665902842069,235.17629090037371 70.47983501374256,234.87449755084526 69.83020164992195,234.59426047920715 69.14344637957402,234.22779604962852 68.86503208079375,233.77510380881722 68.99495875346474,233.1283989075455 69.32905591209419,232.3739073282486 69.64459211740177,231.59785600662872 69.88588450965472,230.9080301917129 70.18285976175684,230.17508776986506 70.46127406053711,229.48525726127264 70.73968835931737,228.81698178581428 71.01810265821405,228.17026155019994 71.29651695699431,227.4373095317278 71.50068744283635,226.81214254442602 71.76054078829475,226.1007433541672 71.98327222734224,225.45401471723744 72.26168652623892,224.76416863294435 72.52153987181373,224.05276247473375 72.79995417047758,223.4060275030497 73.24541704868898,222.80240639125986 73.95073327224236,223.29823814656993 74.60036663617939,223.6862795696652 73.96929422556423,223.29823814656993 73.35678276815452,222.91019600335858 73.52383134746924,222.45747925933392 73.74656278640032,221.76762328816403 73.85792850598227,221.01309071342985 74.11778185155708,220.32322997649317 74.35907424392644,219.65492521687702 74.6374885427067,218.98661832102516 74.91590284148697,218.27519250374462 75.15719523385633,217.5853227325424 75.41704857943114,216.89545068499865 75.71402383141685,216.22713496805227 75.97387717687525,215.64505179645494 76.19660861603916,215.0629670041526 76.4379010082921,214.54555693927978 76.64207149413414,213.92035140235384 76.90192483970895,213.35982071069884 77.10609532543458,212.64837574533885 77.66292392311152,212.23875481843424 77.4958753437968,212.26031383460213 76.99472960596904,212.47590387395758 76.49358386802487,212.79928851604927 76.25229147577193,213.40293850953458 75.99243813019712,214.04970442548802 75.69546287809499,214.73958586371737 75.45417048584204,215.42946502532868 75.2128780935891,216.0977832921635 75.08295142080169,216.67986520324484 74.7302933089668,217.19726998594706 74.5075618699193,217.77934883574198 74.24770852434449,218.44765959080542 74.00641613209154,219.11596820951672 73.70944087998942,219.7627164516016 73.43102658109274,220.38790451725072 73.17117323563434,220.99153259988816 72.63290559127927,221.5089267121366 72.50297891849186,222.26345749745087 72.63290559127927,222.86708016520424 72.39161319890991,223.5353746573819 72.15032080665696,224.2036670135858 71.92758936760947,224.80728407987044 71.66773602203466,225.41089940365055 71.42644362978172,226.03607058050693 71.14802933100145,226.66123988815525 70.9067369386321,227.28640732658096 70.66544454637915,227.9546876937966 70.40559120080434,228.60140859620878 70.14573785522953,229.2696847605839 69.88588450965472,229.91640159583767 69.64459211740177,230.60623068211135 69.3661778185051,231.317614543761 69.08776351972483,232.0074390075315 68.79078826773912,232.78348880911653 68.54949587548617,233.45175160818326 67.95554537128191,233.68887660413748 67.19454628787935,233.34396743020625 66.54491292394232,233.06372830741748 65.93240146664903,232.8050457069039 65.52406049508136,232.35235038601968 64.80018331820611,232.1798947678617 64.09486709453631,231.8565401005617 63.445233730599284,231.5547419598588 62.721356553724036,231.23138632581686 62.034601283376105,230.95114437183656 61.38496791943908,230.69245915782813 60.84670027496759,230.32598789027543 60.178505957941525,230.06730190293456 59.47318973427173,229.78705838878523 58.897800183389336,229.52837173469015 58.19248395971954,229.20501296705334 57.598533455631696,228.92476829726365 56.87465627864003,228.5798512649926 56.466315307072364,228.25649103047908 55.816681943135336,227.9546876937966 55.20417048584204,227.86845808901126 54.49885426228866,227.54509675432928 53.83065994514618,227.24329239083454 53.18102658120915,226.91993008941063 52.56851512379944,226.6827974171174 51.91888175997883,226.359434248865 51.2692483960418,226.1007433541672 50.63817598542664,225.77737928579154 49.80293308896944,225.38934174350288 49.22754353808705,225.02286118127813 48.52222731441725,224.72105317711248 48.20669110910967,225.47557237073488 47.50137488543987,225.82049452376668 46.70325389550999,225.36778408115788 46.294912924058735,225.84205213948735 45.97937671863474,226.57500974995492 45.5153528873343,227.35107971356774 45.125572868972085,228.0840320342977 44.79147571045905,228.7738671656407 44.457378551829606,229.54992896811746 44.178964253049344,230.30443073684 43.86342804774176,230.99425854302535 43.5850137489615,231.66252706009254 43.250916590332054,232.43857814175135 42.95394133834634,233.1283989075455 42.65696608624421,233.75354701095785 42.267186067881994,234.52959033244406 42.00733272230718,235.19784755150613 41.61755270406138,235.90921579298447 41.3020164987538,236.5343555831787 40.98648029344622,237.2672757160326 40.70806599454954,237.89241144662083 40.35540788283106,238.62532681987796 40.07699358393438,239.27201472198067 39.72433547209948,239.9187006243883 39.427360219997354,240.58694062265567 39.14894592121709,241.21206643001642 38.83340971590951,241.88030229561264 38.55499541712925,242.52698013262125 38.23945921182167,243.19521179689036 37.94248395971954,243.84188556800655 37.645508707733825,244.5316687200393 37.31141154910438,245.2214495970984 36.95875343726948,245.99745036440436 36.6432172319619,246.68722640715714 36.32768102665432,247.42011095998168 35.99358386802487,248.08832699064806 35.381072410731576,248.28232479313738 34.73143904679455,247.76499691981007 34.137488542706706,247.44166634915746 33.46929422556423,247.13989069893432 32.912465627887286,246.81655916191812 32.262832264066674,246.40700516411744 31.66888175997883,246.06211696506944 31.130614115623757,245.6741170612222 30.573785517946817,245.35078325822542 29.905591200804338,244.94122639017587 29.330201649921946,244.6178914540942 28.717690192512237,244.22988887100655 28.030934922164306,243.7987740455137 27.436984418076463,243.41076994276955 26.731668194406666,243.06587680267694 26.174839596729726,242.69942721810366 25.525206232909113,242.31142107580672 24.968377635232173,242.07430585668772 24.597158570191823,241.44918262668943 23.984647112782113,241.21206643001642 23.39069660869427,240.84561359710642 22.75962419807911,240.5653845269553 22.16567369387485,240.34982344828313 21.51604033005424,239.9187006243883 20.977772685699165,239.6169141187711 20.346700275084004,239.29357095097657 19.901237396872602,239.01333980112395 19.288725939579308,238.71155198899214 18.86182401480619,238.34509477457323 18.657653528964147,238.28042578767054 18.52772685617674,238.53910161509702 18.657653528964147,238.58221422194038 18.843263061484322,238.323538447803 18.93606782774441,238.3019821188791 18.71333638881333,238.40976374142338 18.175068744341843,238.06486235372722 17.63680109998677,237.67684761267446 17.04285059578251,237.28883215168025 16.374656278756447,236.90081597073004 15.854949587606825,236.5774686032819 15.335242896457203,236.29723381377698 14.796975252218544,235.9954420820286 14.555682859849185,235.4996404343401 15.019706691149622,234.89605423316243 15.428047662833706,234.40024997883302 15.854949587606825,233.77510380881722 16.207607699441724,233.21462634328054 16.63450962433126,232.5894766287238 17.04285059578251,232.0289959853253 17.488313473993912,231.3822856839106 17.840971585712396,230.77868759812554 18.21219065086916,230.2397592633497 18.472043996327557,229.63615787948947 18.843263061484322,229.20501296705334 19.25160403305199,228.64452325184538 19.60426214488689,228.12714679665805 19.80843263072893,227.5019818719884 19.60426214488689,227.0061600853369 19.381530705839396,226.61812482347887 19.36296975251753,225.99295538695878 19.381530705839396,225.34622641661554 19.437213565572165,224.57014901164803 19.474335472099483,223.96653126068122 19.54857928515412,223.2335645060666" stroke="#4DD2FF" stroke-dasharray="none" stroke-linecap="round" stroke-linejoin="round" stroke-width="0.5"><title>2026-04-26 15.1km</title><desc>9223370259653729807</desc></polyline><polyline fill="none" opacity="1" points="162.53726586699486,200.1316901477985 158.86667533777654,192.07900792639703 146.63137356936932,185.4473766745068 133.98822840861976,187.8158175055869 127.46273413486779,194.44744533812627 124.60783038847148,218.13175231497735 124.60783038847148,246.07907751528546 132.76469823345542,257.44743234617636 145.40784339234233,261.7105581560172 157.64314516074955,256.0263895308599 163.35295265167952,244.18434897391126 164.16863943450153,221.44754554890096 162.12942247465253,198.23694265959784 156.8274583760649,191.13163261814043 144.184313217178,185.9210649393499 135.61960197985172,187.34212943771854 129.09410770237446,193.02638303721324 125.83136056549847,202.0264368550852 125.01567378081381,229.02649252582341 125.42351717315614,247.02644149120897 129.5019510947168,255.0790274096653 136.8431321568787,260.7631972068921 149.89412070810795,260.7631972068921 157.23530176654458,256.5000705178827 163.76079604402184,236.6054270020686 163.35295265167952,209.60541586810723 160.90589229762554,196.3421943904832 155.19608480669558,189.23688141908497 142.55293964780867,185.9210649393499 133.98822840861976,188.28950552642345 128.2784209176898,194.44744533812627 125.42351717315614,211.9738442460075 125.42351717315614,238.97384146042168 127.87057752721012,251.7632584469393 133.98822840861976,258.8684747228399 142.55293964780867,261.23687770497054 151.11765088513494,260.28951665898785 158.05098855309188,254.60534627502784 163.35295265167952,233.7633280386217 163.35295265167952,206.76330020325258 158.05098855309188,190.65794489206746 150.7098074927926,185.9210649393499 138.8823491167277,185.4473766745068 129.90979448892176,194.92113267444074 126.2392039578408,211.50015866896138 125.01567378081381,238.02647582395002 125.83136056549847,248.9211688595824 133.17254162579775,257.92111318651587 144.184313217178,261.23687770497054 155.19608480669558,257.44743234617636 164.16863943450153,238.02647582395002 163.35295265167952,220.9738609478809 162.94510925747454,199.18431650148705 156.8274583760649,188.28950552642345 144.59215660765767,184.5 133.17254162579775,189.23688141908497 127.46273413486779,195.8685071999207 125.01567378081381,212.92121525574476 125.01567378081381,245.60539545305073 127.87057752721012,253.65798386046663 137.65881893970072,260.7631972068921 153.9725546296686,259.3421554164961 162.12942247465253,249.86853225016966 163.76079604402184,216.71069733984768 161.31373568996787,196.3421943904832 153.15686784684658,187.34212943771854 137.65881893970072,186.39475315390155 128.2784209176898,194.92113267444074 124.60783038847148,211.50015866896138 125.01567378081381,244.6580311828293 130.31763787940145,255.55270849494264 136.8431321568787,260.28951665898785 148.67059053108096,261.23687770497054 161.7215790823102,251.28957697050646 164.16863943450153,227.60544092021883 162.53726586699486,199.18431650148705 155.6039281990379,191.13163261814043 140.51372268609703,186.86844132095575 133.17254162579775,190.18425711710006 125.83136056549847,200.1316901477985 124.60783038847148,220.9738609478809 125.01567378081381,246.55275952769443 131.54116805642843,256.9737514560111 143.36862643063068,261.23687770497054 158.05098855309188,255.0790274096653 163.76079604402184,231.394910892006 163.76079604402184,202.0264368550852 160.4980489052832,193.9737579538487 153.56471123732626,188.28950552642345 140.9215660765767,186.39475315390155 132.76469823345542,190.65794489206746 126.2392039578408,201.5527502517216 125.42351717315614,228.55280870525166 125.83136056549847,245.60539545305073 128.68626431189477,254.13166509289294 135.21175858564675,259.81583606172353 147.44706035591662,261.23687770497054 155.19608480669558,257.44743234617636 162.94510925747454,242.28961965395138 163.35295265167952,215.76332711195573 159.27451872825623,194.92113267444074 152.7490244526416,189.23688141908497 140.1058792937547,187.34212943771854 129.90979448892176,195.39481996232644 125.83136056549847,213.39490068610758 125.42351717315614,240.3948895507492 128.2784209176898,253.18430258100852 138.06666233204305,260.7631972068921 151.11765088513494,259.81583606172353 160.4980489052832,252.2369398730807 164.16863943450153,235.65806087478995 163.35295265167952,208.65804417664185 160.09020551480353,195.39481996232644 153.56471123732626,189.23688141908497 144.59215660765767,186.86844132095575 136.0274453703314,188.28950552642345 129.5019510947168,193.9737579538487 125.42351717315614,215.76332711195573 125.42351717315614,241.81593720056117 127.05489074066281,250.81589544657618 131.94901144877076,257.44743234617636 139.69803590141237,261.23687770497054 148.67059053108096,263.13159921299666 156.0117715895176,258.8684747228399 162.94510925747454,242.76330205844715 162.94510925747454,224.76333638979122 162.53726586699486,202.0264368550852 157.23530176654458,191.13163261814043 144.184313217178,186.86844132095575 135.21175858564675,188.7631934969686 128.68626431189477,195.39481996232644 125.83136056549847,204.394869139418 125.42351717315614,234.23701132042333 127.87057752721012,251.7632584469393 133.98822840861976,257.92111318651587 141.737252863124,260.7631972068921 149.89412070810795,259.81583606172353 157.23530176654458,255.0790274096653 161.7215790823102,247.97380527341738 163.76079604402184,219.07912205485627 158.45883194357157,194.44744533812627 151.93333766795695,188.7631934969686 143.77646982483566,187.34212943771854 132.3568548411131,191.60532029671595 127.05489074066281,198.7106296052225 125.42351717315614,224.76333638979122 125.42351717315614,246.55275952769443 132.3568548411131,257.44743234617636 140.1058792937547,261.23687770497054 156.0117715895176,256.9737514560111 161.31373568996787,250.34221387235448 164.16863943450153,229.50017629703507 163.76079604402184,205.34224171144888 162.12942247465253,197.76325566414744 157.64314516074955,190.65794489206746 145.40784339234233,185.9210649393499 133.98822840861976,190.18425711710006 126.64704735018313,200.60537689737976 125.83136056549847,234.23701132042333 129.09410770237446,254.13166509289294 134.80391519516706,259.3421554164961 145.81568678468466,265.5 157.23530176654458,257.92111318651587 161.7215790823102,249.86853225016966 162.53726586699486,223.34228346543387 162.53726586699486,206.76330020325258 158.45883194357157,200.60537689737976 156.8274583760649,193.02638303721324 147.85490374453366,186.86844132095575 135.61960197985172,188.28950552642345 127.46273413486779,198.23694265959784 125.01567378081381,219.07912205485627 125.83136056549847,248.44748709024861 132.76469823345542,258.3947939793579 144.59215660765767,261.7105581560172 156.0117715895176,256.9737514560111 162.94510925747454,242.28961965395138 163.76079604402184,209.1317300470546 162.12942247465253,197.2895686221309 149.07843392156065,185.9210649393499 137.65881893970072,188.7631934969686 127.87057752721012,197.2895686221309 125.83136056549847,218.13175231497735 125.42351717315614,242.76330205844715 129.90979448892176,254.60534627502784 136.0274453703314,259.3421554164961 148.26274713873863,260.7631972068921 158.86667533777654,254.60534627502784 163.35295265167952,242.76330205844715 162.94510925747454,209.1317300470546 161.7215790823102,197.2895686221309 153.56471123732626,188.28950552642345 140.9215660765767,186.86844132095575 127.87057752721012,196.3421943904832 125.42351717315614,216.2370122494176 125.01567378081381,244.6580311828293 129.90979448892176,256.0263895308599 140.51372268609703,263.13159921299666 152.34118106029928,259.81583606172353 160.4980489052832,251.7632584469393 164.5764828287065,231.394910892006 164.98432622104883,209.60541586810723 160.90589229762554,196.3421943904832 151.11765088513494,187.8158175055869 142.55293964780867,185.9210649393499 134.80391519516706,188.28950552642345 127.05489074066281,197.76325566414744 125.42351717315614,222.86859905906022 126.2392039578408,247.97380527341738 133.58038501814008,257.92111318651587 140.9215660765767,260.7631972068921 149.48627731576562,260.28951665898785 159.68236212059855,253.18430258100852 163.35295265167952,237.0791099909693 163.35295265167952,203.92118277959526 160.90589229762554,196.3421943904832 151.93333766795695,187.8158175055869 140.1058792937547,186.86844132095575" stroke="#4DD2FF" stroke-dasharray="none" stroke-linecap="round" stroke-linejoin="round" stroke-width="0.5"><title>2025-06-07 10.0km</title><desc>9223370287551093656</desc></polyline></svg>