<?xml version="1.0" encoding="utf-8" ?>
<svg baseProfile="full" height="300mm" version="1.1" viewBox="0,0,200,300" width="200mm" xmlns="http://www.w3.org/2000/svg" xmlns:ev="http://www.w3.org/2001/xml-events" xmlns:xlink="http://www.w3.org/1999/xlink"><defs /><rect fill="#222222" height="300" width="200" x="0" y="0" /><text fill="#FFFFFF" style="font-size:12px; font-family:Arial; font-weight:bold;" x="10" y="20">10km 以上跑步</text><text fill="#FFFFFF" style="font-size:4px; font-family:Arial" x="10" y="280">跑者</text><text fill="#FFFFFF" style="font-size:9px; font-family:Arial" x="10" y="290">未有期</text><text fill="#FFFFFF" style="font-size:4px; font-family:Arial" x="65" y="280">特殊里程</text><rect fill="yellow" height="2.6" width="2.6" x="65" y="283" /><text fill="#FFFFFF" style="font-size:3px; font-family:Arial" x="70" y="285.5">超过 20.0 km</text><rect fill="red" height="2.6" width="2.6" x="65" y="287" /><text fill="#FFFFFF" style="font-size:3px; font-family:Arial" x="70" y="289.5">超过 40.0 km</text><text fill="#FFFFFF" style="font-size:4px; font-family:Arial" x="120" y="280">统计</text><text fill="#FFFFFF" style="font-size:3px; font-family:Arial" x="120" y="285">次数: 5</text><text fill="#FFFFFF" style="font-size:3px; font-family:Arial" x="120" y="290">周均: 1.0</text><text fill="#FFFFFF" style="font-size:3px; font-family:Arial" x="141" y="285">总里程: 72.3 km</text><text fill="#FFFFFF" style="font-size:3px; font-family:Arial" x="141" y="290">平均: 14.5 km</text><text fill="#FFFFFF" style="font-size:3px; font-family:Arial" x="167" y="285">最短: 10.0 km</text><text fill="#FFFFFF" style="font-size:3px; font-family:Arial" x="167" y="290">最长: 25.0 km</text><polyline fill="none" opacity="1" points="70.56230124272406,73.95197133917827 70.1843177638948,77.99096740258392 69.65514089399949,83.61040831776336 69.27715741517022,88.79079756117426 68.74798054480925,94.49796956509817 68.89917393634096,96.69302553596208 68.44559376174584,100.20510332094273 68.14320697914809,103.01475512009347 67.53843341302127,105.56099405657733 64.06098540872335,104.5073788681766 59.97876383829862,102.1367399286828 55.44296209374443,99.85389619437046 52.94827113393694,98.62467011011904 50.151193391066045,96.69302553596208 45.388601559214294,95.20038809149992 40.62600972736254,92.39071051013889 36.770578243769705,90.10784064925974 34.50267737172544,88.96640342375031 31.554406237322837,87.12254005856812 29.28650536481291,85.80549235327635 27.547781362663954,84.22503241809318 28.45494171185419,81.23971120401984 30.269262409769,76.0592760234722 30.79843928012997,72.45929403236369 30.79843928012997,66.92758472688729 30.57164919283241,64.29342480795458 30.496052497066557,59.28849851107225 30.04247232247144,54.28354279580526 29.51329545211047,48.400487059901934 29.059715277981013,43.39546734315809 29.28650536481291,39.00507494696649 29.966875626705587,35.58055316179525 31.63000293308869,35.14151091122767 35.939014590810984,36.37082864250988 41.30637998878956,37.77576101914747 46.29576190793887,39.09288301685592 49.622016521170735,39.795347248902544 54.91378522338346,41.28808181831846 57.8620563573204,42.34177523263497 61.717487840447575,43.4832749600173 64.59016227861866,44.1857355699176 68.06761028338224,44.97600306372624 71.09147811308503,46.02969191415468 72.52781533217058,47.961451419920195 72.07423515804112,52.790831009682734 71.54505828768015,57.70798935811035 71.09147811308503,62.62511931109475 70.94028472201899,65.17147901962744 70.56230124272406,69.47393156937324 70.25991446012631,74.83001559128752 69.88193098129705,78.95681144896662 69.73073758976534,83.61040831776336 69.42835080670193,87.38594935508445 69.27715741517022,89.22981215000618 68.74798054480925,94.05895769200288 68.59678715374321,97.83445240481524 68.2944003706798,100.55631030281074 68.14320697914809,104.24397486739326 66.55567636806518,105.73659646132728 63.834195321425796,103.80496801872505 60.20555392559618,101.6977319935686 56.12333235517144,99.94169798947405 53.17506122076884,98.36126428970601 50.83156365295872,97.13203605113085 45.84218173334375,94.67357425123919 43.347490774001926,93.53214314562501 41.986750250682235,92.56631563027622 38.811689029447734,91.2492763446644 35.939014590810984,89.66882651281776 32.08358310768381,87.38594935508445 28.076958233490586,85.36647599888965 28.606135103385895,80.97630000603385 30.420455801300704,75.70805893820943 30.647245888598263,71.75685674761189 30.420455801300704,68.06905149447266 30.34485910553485,64.38123027002439 30.269262409769,61.13242214836646 30.193665714003146,55.86405830516014 30.118069018237293,50.68346873886185 29.740085539408028,46.29311392293312 29.815682235639542,42.780813770601526 29.588892147876322,37.68795281340135 30.647245888598263,34.526851379778236 34.124693892896175,34.96589394757757 37.37535180989653,35.84397840371821 40.55041303159669,36.985486842517275 45.84218173334375,38.6538425773615 50.83156365295872,40.14657914778218 55.59415548481047,41.46369747800054 60.659134100191295,42.69300608104095 65.6485160193406,44.27354310557712 70.63789793848991,45.50284765177639 72.60341202793643,48.22487283102237 72.07423515804112,53.31767076236429 71.54505828768015,58.58605036098743 71.01588141731918,64.11781385692302 70.56230124272406,68.68368681246648 70.3355111554265,74.03977580496576 69.95752767659724,79.8348505407339 69.57954419823363,85.71768910030369 69.57954419823363,86.85913068038644 69.12596402363852,90.28344624047168 68.74798054480925,95.4637948893942 68.36999706644565,99.67829257657286 67.91641689185053,105.03418662538752 66.55567636806518,105.56099405657733 61.33950436161831,102.92695364175597 56.65250922553241,100.46850857097888 52.87267443817109,98.44906623888528 48.034485910087824,96.07841043447843 43.27189407823607,93.53214314562501 40.77720311889425,92.21510535338894 37.98012537602335,90.81026279652724 33.67111371876672,88.61519166192738 28.7573284949176,86.0689020572463 27.69897475466132,84.75185272243107 28.22815162455663,81.50312232022407 29.51329545211047,77.28853468084708 30.647245888598263,73.86416686401935 30.269262409769,69.47393156937324 30.269262409769,65.08367363910656 30.04247232247144,59.81533424358349 30.118069018237293,54.6347687181551 30.118069018237293,50.24443427618826 29.588892147876322,45.151617962750606 29.588892147876322,39.97096321656136 29.664488844107836,35.58055316179525 30.949632671196014,34.351234289526474 34.27588728442788,35.14151091122767 38.96288242051378,36.72206195403123 44.0278610358946,38.12699375109514 49.01724295504391,39.53192322986433 53.855431482661515,40.936850390338805 58.69362001074478,42.34177523263497 63.45621184259653,43.65889016690198 68.21880367491394,45.063810517662205 71.24267150461674,46.11749925959157 72.30102524533868,50.50785498082405 71.77184837497771,54.5469622509554 71.4694615919143,56.742121209565084 71.24267150461674,60.69339307298651 70.86468802578747,64.99586824985454 70.63789793848991,70.35198043903802 70.63789793848991,73.42514435318299 70.48670454742387,76.76170975918649 69.88193098129705,78.78120352199767 69.73073758976534,84.1372290024301 69.35275411093608,89.40541792241856 68.74798054480925,94.67357425123919 68.52119045797735,99.59049075411167 68.06761028338224,104.85858407564228 66.85806315159425,105.64879526331788 65.72411271510646,105.03418662538752 60.810327491723,102.31234303937526 57.63526627002284,100.90751713974169 54.76259183185175,99.50268892257009 50.2267900868319,97.21983812720282 45.61539164604619,94.67357425123919 40.85279981419444,92.30290793615859 35.78782119927928,89.84443219436798 32.91514676064253,88.17617675603833 28.303748320322484,86.0689020572463 27.16979788430035,83.78601524885744 29.362102061044425,78.34218354645418 30.269262409769,76.23488451150479 30.79843928012997,73.42514435318299 30.79843928012997,67.9812464127317 30.79843928012997,66.31294814124703 30.496052497066557,63.151952979154885 30.722842584364116,59.63972236897098 30.34485910553485,54.6347687181551 29.966875626705587,48.400487059901934 29.740085539408028,43.307659716985654 29.815682235639542,38.3026100625284 29.891278930939734,34.87808545207372 31.32761615002528,34.0 36.3925947654061,35.668361584772356 41.30637998878956,37.161103389575146 46.14456851687282,38.74165068328148 50.83156365295872,40.14657914778218 55.51855878951028,41.46369747800054 60.432344012893736,42.86862145084888 65.27053254051134,44.1857355699176 70.1087210685946,45.59065505157923 72.45221863687038,47.610222744813655 72.22542854957283,50.68346873886185 71.6962516787462,55.51283289020648 71.39386489614844,60.51778137951624 70.94028472201899,65.78611642925534 70.63789793848991,70.08856587327318 70.3355111554265,74.30318914871896 69.65514089399949,79.13241933978861 69.50394750246778,83.87381870078389 69.50394750246778,87.03473694174318 68.97477063210681,90.28344624047168 68.6723838490434,95.90280603826977 68.52119045797735,99.59049075411167 68.21880367491394,103.27815950114746 67.160449934192,105.73659646132728 65.87530610663816,105.73659646132728 62.775841580703855,103.5415638005943 58.92041009804234,101.60993037914159 53.855431482661515,99.1514815062983 51.13395043602213,97.57104634016287 47.12732556136325,95.55159713717876 42.28913703374565,93.09313077415572 37.60214189719409,90.45905179542024 33.74671041406691,88.26397975551663 29.059715277981013,86.0689020572463 27.547781362663954,85.27867270092247 27.62337805889547,82.99578377394937 29.135311973746866,78.34218354645418 30.420455801300704,73.33733982365811 30.57164919283241,68.24466163065517 30.34485910553485,63.151952979154885 30.193665714003146,57.79579549928894 30.193665714003146,52.70302435255144 30.269262409769,48.751715408987366 29.815682235639542,43.8345053375233 29.740085539408028,38.74165068328148 30.118069018237293,35.22931937960675 33.97350050136447,35.0537024338264 39.03847911674529,36.54644531616941 44.0278610358946,38.21480191138107 48.866049563512206,39.70753925165627 52.64588435087353,40.67342672421364 55.74534887634218,41.55150529410457 61.188310970086604,43.13204443769064 65.27053254051134,44.361350632156245 69.88193098129705,45.59065505157923 72.75460541946813,48.04925856587943 72.45221863687038,51.912764030799735 71.4694615919143,57.3567647037562 71.39386489614844,61.39583948481595 70.94028472201899,66.22514287842205 70.71349463472143,70.17637073772494 70.25991446012631,75.00562433304731 70.25991446012631,78.25437952409266 69.73073758976534,82.5567659708322 69.57954419823363,86.15670527378097 69.12596402363852,91.2492763446644 68.44559376174584,96.34181696100859 68.2944003706798,101.25872383179376 68.06761028338224,104.59518018382369 66.9336598473601,105.64879526331788 65.19493584474549,104.85858407564228 59.82757044676691,102.04893835983239 54.6869951360859,99.23928337387042 50.83156365295872,96.78082765720319 46.29576190793887,94.76137658022344 41.83555685915053,92.39071051013889 37.60214189719409,90.37124902236974 32.99074345687404,88.17617675603833 28.152554928790778,85.8932955970522 27.245394580066204,84.48844261089107 27.92576484149322,81.41531862400007 29.362102061044425,77.02512226084946 30.34485910553485,73.60075338470051 30.420455801300704,68.4202717304579 30.118069018237293,64.29342480795458 29.966875626705587,61.13242214836646 29.891278930939734,56.39089615625562 30.193665714003146,50.859082460869104 30.118069018237293,45.941884559520986 29.815682235639542,42.6051983825746 29.664488844107836,37.68795281340135 29.891278930939734,35.31712783873081 31.252019454725087,34.26342573063448 34.124693892896175,35.40493628848344 37.07296502683312,36.01959518605145 41.83555685915053,37.51233637519181 47.05172886606306,39.18069107743213 55.51855878951028,41.375889652525075 58.16444314038381,42.42958295822609 63.22942175529897,43.571082567912526 68.36999706644565,45.063810517662205 71.24267150461674,45.941884559520986 72.60341202793643,48.22487283102237 72.14983185334131,51.210309795627836 71.84744507074356,54.195736292458605 71.6962516787462,56.039670958474744 71.01588141731918,61.13242214836646 70.71349463472143,66.40075339487521 70.3355111554265,71.40563788765576 70.1087210685946,76.67390557395993 69.57954419823363,81.9421406663023 69.73073758976534,86.77132753632031 69.05036732787266,92.12730276153889 68.2944003706798,97.57104634016287 67.99201358761638,103.27815950114746 67.53843341302127,105.03418662538752 66.17769288970158,105.29759038158227 62.39785810187459,102.92695364175597 57.40847618272528,100.46850857097888 51.738724002148956,97.83445240481524 47.05172886606306,95.20038809149992 42.44033042481169,92.82972324325237 38.887285724747926,90.81026279652724 33.89790380559862,88.79079756117426 29.966875626705587,86.85913068038644 27.39658797159791,83.78601524885744 28.68173179915175,79.39583110815147 30.496052497066557,73.60075338470051 30.420455801300704,67.63002599583706 30.34485910553485,62.712924944993574 30.04247232247144,57.3567647037562 30.269262409769,52.26399093103828 29.891278930939734,46.995572214829735 29.815682235639542,41.375889652525075 29.664488844107836,37.77576101914747 30.118069018237293,34.61465991177829 39.03847911674529,36.72206195403123 42.7427172078751,37.95137740322389 45.61539164604619,39.18069107743213 49.319629738107324,39.97096321656136 54.8381885276176,41.28808181831846 59.52518366416916,42.69300608104095 64.3633721913211,43.92231290921336 69.8063342855312,45.50284765177639 71.24267150461674,46.20530659571523 72.52781533217058,48.31267994979862 71.77184837497771,53.40547735610744 71.31826820038259,58.41043823288055 70.94028472201899,63.85439736256376 70.63789793848991,69.21051673166221 70.03312437282875,74.65440681320615 69.65514089399949,80.01045825041365 69.42835080670193,83.69821178779239 69.73073758976534,87.12254005856812 69.95752767659724,87.21034316637088 69.05036732787266,92.12730276153889 68.59678715374321,95.4637948893942 68.14320697914809,101.08312050404493 68.14320697914809,104.59518018382369 66.85806315159425,105.47319284058176 61.56629444891587,103.01475512009347 57.18168609589338,100.20510332094273 52.34349756781012,98.01005640276708 48.563662780448794,96.07841043447843 44.0278610358946,93.53214314562501 39.340865899343044,91.2492763446644 36.84617494000122,89.93223502178444 32.763953369576484,87.91276770399418 28.379345016088337,85.71768910030369 27.774571449961513,83.87381870078389 29.362102061044425,78.69339954509633 30.420455801300704,72.54709865240147 30.87403597543016,66.48855863959761 30.420455801300704,61.5714509972604 30.193665714003146,57.00553990411572 29.966875626705587,51.38592340867035 29.966875626705587,46.819957696134225 29.588892147876322,41.46369747800054 29.664488844107836,37.161103389575146 29.740085539408028,35.58055316179525 30.949632671196014,34.351234289526474 34.27588728442788,35.14151091122767 39.643252682406455,36.89767855545506 42.36473372904584,37.77576101914747 46.37135860417038,38.91726686793845 51.5119339148514,40.322195042914245 56.57691252976656,41.7271208994207 61.490697753150016,43.21985208190745 66.48007967276499,44.71258064726135 70.78909133002162,45.85407719615614 72.52781533217058,48.663908335380256" stroke="yellow" stroke-dasharray="none" stroke-linecap="round" stroke-linejoin="round" stroke-width="0.5"><title>2026-05-29 25.0km</title><desc>9223370256785020044</desc></polyline><polyline fill="none" opacity="1" points="143.311690174276,100.80130370578263 142.114560788963,100.13635085517308 141.0215296112001,99.47139725054149 139.8244002261199,98.80644289206248 138.5231726334896,98.0205867686891 137.37809235206805,97.29518018156523 136.18096296698786,96.6302233550814 134.98383358190767,95.96526577457553 133.8387533002533,95.3003074399312 132.69367301883176,94.51444661786081 131.49654363375157,93.84948663809337 130.29941424843855,93.24497691105353 129.570726796519,92.27776005171472 130.61170887062326,92.21730894508073 131.288347219117,93.00317284587072 132.17318198201247,93.24497691105353 133.11006584833376,93.7285847425228 133.89080240391195,94.69579920871183 134.98383358190767,95.3003074399312 136.18096296698786,95.72346283117076 137.37809235206805,96.02571649494348 138.4190744261723,96.75112465239363 139.19981098151766,97.65788358729333 140.2407930556219,98.44374019670067 141.54202064825222,98.86689331935486 142.47890451480635,99.83409931021743 143.57193569280207,100.55950275657233 144.7170159742236,101.28490530542331 145.86209625541233,102.0707570539671 147.11127474461682,102.79615773318801 148.308404129697,103.34020765399328 149.45348441111855,103.82380715978798 150.5985646925401,104.42830598098226 151.275203040801,105.21415351709584 151.275203040801,105.939550308045 150.33831917401403,105.15370374394115 149.34938620380126,104.60965550580295 148.36045323335566,103.94470697373617 147.3194711592514,103.27975768776378 146.2264399814885,102.73570771090453 144.97726149251685,102.0707570539671 143.88423031475395,101.52670595544623 142.89529734454118,100.92220414307667 141.698167959461,100.13635085517308 140.6571858851239,99.59229796199361 139.61620381148532,99.04824456409551 138.731369048357,98.56464112008689 137.6383378705941,98.1414877793286 136.6494049001485,97.59743303537834 135.3481773075182,96.81157529173652 134.2551461297553,96.14661791699473 133.16211495222524,95.42120901145972 132.01703467057087,94.75625005981419 130.8199052857235,94.03083943459205 129.6748250038363,93.30542791186599 129.93507052236237,91.97550445597153 130.35146335233003,90.88738302129786 130.8199052857235,89.67835683666635 131.18424901133403,88.5297796523082 131.704740048619,87.3207486065221 132.27728018932976,86.17216680385172 132.90186943369918,85.08403459965484 133.5264586780686,84.05635233054636 133.94285150780343,82.78685998171568 134.2551461297553,81.57781709416304 134.67153895949014,80.3687717136927 135.19202999654226,79.34108117991127 135.7645701370202,78.25293629837688 136.02481565601192,77.16478939767694 136.44120848551393,75.9557349171373 137.0137486262247,74.92803664848907 137.22194504085928,73.71897755557438 137.58628876670264,72.75172848597867 137.89858338912018,71.54266490507871 138.67931994469836,70.51495890121441 139.46005650027655,69.72906485904241 139.30390918906778,68.39908792666392 139.61620381148532,67.19001536990982 140.08464574464597,66.34366309654433 140.39694036683068,65.13458630105015 140.8133331965655,63.683690855279565 141.17767692240886,62.23279181867838 141.48997154459357,60.84234353963984 141.48997154459357,59.45189196267165 141.59406975191087,58.12189171637874 141.698167959461,57.15461691503879 141.80226616677828,55.7641565920203 141.85431527043693,54.43414797988953 141.80226616677828,53.10413635033183 141.59406975191087,51.592755836085416 141.54202064825222,50.20228232169757 141.54202064825222,48.63043872540584 141.38587333727628,47.300413929100614 141.48997154459357,46.03084199060686 141.1256278185174,44.76126730273245 141.0215296112001,43.6126021205564 141.0215296112001,42.463934687839355 141.07357871509157,41.375721359450836 141.0215296112001,40.22704954369692 141.07357871509157,39.017918884870596 141.07357871509157,37.68787227978464 141.07357871509157,36.418279523495585 141.07357871509157,35.14868401753483 141.64611885580234,34.24182840116555 142.6871009299066,34.24182840116555 143.88423031475395,34.48365670273779 145.02931059640832,34.846398968074936 146.38258729269728,35.20914100884693 147.5797166780103,35.57188282505376 148.77684606285766,35.99508132698247 150.07807365548797,36.29736578417942 151.43135035200976,36.78102059161756 152.62847973708995,37.1437614352908 153.82560912240297,37.566958802519366 155.07478761090897,37.80878573236987 156.4801134110894,38.05061256233603 157.62519369251095,38.41335262043867 158.7702739739325,38.71563583059469 160.0715015665628,39.199288642790634 161.11248364043422,39.562027990003116 162.15346571453847,39.98522361158393 163.24649689230137,40.287506011198275 164.3395280702971,40.52933181868866 165.4846083514858,40.95252674171934 166.7337868406903,41.25480864284327 168.13911264040507,41.738459359970875 169.23214381816797,42.10119713610038 169.85673306277022,42.94758440746227 170.3772240995895,43.85442655644147 170.27312589227222,44.82172330265166 170.27312589227222,46.09129785950063 170.11697858129628,47.36086966720177 169.9608312700875,48.569983118446544 169.75263485498726,49.77909407578409 169.70058575156145,50.98820253944723 169.49238933669403,52.13685327011626 169.33624202548526,53.52732219605241 169.33624202548526,54.857332865707576 169.18009471450932,56.18734051764477 169.02394740330055,57.4568904620246 169.07599650719203,58.84734677040251 169.02394740330055,60.056436531827785 168.86780009209178,61.32597809762228 168.86780009209178,62.77687937824521 168.71165278111584,64.22777706809575 168.60755457379855,65.67867116758134 168.5555054701399,66.94820055912714 168.39935815893114,68.15727361460449 168.45140726258978,69.42679763934575 168.3473090552725,70.6963189151138 168.13911264040507,71.60311814351007 167.93091622553766,73.05399399151793 167.878867121879,74.32350741361734 167.878867121879,75.7139237219817 167.82681801798753,76.98343138449127 167.77476891456172,78.19248374580638 167.61862160358578,79.52243846381316 167.61862160358578,80.7314855895238 167.6706707070116,81.94053022220032 167.61862160358578,83.08912031399086 166.83788504777476,83.3309284679126 166.31739401095547,83.3309284679126 165.53665745537728,83.27047643868718 164.65182269224897,82.54505160375265 163.6628897220362,81.69872149504954 162.62190764793195,80.97329471545527 161.4768273665104,80.30831937910989 160.3837961887475,79.64334328850964 159.13461770000868,78.97836644377094 158.09363562590443,78.31338884483557 157.26084996643476,77.89022088923957 156.11576968501322,77.52750525576994 155.02273850748315,76.98343138449127 153.7735600185115,76.43935700861039 152.83667615172453,75.89528212760342 151.7956940778531,75.47211242682533 150.5985646925401,75.04894242051523 149.50553351501003,74.44441331049893 148.56864964822307,73.90033657837193 147.42356936680153,73.41671239264542 146.2264399814885,72.93308780819643 145.23750701127574,72.38900967343943 144.09242672962137,71.84493103402201 142.99939555185847,71.30085188988596 142.0104625816457,70.75677224056562 140.96948050754145,70.27314546197886 139.9284984334372,69.78951828432037 139.09571277420036,69.12453026365256 139.19981098151766,67.73409832885955 139.77235112222843,66.64593190571759 140.18874395196326,65.31594797922298 140.6571858851239,64.0464150532498 140.86538230022416,63.01869590912247 141.07357871509157,61.93052073416766 141.17767692240886,60.47961735923309 141.17767692240886,59.210073960595764 141.2297260260675,57.88007316587027 141.48997154459357,56.731433687557 140.9174314038828,55.64324684283929 140.70923498901539,54.252782935334835 140.96948050754145,52.680950199079234 140.96948050754145,51.29047926567728 140.9174314038828,49.90000503428746 140.86538230022416,48.690894326369744 141.0215296112001,47.42132539890008 141.1256278185174,46.151753722224385 141.17767692240886,44.82172330265166 141.2297260260675,43.552145996072795 141.1256278185174,42.04074085573666 141.2297260260675,40.58978825499071 141.17767692240886,39.199288642790634 141.2297260260675,37.68787227978464 141.28177512972616,36.05553823086666 141.17767692240886,34.78594193945173 142.114560788963,34.12091421301011 143.311690174276,34.66502786334604 144.5088195593562,35.0277700163424 145.4977525298018,35.39051194500644 146.5907837075647,35.813710577902384 147.89201129996218,36.115995128580835 148.98504247772507,36.47873638366582 150.23422096669674,36.72056376247201 151.43135035200976,37.022847845742945 152.62847973708995,37.38558853958966 153.87765822582878,37.74832900916226 155.02273850748315,38.111069254169706 156.271916996222,38.41335262043867 157.46904638130218,38.71563583059469 158.6661757666152,39.13883206306491 159.8112560478039,39.44111489929492 160.95633632945828,39.803854096797295 162.04936750722118,40.106136590009555 163.24649689230137,40.408418927458115 164.3915771737229,40.771157526469324 165.53665745537728,40.95252674171934 166.68173773679882,41.31526500423206 167.878867121879,41.678003042179625 169.02394740330055,41.9802845690283 169.85673306277022,43.0684967750567 170.32517499593087,44.035794818017166 170.16902768495493,45.24491512711393 170.16902768495493,46.514488767657895 170.0649294774048,47.663148263818584 170.01288037374616,48.872261091542896 169.85673306277022,50.08137142541818 169.75263485498726,51.29047926567728 169.6485366479028,52.49958461232018 169.59648754401132,53.76914254220901 169.44034023303539,55.09915266308235 169.28419292182662,56.42915976664517 169.18009471450932,57.69870918721426 169.07599650719203,58.96825585857732 169.02394740330055,60.29825418489054 169.02394740330055,61.628249493893236 169.02394740330055,62.958241785818245 168.86780009209178,64.46959300083108 168.65960367769003,65.67867116758134 168.5555054701399,66.94820055912714 168.39935815893114,68.21772720193258 168.39935815893114,69.54770454578102 168.295259951381,70.87767887307564 168.3473090552725,72.20765018317616 168.2432108479552,73.53761847643182 168.08706353674643,74.98848953749985 167.93091622553766,76.31845152302412 167.77476891456172,77.406599994516 167.6706707070116,78.61565148324007 167.61862160358578,79.82470047887182 167.5665724996943,81.03374698141124 167.51452339603566,82.12188670202158 167.1501796701923,83.14957236184273 166.68173773679882,83.3309284679126 165.79690297390334,83.39138049061876 164.7559208997991,82.60550370760029 163.7669879293535,81.88007804972585 162.51780944038182,81.2755559827201 161.42477826285176,80.55012867966434 160.2796979811974,79.94560524134431 159.0825685961172,79.40153361397097 157.93748831469566,78.79700899164891 156.74035892961547,78.01112605060916 155.59527864819393,77.34614735475043 154.45019836653955,76.74162061308743 153.25306898145936,76.13709324813681 152.05593959614635,75.53256525995675 150.858810211299,74.92803664848907 149.76577903330326,74.44441331049893 148.67274785554036,73.65852453536354 147.42356936680153,73.05399399151793 146.2264399814885,72.26810335286427 144.97726149251685,71.72402460128069 143.67603390011936,71.11949206283316 142.53095361869782,70.57541224535089 141.38587333727628,69.97087852272671 140.18874395196326,69.60815798991825 139.25186008540913,69.06407676986419 138.93956546322443,68.21772720193258 139.56415470759384,67.19001536990982 140.13669484830461,65.98094031965593 140.50103857414797,64.83231671259273 140.86538230022416,63.32096643274417 140.9174314038828,61.99097496358445 141.2297260260675,60.721434837789275 141.17767692240886,59.210073960595764 141.1256278185174,57.88007316587027 141.4379224407021,56.48961456323741 141.2297260260675,55.22006252442952 141.33382423361763,54.07141783478437 141.28177512972616,52.80186055920785 141.2297260260675,51.47184522659518 141.07357871509157,50.32319319306407 141.1256278185174,49.11408335779561 141.0215296112001,47.84451534686377 141.1256278185174,46.69585620611906 141.07357871509157,45.305371076916344 141.0215296112001,44.15670696104644 140.96948050754145,42.88712821435183 140.86538230022416,41.678003042179625 140.70923498901539,40.3479624724132 140.70923498901539,39.13883206306491 140.6051367816981,37.80878573236987 140.6571858851239,36.539193237782456 140.70923498901539,35.33005497243721 141.54202064825222,34.36274256458273 143.05144465551712,34.48365670273779 144.14447583351284,34.846398968074936 145.28955611470155,35.269597993581556 146.5907837075647,35.692796713788994 147.73586398898624,35.99508132698247 148.93299337429926,36.23690890526632 150.13012275914662,36.59965008567087 151.37930124811828,36.90193423099117 152.62847973708995,37.38558853958966 153.87765822582878,37.80878573236987 155.07478761090897,38.23198261950165 156.271916996222,38.53426592302276 157.5731445888523,38.836549071071204 158.7702739739325,39.13883206306491 160.22764887753874,39.501571447763126 161.42477826285176,39.803854096797295 162.465760336956,40.22704954369692 163.6628897220362,40.408418927458115 164.91206821077503,40.89207034296123 166.10919759608805,41.13389590114821 167.30632698116824,41.55709038779605 168.50345636648126,41.85937197698513 169.5444384405855,42.40347844478674 170.22107678838074,43.43123372818809 170.53337141079828,44.57989926554728 170.22107678838074,45.78901845251676 170.0649294774048,46.93767937022494 170.01288037374616,48.086338037101086 169.85673306277022,49.234994453552645 169.80468395887874,50.3836486194632 169.80468395887874,51.77412170346361 169.70058575156145,53.04368120461004 169.49238933669403,54.313237956375815 169.49238933669403,55.58279195899377 169.23214381816797,56.85234321228927" stroke="#4DD2FF" stroke-dasharray="none" stroke-linecap="round" stroke-linejoin="round" stroke-width="0.5"><title>2026-05-05 10.0km</title><desc>9223370258867873807</desc></polyline><polyline fill="none" opacity="0.5" points="30.446587991900742,154.44518470019102 30.829237933270633,152.48963701160392 30.523117980454117,149.46741822175682 30.523117980454117,147.5118592408835 30.21699802717194,145.4674064720166 30.293528015259653,143.33405928255524 30.21699802717194,141.02292720275 30.21699802717194,138.71178892627358 30.21699802717194,136.75620554480702 30.37005800381303,134.80061772686895 30.21699802717194,132.84502547205193 30.21699802717194,130.97831963544013 29.83434808580205,129.11160975630628 29.68128810916096,127.15600459452253 29.451698144432157,125.11150354513666 29.604758121073246,123.06699764623772 29.83434808580205,121.0224868976511 29.83434808580205,118.88907920737984 29.910878073889762,116.75566623627674 30.37005800381303,114.44446289207553 32.35983769968152,114.26667776296381 34.12002743035555,114.88892555516213 35.95674714865163,115.33338798879413 37.86999685596675,115.86674260674044 40.08936651656404,116.48898924374953 42.07914621196687,116.84455854899716 43.915865931194276,117.46680448018014 45.82911563804373,118.0890499621164 47.74236534535885,118.71129499486415 49.655615052208304,119.33353957824875 51.49233477143571,119.95578371256124 53.711704432033,120.40024353348417 55.62495413934812,120.93359501613304 57.38514387002215,121.46694616856985 59.52798354206607,122.08918876270764 61.13511329609901,122.7114309076569 62.97183301532641,123.15588930778904 64.96161271026358,123.6892390854191 66.72180244140327,124.13369698112365 68.55852216016501,124.66704615356866 70.47177186748013,125.20039499580162 71.54319170350209,125.82263489509933 72.69114152807742,127.7782430818188 72.69114152807742,129.73384683183394 72.53808155097067,131.68944614514476 72.38502157432958,134.00060324958758 72.30849158624187,135.9561928829644 72.15543160960078,137.911778079113 72.00237163342535,140.13402859919006 71.69625167967752,142.00071460817708 71.61972169205546,143.95628609141568 71.77278166823089,146.26741030678386 71.46666171541438,148.5785283257137 71.31360173830763,150.6229737161193 71.31360173830763,152.57852563925553 71.08401177357882,155.24518020323012 70.85442180885002,157.37849791510962 70.62483184365556,158.80070679006167 70.31871189083904,160.93401570309652 70.24218190228567,163.06731933692936 70.08912192611024,165.28950500820065 69.85953196138144,167.95612025284208 69.47688201954588,170.71161400678102 69.40035203145817,172.84489344467875 69.3238220429048,175.06705391255673 69.09423207817599,177.8225249380339 68.9411721015349,179.86690097529208 68.78811212535948,181.82238656183472 68.63505214871839,183.77786771237152 67.86975226551294,185.82222962757805 66.26262251148,185.46668877336197 64.80855273408815,184.9333772167447 62.81877303821966,183.86675311403815 61.36470326129347,182.62235665955814 59.75757350679487,181.55572969740024 57.76779381139204,180.75575860991376 55.85454410407692,179.33358595473692 54.323944338131696,178.3558408934623 56.1606640573591,179.33358595473692 69.85953196138144,171.511594414711 69.40035203145817,174.26707680424443 69.09423207817599,176.57811975909863 68.9411721015349,178.9780424243654 68.86464211298153,181.91127216478344 68.63505214871839,184.2222946283291 67.94628225360066,185.82222962757805 66.6452724528499,185.55557400069665 64.65549275744706,184.57783599576214 62.43612309731543,183.33344056771602 60.52287338953465,182.1779289189726 58.30350372940302,181.11130140692694 56.772903963923454,179.86690097529208 55.16577420942485,178.80027060414432 53.63517444347963,178.0002969597699 52.02804468944669,177.2003225730732 50.11479498213157,176.22257509228075 48.048485298641026,175.42259905592073 45.98217561468482,174.53373592259595 43.8393359426409,173.46709895326057 42.07914621196687,172.40046066389186 40.165896504651755,171.42270773946075 38.09958682069555,170.44495370564982 36.10980712529272,169.4671985632158 34.273087406530976,168.57832928968128 32.20677772257477,167.6005720301182 30.446587991900742,166.88947514467873 28.76292824978009,165.8228287170059 27.53844843711704,164.66729359759483 27.768038402311504,162.44510632246966 28.76292824978009,160.8451279370929 29.604758121073246,158.8895947666606 30.21699802717194,156.57850439182948 30.446587991900742,154.44518470019102 30.829237933270633,152.48963701160392 30.523117980454117,149.46741822175682 30.523117980454117,147.5118592408835 30.21699802717194,145.4674064720166 30.293528015259653,143.33405928255524 30.21699802717194,141.02292720275 30.21699802717194,138.71178892627358 30.21699802717194,136.75620554480702 30.37005800381303,134.80061772686895 30.21699802717194,132.84502547205193 30.21699802717194,130.97831963544013 29.83434808580205,129.11160975630628 29.68128810916096,127.15600459452253 29.451698144432157,125.11150354513666 29.604758121073246,123.06699764623772 29.83434808580205,121.0224868976511 29.83434808580205,118.88907920737984 29.910878073889762,116.75566623627674 30.37005800381303,114.44446289207553 32.35983769968152,114.26667776296381 34.12002743035555,114.88892555516213 35.95674714865163,115.33338798879413 37.86999685596675,115.86674260674044 40.08936651656404,116.48898924374953 42.07914621196687,116.84455854899716 43.915865931194276,117.46680448018014 45.82911563804373,118.0890499621164 47.74236534535885,118.71129499486415 49.655615052208304,119.33353957824875 51.49233477143571,119.95578371256124 53.711704432033,120.40024353348417 55.62495413934812,120.93359501613304 57.38514387002215,121.46694616856985 59.52798354206607,122.08918876270764 61.13511329609901,122.7114309076569 62.97183301532641,123.15588930778904 64.96161271026358,123.6892390854191 66.72180244140327,124.13369698112365 68.55852216016501,124.66704615356866 70.47177186748013,125.20039499580162 71.54319170350209,125.82263489509933 72.69114152807742,127.7782430818188 72.69114152807742,129.73384683183394 72.53808155097067,131.68944614514476 72.38502157432958,134.00060324958758 72.30849158624187,135.9561928829644 72.15543160960078,137.911778079113 72.00237163342535,140.13402859919006 71.69625167967752,142.00071460817708 71.61972169205546,143.95628609141568 71.77278166823089,146.26741030678386 71.46666171541438,148.5785283257137 71.31360173830763,150.6229737161193 71.31360173830763,152.57852563925553 71.08401177357882,155.24518020323012 70.85442180885002,157.37849791510962 70.62483184365556,158.80070679006167 70.31871189083904,160.93401570309652 70.24218190228567,163.06731933692936 70.08912192611024,165.28950500820065 69.85953196138144,167.95612025284208 69.47688201954588,170.71161400678102 69.40035203145817,172.84489344467875 69.3238220429048,175.06705391255673 69.09423207817599,177.8225249380339 68.9411721015349,179.86690097529208 68.78811212535948,181.82238656183472 68.63505214871839,183.77786771237152 67.86975226551294,185.82222962757805 66.26262251148,185.46668877336197 64.80855273408815,184.9333772167447 62.81877303821966,183.86675311403815 61.36470326129347,182.62235665955814 59.75757350679487,181.55572969740024 57.76779381139204,180.75575860991376 55.85454410407692,179.33358595473692 54.323944338131696,178.3558408934623 56.1606640573591,179.33358595473692 69.85953196138144,171.511594414711 69.40035203145817,174.26707680424443 69.09423207817599,176.57811975909863 68.9411721015349,178.9780424243654 68.86464211298153,181.91127216478344 68.63505214871839,184.2222946283291 67.94628225360066,185.82222962757805 66.6452724528499,185.55557400069665 64.65549275744706,184.57783599576214 62.43612309731543,183.33344056771602 60.52287338953465,182.1779289189726 58.30350372940302,181.11130140692694 56.772903963923454,179.86690097529208 55.16577420942485,178.80027060414432 53.63517444347963,178.0002969597699 52.02804468944669,177.2003225730732 50.11479498213157,176.22257509228075 48.048485298641026,175.42259905592073 45.98217561468482,174.53373592259595 43.8393359426409,173.46709895326057 42.07914621196687,172.40046066389186 40.165896504651755,171.42270773946075 38.09958682069555,170.44495370564982 36.10980712529272,169.4671985632158 34.273087406530976,168.57832928968128 32.20677772257477,167.6005720301182 30.446587991900742,166.88947514467873 28.76292824978009,165.8228287170059 27.53844843711704,164.66729359759483 27.768038402311504,162.44510632246966 28.76292824978009,160.8451279370929 29.604758121073246,158.8895947666606 30.21699802717194,156.57850439182948 30.446587991900742,154.44518470019102 30.829237933270633,152.48963701160392 30.523117980454117,149.46741822175682 30.523117980454117,147.5118592408835 30.21699802717194,145.4674064720166 30.293528015259653,143.33405928255524 30.21699802717194,141.02292720275 30.21699802717194,138.71178892627358 30.21699802717194,136.75620554480702 30.37005800381303,134.80061772686895 30.21699802717194,132.84502547205193 30.21699802717194,130.97831963544013 29.83434808580205,129.11160975630628 29.68128810916096,127.15600459452253 29.451698144432157,125.11150354513666 29.604758121073246,123.06699764623772 29.83434808580205,121.0224868976511 29.83434808580205,118.88907920737984 29.910878073889762,116.75566623627674 30.37005800381303,114.44446289207553 32.35983769968152,114.26667776296381 34.12002743035555,114.88892555516213 35.95674714865163,115.33338798879413 37.86999685596675,115.86674260674044 40.08936651656404,116.48898924374953 42.07914621196687,116.84455854899716 43.915865931194276,117.46680448018014 45.82911563804373,118.0890499621164 47.74236534535885,118.71129499486415 49.655615052208304,119.33353957824875 51.49233477143571,119.95578371256124 53.711704432033,120.40024353348417 55.62495413934812,120.93359501613304 57.38514387002215,121.46694616856985 59.52798354206607,122.08918876270764 61.13511329609901,122.7114309076569 62.97183301532641,123.15588930778904 64.96161271026358,123.6892390854191 66.72180244140327,124.13369698112365 68.55852216016501,124.66704615356866 70.47177186748013,125.20039499580162 71.54319170350209,125.82263489509933 72.69114152807742,127.7782430818188 72.69114152807742,129.73384683183394 72.53808155097067,131.68944614514476 72.38502157432958,134.00060324958758 72.30849158624187,135.9561928829644 72.15543160960078,137.911778079113 72.00237163342535,140.13402859919006 71.69625167967752,142.00071460817708 71.61972169205546,143.95628609141568 71.77278166823089,146.26741030678386 71.46666171541438,148.5785283257137 71.31360173830763,150.6229737161193 71.31360173830763,152.57852563925553 71.08401177357882,155.24518020323012 70.85442180885002,157.37849791510962 70.62483184365556,158.80070679006167 70.31871189083904,160.93401570309652 70.24218190228567,163.06731933692936 70.08912192611024,165.28950500820065 69.85953196138144,167.95612025284208 69.47688201954588,170.71161400678102 69.40035203145817,172.84489344467875 69.3238220429048,175.06705391255673 69.09423207817599,177.8225249380339 68.9411721015349,179.86690097529208 68.78811212535948,181.82238656183472 68.63505214871839,183.77786771237152 67.86975226551294,185.82222962757805 66.26262251148,185.46668877336197 64.80855273408815,184.9333772167447 62.81877303821966,183.86675311403815 61.36470326129347,182.62235665955814 59.75757350679487,181.55572969740024 57.76779381139204,180.75575860991376 55.85454410407692,179.33358595473692 54.323944338131696,178.3558408934623 56.1606640573591,179.33358595473692 69.85953196138144,171.511594414711 69.40035203145817,174.26707680424443 69.09423207817599,176.57811975909863 68.9411721015349,178.9780424243654 68.86464211298153,181.91127216478344 68.63505214871839,184.2222946283291 67.94628225360066,185.82222962757805 66.6452724528499,185.55557400069665 64.65549275744706,184.57783599576214 62.43612309731543,183.33344056771602 60.52287338953465,182.1779289189726 58.30350372940302,181.11130140692694 56.772903963923454,179.86690097529208 55.16577420942485,178.80027060414432 53.63517444347963,178.0002969597699 52.02804468944669,177.2003225730732 50.11479498213157,176.22257509228075 48.048485298641026,175.42259905592073 45.98217561468482,174.53373592259595 43.8393359426409,173.46709895326057 42.07914621196687,172.40046066389186 40.165896504651755,171.42270773946075 38.09958682069555,170.44495370564982 36.10980712529272,169.4671985632158 34.273087406530976,168.57832928968128 32.20677772257477,167.6005720301182 30.446587991900742,166.88947514467873 28.76292824978009,165.8228287170059 27.53844843711704,164.66729359759483 27.768038402311504,162.44510632246966 28.76292824978009,160.8451279370929 29.604758121073246,158.8895947666606 30.21699802717194,156.57850439182948 30.446587991900742,154.44518470019102 30.829237933270633,152.48963701160392 30.523117980454117,149.46741822175682 30.523117980454117,147.5118592408835 30.21699802717194,145.4674064720166 30.293528015259653,143.33405928255524 30.21699802717194,141.02292720275 30.21699802717194,138.71178892627358 30.21699802717194,136.75620554480702 30.37005800381303,134.80061772686895 30.21699802717194,132.84502547205193 30.21699802717194,130.97831963544013 29.83434808580205,129.11160975630628 29.68128810916096,127.15600459452253 29.451698144432157,125.11150354513666 29.604758121073246,123.06699764623772 29.83434808580205,121.0224868976511 29.83434808580205,118.88907920737984 29.910878073889762,116.75566623627674 30.37005800381303,114.44446289207553 32.35983769968152,114.26667776296381 34.12002743035555,114.88892555516213 35.95674714865163,115.33338798879413 37.86999685596675,115.86674260674044 40.08936651656404,116.48898924374953 42.07914621196687,116.84455854899716 43.915865931194276,117.46680448018014 45.82911563804373,118.0890499621164" stroke="#4DD2FF" stroke-dasharray="1,0.5" stroke-linecap="round" stroke-linejoin="round" stroke-width="0.5"><title>2026-05-01 12.1km</title><desc>9223370259215195807</desc></polyline><polyline fill="none" opacity="1" points="120.1374885427067,131.6426716199494 120.18698441801826,131.02941319020465 120.18698441801826,130.4161527362885 120.21998166822596,129.84121922242048 120.43446379469242,129.3046130042785 120.94592117326101,129.4004356568912 121.50687442725757,129.66873882134678 122.06782768113771,129.86038370152528 122.62878093501786,130.03286392470181 123.20623281400185,130.26283730652358 123.75068744277814,130.4353171561088 124.4106324473396,130.6652900398185 124.97158570127795,130.85693389212247 125.6315307058394,131.04857754679688 126.22548120992724,131.27854967142048 126.8194317141315,131.4893572022993 127.36388634284958,131.6426716199494 127.89184234652203,131.834314464184 128.51879010087578,132.045121364441 129.09624197985977,132.2367637935822 129.69019248400582,132.44757023728744 130.28414298815187,132.67754063037864 130.94408799271332,132.8883465740655 131.55453712196322,133.13748056265467 132.18148487631697,133.3674501018977 132.80843263061251,133.5207629699289 133.40238313481677,133.75073203473585 133.94683776353486,133.92320864651992 134.5407882676809,134.153177213273 135.0852428965154,134.32565345152398 135.48120989918243,134.78558930422878 136.05866177822463,134.9197370467882 136.58661778189708,134.9005730895151 137.14757103577722,135.05388469250465 137.77451879013097,135.30301577763748 138.3024747938034,135.5521465287602 138.8469294226379,135.62880207723356 139.3253895508824,135.8779323915369 139.9028414299246,136.14622620260343 140.48029330890859,136.35702821098675 141.10724106332054,136.64448510973307 141.68469294230454,136.77863151030033 142.16315307060722,136.98943280123058 142.62511457380606,137.0277602829883 143.1200733272708,137.1235789527709 143.697525206313,137.29605243388505 144.25847846019315,137.44936206047714 144.80293308891123,137.77514459697704 145.39688359305728,137.87096288135217 146.00733272230718,138.06259930194938 146.60128322645323,138.2542355248588 147.17873510549543,138.36921716375218 147.78918423474533,138.56085307052126 148.38313473883318,138.73332521758857 149.10907424392644,138.8674701101845 149.70302474795608,139.02077844028827 150.29697525210213,139.19325016047515 150.87442713108612,139.34655822184868 151.46837763523217,139.49986615670787 152.07882676448207,139.6531739650527 152.67277726862812,139.84480854769936 153.23373052250827,140.05560636027076 153.84417965175817,140.41971110977465 154.42163153080037,140.66883500093536 155.11457378556952,140.91795855820237 155.51054078829475,141.1095918365172 155.95600366638973,141.30122491718794 156.3684692942188,141.53118435318174 156.76443629706046,141.83779649181815 157.34188817604445,141.97193914339005 157.9358386801905,142.18273454310838 158.46379468386294,142.41269288826152 158.9917506875354,142.7576298723725 159.51970669109141,143.06423998750688 160.09715857019182,143.42833884210268 160.69110907422146,143.73494785060757 161.23556370311417,144.11820839984284 161.74702108162455,144.46314221834473 161.97800183325307,144.9613788259594 162.48945921176346,145.28714819329616 162.9844179652282,145.5171026969765 162.9514207150205,146.11115051464003 162.72043996333377,146.6285454538447 162.55545371229528,147.08845085721987 162.3739688359783,147.5675177755038 162.1759853346157,147.6441683678422 162.4729605866596,146.9351491825364 162.80293308896944,146.39859232537856 163.44637946842704,146.0728249062813 163.97433547209948,146.32194121931389 164.46929422550602,146.70519643345324 164.9807516040746,147.06928815477295 165.4262144822278,147.43337916285964 165.95417048584204,147.93160780753533 166.5811182401958,148.3148597021791 167.19156736938749,148.67894827014243 167.7690192484879,148.96638610940136 168.32997250236804,149.2154985438392 168.87442713108612,149.44544818690338 169.55087076080963,149.63707267219434 170.09532538958592,149.82869695988484 170.77176901930943,150.096970630766 171.13473877182696,150.4418933528359 171.728689275973,150.40356863754278 172.15765352890594,150.67184147864464 172.6856095326366,150.61435447382974 173.16406966088107,150.71016613855318 173.5930339138722,150.99760083643196 174.1374885426485,151.1508991602168 174.69844179658685,151.30419735750183 175.16040329978568,151.57246889855014 175.82034830434714,151.74492897048185 176.34830430801958,151.87906447131536 177.00824931263924,151.99403768073535 177.5692025665776,152.12817300180905 178.13015582039952,152.22398388620059 178.5756186984945,152.35811904132424 179.0540788267972,152.549740523551 179.71402383141685,152.76052392585552 180.3079743355047,152.89465869375272 181.0174152154359,153.02879336486512 181.5948670944781,153.25873829008196 182.073327222839,153.50784497143468 182.6837763520307,153.6036551446159 183.19523373059928,153.7569513188937 183.62419798359042,154.06354328822636 184.23464711284032,154.21683908326668 184.8780934922397,154.25516301226162 185.43904674611986,154.40845864920993 185.9340054995846,154.6000780176546 185.9340054995846,155.1557730689674 185.67002749774838,155.7689518872212 185.3895508708083,156.43961390339246 185.15857011917979,156.97614177411015 184.94408799277153,157.53182972186187 184.6471127406694,158.0875160083233 184.48212648951449,158.62403912242735 184.15215398720466,159.19888359766628 183.9376718607382,159.7545649005333 183.69019248400582,160.3294058796164 183.44271310733166,160.86592252284754 183.11274060502183,161.34495393147517 182.8817598533933,161.86230646628246 182.8157653529197,162.45630204543704 182.58478460134938,162.95449042246037 182.28780934930546,163.43351644897484 182.1063244729885,164.06582891391008 181.77635197073687,164.5256911738834 181.61136571958195,165.10051739907067 181.33088909264188,165.6370202723192 181.1164069661172,166.13520012532535 180.9184234646964,166.57589657482458 180.3739688359783,166.15436086225964 179.89550870767562,165.98191415892506 179.48304307984654,165.79030652310757 179.0540788267972,165.59869868986425 178.60861594876042,165.40709065912233 178.13015582039952,165.1963215971773 177.61869844183093,164.98555229626072 177.14023831352824,164.73646099618054 176.62878093495965,164.5256911738834 176.10082493134541,164.2765992575878 175.5563703025109,164.0275070075586 175.02841429883847,163.79757540358696 174.549954170594,163.4718384777807 174.02199816686334,163.3185503151617 173.7250229147612,163.22274514944002 173.21356553625083,162.97365148723475 172.751604033052,162.78204075072426 172.306141154957,162.60959091901896 171.8276810265961,162.37965756123594 171.34922089835163,162.16888506672694 170.83776351978304,161.93895116378553 170.35930339148035,161.70901697642694 169.84784601291176,161.47908250468026 169.33638863434317,161.2299865060195 168.79193400550866,161.01921270787716 168.28047662699828,160.71263221137633 167.7690192484879,160.482696507097 167.20806599454954,160.29108320291562 166.69660861603916,160.0419856122462 166.1686526123667,159.83121046713495 165.6241979835322,159.62043508296483 165.09624197985977,159.39049802764202 164.53528872597963,159.14139923009498 163.97433547209948,158.8923000987852 163.44637946842704,158.64320063359628 162.86892758938484,158.37493929774791 162.42346471140627,158.06835443993623 162.19248395971954,157.627637820784 162.48945921176346,157.1102734997985 162.75343721359968,156.49709910650563 163.0174152154359,155.86476089477947 163.23189734196058,155.30906796312775 163.44637946842704,154.69588762777857 163.6608615948935,154.15935317492404 163.90834097162588,153.6036551446159 164.12282309815055,153.06711753881245 164.35380384972086,152.492254099634 164.55178735108348,151.9748754841421 164.73327222728403,151.4766576783586 164.93125572870485,150.8634646993596 165.12923923012568,150.36524391434796 165.34372135659214,149.79037211817922 165.57470210827887,149.2154985438392 165.78918423468713,148.67894827014243 166.1026581118349,148.08490866022476 166.5811182401958,148.3148597021791 167.09257561870618,148.67894827014243 167.2245646196534,148.698110806552 166.66361136571504,148.35318484819436 166.25114573788596,148.06574606057256 166.51512373972218,147.6441683678422 166.6471127406694,147.06928815477295 166.76260311639635,146.45608063416148 166.96058661781717,145.90035957089276 167.158570119238,145.3637997261394 167.37305224564625,144.82723833224736 167.60403299733298,144.25234940534574 167.78551787353354,143.67745870005456 168.01649862516206,143.1408924372081 168.23098075162852,142.58516146031616 168.46196150325704,142.02942882161005 168.69294225482736,141.58867416770954 168.85792850604048,141.12875515350606 169.0559120074031,140.70716172379616 169.2208982584998,140.18975029833382 169.43538038502447,139.7489912811143 169.6003666361794,139.19325016047515 169.91384051332716,138.7141616535664 170.375802016526,138.7141616535664 169.74885426223045,138.75248877957347 169.28689275903162,138.7716523396084 169.03941338229924,139.28906771363108 168.85792850604048,139.7873181936302 168.6434463794576,140.32389413956844 168.39596700278344,140.8796318788518 168.21448212646646,141.43536795608816 168.0000000000582,141.97193914339005 167.88450962427305,142.45101925139898 167.71952337311814,142.94926125361235 167.43904674617806,143.31336033348634 167.2245646196534,143.84992609833716 167.02658111829078,144.40565329306992 166.845096242032,144.942215904186 166.5481209899881,145.47877696617797 166.36663611372933,145.95784803385322 166.15215398720466,146.43691786656564 165.70669110916788,146.85849829782092 165.4262144822278,147.51002981053898 165.73968835937558,147.95077042101184 165.5252062329091,148.4873227969365 165.34372135659214,149.04303612481453 165.14573785528773,149.52209800478886 164.96425297897076,150.0394834481849 164.7497708524461,150.5185427597171 164.55178735108348,151.01676313384087 164.35380384972086,151.5341444164369 164.1393217232544,152.03236206807196 163.95783684699563,152.5689026609325 163.7268560953671,153.1054417048872 163.5288725940045,153.6228171732946 163.31439046753803,154.15935317492404 163.13290559127927,154.71504954385455 162.90192483959254,155.2707442514802 162.68744271318428,155.84559909719974 162.45646196155576,156.40129042482295 162.22548120998545,157.03362681127328 162.01099908340257,157.5701529673679 161.51604033005424,157.72344587034604 160.88909257564228,157.45518320713018 160.36113657202804,157.2252434733673 159.84967919340124,156.9953034551727 159.47021081583807,156.70787803234998 158.9917506875354,156.42045216508268 158.41429880849319,156.24799643139704 157.86984417965868,155.99889342251117 157.34188817604445,155.7689518872212 156.76443629706046,155.500686403102 156.2034830431803,155.2707442514802 155.67552703944966,155.05996369585046 155.23006416135468,154.77253528033907 154.7516040331102,154.56175415977486 154.10815765353618,154.3126488909329 153.64619615033735,154.1018672488717 153.0852428964572,153.85276136368338 152.6067827680963,153.6228171732946 152.02933088911232,153.35454859168385 151.53437213570578,153.12460378493415 151.2538955087657,152.7988481551438 150.67644362978172,152.64555119056604 150.18148487631697,152.549740523551 149.60403299727477,152.28147039307805 149.05957836855669,152.03236206807196 148.53162236488424,151.78325340918673 148.0366636114195,151.5916311366891 147.5582034831168,151.34252188708342 146.99725022923667,151.11257459106855 146.46929422556423,150.88262701062195 145.80934922094457,150.5185427597171 145.29789184243418,150.28859444431146 144.8194317140733,150.00115864991676 144.2419798350311,149.7520472685428 143.97800183325307,150.36524391434796 143.51604033005424,150.61435447382974 142.8560953254928,150.4418933528359 142.32813932176214,150.5185427597171 142.11365719535388,151.07425001413503 141.78368469298584,151.70660452391894 141.43721356563037,152.33895688218763 141.1567369386903,152.91382079552568 140.87626031175023,153.48868293089618 140.6122823097976,154.12102922621125 140.38130155822728,154.71504954385455 140.1338221815531,155.2707442514802 139.9028414299246,155.8264372976555 139.67186067835428,156.3629669383081 139.391384051356,156.9953034551727 139.14390467462363,157.53182972186187 138.86342804768356,158.14500070181384 138.59945004584733,158.7006851551705 138.31897341890726,159.33301371941343 138.05499541712925,159.79288768777042 137.80751604039688,160.31024454224098 137.54353803861886,160.90424508090655 137.32905591203598,161.40243761753663 137.0155820348882,162.0155958297255 136.80109990842175,162.53294649800227 136.55362053168938,163.03113466963987 136.25664527958725,163.60596551638446 136.05866177822463,164.123311758638 135.79468377644662,164.65981745206227 135.5637030247599,165.1579999238602 135.31622364808572,165.7328241938667 135.06874427135335,166.23100379020616 134.83776351972483,166.74834272710723 134.59028414299246,167.304001463257 134.3098075160524,167.8788190977648 134.04582951427437,168.45363495490164 133.7983501374838,169.04760947353498 133.53437213570578,169.60326133742637 133.27039413386956,170.1972321830399 132.95692025666358,170.69539981611888 132.39596700278344,170.5229573250108 131.88450962427305,170.1972321830399 131.40604949591216,169.90982717210136 130.86159486719407,169.6799028434907 130.39963336393703,169.41165743398597 129.92117323563434,169.1242512086901 129.40971585706575,168.81768407855998 128.99725022917846,168.51111644285265 128.48579285060987,168.22370882538962 128.05682859761873,167.9554613147484 127.51237396890065,167.61057108953537 127.05041246570181,167.36148330669675 126.48945921176346,167.01659197953995 125.97800183325307,166.6717000125209 125.49954170495039,166.36512883800606 124.90559120080434,166.07771790275 124.476626947755,165.79030652310757 123.98166819434846,165.48373389508924 123.47021081583807,165.2729649200919 123.20623281400185,164.87058712230646 122.72777268564096,164.5256911738834 122.24931255733827,164.31492111260013 121.77085242903559,163.98918509336363 121.24289642530493,163.81673638144275 120.71494042163249,163.58680451677355 120.2364802933298,163.26106722166878 119.79101741523482,163.03113466963987 119.27956003672443,162.76287966623204 118.9165902842069,162.51378538784047 118.47112740605371,162.28385191148845 118.00916590291308,162.0155958297255 117.79468377638841,161.72817816959287 117.67919340060325,161.9006288189412 117.5637030248181,162.07307930839306 117.6956920257071,162.07307930839306 117.87717690202408,161.80482292237866 117.94317140243948,161.82398410566384 117.77818515128456,161.91978999237472 117.36571952345548,161.6323721841327 116.93675527046435,161.32579269881535 116.4417965169414,161.0383739721583 115.94683776359307,160.7509548010712 115.45187901012832,160.44437386204663 115.03941338224104,160.21443782599817 114.5774518790422,159.94617875774566 114.18148487631697,159.71624210537993 114.08249312563566,159.27552939338784 114.46196150325704,158.79649265170156 114.79193400556687,158.41326236947498 115.1549037580844,157.89590023514756 115.41888175992062,157.43602157352143" stroke="#4DD2FF" stroke-dasharray="none" stroke-linecap="round" stroke-linejoin="round" stroke-width="0.5"><title>2026-04-26 15.1km</title><desc>9223370259653729807</desc></polyline><polyline fill="none" opacity="1" points="62.14466990157962,201.15795156126842 59.24445022456348,198.21056126151234 55.619175625965,196.1052811741829 48.006098970770836,195.2631688346155 44.01829691231251,195.68422502558678 40.39302231557667,197.3684493568726 37.49280263856053,199.8947845492512 35.317637879401445,202.84217363363132 33.505000580102205,206.6316707599908 32.77994566038251,218.42119488492608 32.41741820052266,230.6317375660874 32.77994566038251,242.42119240900502 33.505000580102205,250.0001096953638 34.9551104195416,253.7895630635321 37.49280263856053,257.1579631064087 40.39302231557667,260.10531086474657 44.01829691231251,261.7895086281933 48.006098970770836,262.21055795950815 51.993901029229164,262.21055795950815 55.619175625965,261.36845925217494 59.24445022456348,259.26321172108874 61.78214244171977,256.31586335552856 65.40741704031825,249.57905910303816 66.4949994198978,237.78962492290884 66.1324719581753,226.00015670852736 66.4949994198978,213.789600180462 65.40741704031825,206.21061569731683 61.78214244171977,199.4737287927419 58.881922762840986,196.94739333819598 55.25664816610515,195.2631688346155 48.006098970770836,194.0 44.74335183389485,194.8421125994064 40.75554977543652,197.3684493568726 36.76774771884084,203.2632290441543 33.14247312024236,214.63170870020986 33.505000580102205,218.00014103902504 32.05489074066281,228.10542138572782 32.41741820052266,241.57908962108195 32.41741820052266,247.89485630393028 33.14247312024236,251.26326120831072 37.13027517683804,257.1579631064087 39.66796739585698,259.26321172108874 45.83093421347439,262.21055795950815 49.45620881021023,262.21055795950815 52.718955947086215,261.7895086281933 59.24445022456348,258.8421620852314 63.95730719901621,252.5264123310335 67.22005433775485,241.57908962108195 67.58258179947734,237.78962492290884 66.4949994198978,226.42120973113924 66.4949994198978,214.63170870020986 66.1324719581753,207.05272577889264 63.23225228115916,200.315840263851 60.694560062140226,197.3684493568726 57.43181292526424,195.2631688346155 49.818736270070076,194.0 46.193461671471596,194.8421125994064 39.66796739585698,198.21056126151234 36.76774771884084,200.7368959346786 34.59258295968175,204.10533973295242 33.14247312024236,207.8948356867768 32.41741820052266,219.26330244913697 32.05489074066281,234.00015670852736 32.41741820052266,248.3159070694819 33.14247312024236,252.10536199994385 34.9551104195416,255.4737634314224 37.49280263856053,258.4211124051362 43.655769454315305,261.7895086281933 50.90631864964962,262.6316072498448 58.156867844983935,260.52636037021875 63.59477974101901,255.4737634314224 65.40741704031825,252.10536199994385 67.22005433775485,237.36857307329774 66.857526877895,222.63173096859828 66.1324719581753,208.31589057529345 64.68236212059855,204.52639501355588 62.86972481943667,201.57900714408606 57.43181292526424,196.52633727760985 50.54379118792713,194.8421125994064 43.655769454315305,195.68422502558678 40.75554977543652,197.3684493568726 35.317637879401445,203.2632290441543 33.505000580102205,206.6316707599908 32.05489074066281,218.00014103902504 32.05489074066281,232.73699985491112 32.41741820052266,247.47380549600348 33.14247312024236,250.84221074683592 37.13027517683804,257.1579631064087 39.66796739585698,259.6842613145709 42.93071453459561,261.36845925217494 46.193461671471596,262.21055795950815 53.44401086680591,262.21055795950815 60.33203260414302,258.8421620852314 65.0448895804584,253.36851286236197 66.857526877895,246.6317037488334 67.22005433775485,232.3159474846907 67.94510925747454,218.00014103902504 65.7699445001781,207.05272577889264 63.95730719901621,204.10533973295242 59.60697768256068,199.8947845492512 53.44401086680591,196.94739333819598 46.193461671471596,196.1052811741829 42.93071453459561,196.94739333819598 39.66796739585698,199.05267299246043 37.13027517683804,201.57900714408606 33.14247312024236,207.8948356867768 32.05489074066281,211.2632735813968 32.05489074066281,226.42120973113924 32.05489074066281,241.57908962108195 32.41741820052266,249.15800846880302 33.505000580102205,252.5264123310335 38.217857556417584,258.4211124051362 44.74335183389485,261.7895086281933 48.73115389049053,262.21055795950815 55.98170308582485,260.94740983238444 61.78214244171977,256.7369132526219 65.40741704031825,250.42116024252027 66.857526877895,235.68436523713171 67.58258179947734,220.94751705648378 66.857526877895,209.57905498193577 65.7699445001781,205.78956059040502 63.95730719901621,202.42111818073317 61.057087522000074,199.8947845492512 57.79434038326144,197.3684493568726 54.531593246385455,196.1052811741829 46.555989131331444,195.68422502558678 42.56818707473576,196.94739333819598 39.30543993599713,199.4737287927419 34.59258295968175,205.3685054415837 33.505000580102205,209.15800022380427 32.77994566038251,221.36857059877366 32.77994566038251,233.1580521822907 32.77994566038251,244.52644862188026 33.14247312024236,248.3159070694819 33.86752803996205,252.5264123310335 35.68016533926129,255.89481341606006 38.58038501627743,258.8421620852314 41.48060469515622,260.94740983238444 44.74335183389485,262.21055795950815 52.35642848908901,262.21055795950815 55.98170308582485,260.94740983238444 59.24445022456348,258.8421620852314 64.3198346607387,252.94746261881664 66.1324719581753,245.36855080304667 66.4949994198978,233.5791044672951 66.4949994198978,221.78962409915403 65.7699445001781,210.00010969815776 62.86972481943667,203.2632290441543 60.33203260414302,200.315840263851 57.06928546540439,198.21056126151234 49.818736270070076,196.1052811741829 45.83093421347439,196.52633727760985 42.56818707473576,197.78950533038005 36.76774771884084,203.6842844109051 34.9551104195416,207.05272577889264 33.14247312024236,219.68435616558418 32.77994566038251,231.89489507023245 32.77994566038251,243.68434626748785 33.505000580102205,251.6843116269447 35.317637879401445,255.05271340487525 37.855330096557736,258.0000626822002 44.01829691231251,261.7895086281933 48.006098970770836,262.21055795950815 55.619175625965,260.94740983238444 58.881922762840986,259.6842613145709 63.95730719901621,254.21061322046444 66.857526877895,243.26329502509907 67.22005433775485,239.47383188875392 66.4949994198978,227.68436853727326 66.4949994198978,215.4738170458004 65.40741704031825,207.47378075495362 63.59477974101901,203.6842844109051 61.057087522000074,200.7368959346786 57.79434038326144,198.21056126151234 53.80653832666576,196.94739333819598 49.818736270070076,196.1052811741829 46.193461671471596,196.52633727760985 42.20565961301327,197.3684493568726 39.30543993599713,199.8947845492512 36.40522025898099,202.42111818073317 33.14247312024236,209.57905498193577 32.77994566038251,221.78962409915403 32.77994566038251,233.1580521822907 32.77994566038251,244.94749973341823 33.14247312024236,249.15800846880302 34.2300554998219,252.94746261881664 36.042692797258496,256.31586335552856 38.58038501627743,258.8421620852314 41.843132155016065,260.94740983238444 45.4684067517519,262.21055795950815 49.45620881021023,262.6316072498448 53.44401086680591,263.89475485589355 56.7067580036819,262.21055795950815 59.96950514242053,260.10531086474657 64.68236212059855,253.7895630635321 66.1324719581753,245.78960182936862 66.4949994198978,234.00015670852736 66.1324719581753,229.78963234601542 66.1324719581753,217.5790871474892 65.7699445001781,209.57905498193577 63.59477974101901,202.00006268452853 61.057087522000074,199.8947845492512 53.80653832666576,196.94739333819598 49.45620881021023,196.1052811741829 45.10587929189205,196.1052811741829 41.48060469515622,197.78950533038005 38.58038501627743,200.315840263851 35.68016533926129,203.6842844109051 34.2300554998219,207.47378075495362 33.14247312024236,211.68432812346146 32.77994566038251,223.47383766435087 32.77994566038251,238.21067672921345 33.505000580102205,250.0001096953638 34.9551104195416,253.7895630635321 37.49280263856053,256.7369132526219 40.39302231557667,259.26321172108874 43.29324199445546,260.94740983238444 47.28104405105114,261.7895086281933 50.90631864964962,261.7895086281933 54.531593246385455,260.94740983238444 58.156867844983935,259.26321172108874 61.057087522000074,256.7369132526219 63.23225228115916,253.7895630635321 65.0448895804584,250.42116024252027 67.58258179947734,238.63172849221155 66.857526877895,224.73699738178402 65.7699445001781,210.4211643692106 62.14466990157962,202.84217363363132 59.60697768256068,199.8947845492512 56.344230545684695,197.78950533038005 52.718955947086215,196.1052811741829 49.09368135035038,196.52633727760985 42.20565961301327,198.63161714794114 38.94291247613728,200.315840263851 36.042692797258496,202.84217363363132 34.2300554998219,206.6316707599908 33.14247312024236,218.42119488492608 32.77994566038251,229.78963234601542 32.41741820052266,241.57908962108195 32.77994566038251,249.15800846880302 34.2300554998219,252.94746261881664 38.94291247613728,258.8421620852314 42.20565961301327,260.94740983238444 45.83093421347439,262.21055795950815 53.08148340880871,261.7895086281933 59.96950514242053,258.4211124051362 62.50719736330211,255.4737634314224 64.68236212059855,252.5264123310335 65.7699445001781,248.73695779126137 67.22005433775485,234.00015670852736 66.4949994198978,226.84226270997897 66.857526877895,212.52643707673997 66.4949994198978,209.15800022380427 65.40741704031825,205.78956059040502 63.95730719901621,202.42111818073317 61.41961498372257,199.4737287927419 58.156867844983935,197.3684493568726 50.54379118792713,195.2631688346155 46.91851659119129,195.68422502558678 40.39302231557667,199.05267299246043 37.855330096557736,201.57900714408606 33.86752803996205,208.31589057529345 33.14247312024236,223.47383766435087 33.14247312024236,238.21067672921345 33.14247312024236,249.15800846880302 36.042692797258496,255.89481341606006 38.58038501627743,258.8421620852314 41.11807723529637,260.52636037021875 48.36862642876804,262.6316072498448 50.90631864964962,266.0 54.8941207062453,265.15790207264945 61.057087522000074,259.26321172108874 63.59477974101901,255.89481341606006 65.0448895804584,252.10536199994385 65.7699445001781,240.31593511300161 65.7699445001781,228.52647419134155 66.1324719581753,217.15803321404383 65.7699445001781,213.789600180462 64.68236212059855,210.84221899695694 62.14466990157962,208.31589057529345 61.78214244171977,207.8948356867768 60.694560062140226,201.57900714408606 56.344230545684695,197.3684493568726 52.718955947086215,196.1052811741829 45.4684067517519,196.1052811741829 41.843132155016065,197.3684493568726 38.94291247613728,199.8947845492512 34.59258295968175,206.21061569731683 33.14247312024236,209.57905498193577 32.41741820052266,224.73699738178402 32.41741820052266,236.1054172613658 33.14247312024236,250.84221074683592 36.40522025898099,257.1579631064087 39.30543993599713,259.6842613145709 42.56818707473576,261.7895086281933 49.818736270070076,262.6316072498448 53.44401086680591,262.21055795950815 59.96950514242053,258.4211124051362 64.3198346607387,252.5264123310335 66.1324719581753,245.36855080304667 66.4949994198978,230.6317375660874 66.857526877895,215.8948711529374 66.4949994198978,209.15800022380427 65.40741704031825,205.3685054415837 60.694560062140226,197.78950533038005 53.80653832666576,195.2631688346155 49.818736270070076,195.68422502558678 43.655769454315305,197.78950533038005 37.49280263856053,202.42111818073317 34.9551104195416,205.3685054415837 33.86752803996205,209.15800022380427 33.14247312024236,223.8948909463361 32.77994566038251,238.63172849221155 32.77994566038251,245.78960182936862 33.14247312024236,249.57905910303816" stroke="#4DD2FF" stroke-dasharray="none" stroke-linecap="round" stroke-linejoin="round" stroke-width="0.5"><title>2025-06-07 10.0km</title><desc>9223370287551093656</desc></polyline></svg>