<svg xmlns="http://www.w3.org/2000/svg" viewBox="0 0 200 300" role="img" aria-labelledby="title desc">
  <title id="title">Cyclist Month of Life</title>
  <desc id="desc">Summary month-of-life view for cycling with 6 rides and 296.0 kilometres total.</desc>
  <rect width="200" height="300" fill="#111827" rx="20"/>
  <rect x="14" y="14" width="172" height="272" fill="#0f172a" stroke="#1f2937" rx="16"/>
  <text x="24" y="36" fill="#f8fafc" font-size="16" font-family="Arial, sans-serif" font-weight="700">Cyclist Month of Life</text>
  <text x="24" y="54" fill="#86efac" font-size="9" font-family="Arial, sans-serif">Summary preview</text>
  <g fill="none" stroke="#4ade80" stroke-width="4" stroke-linecap="round" stroke-linejoin="round" transform="translate(26 80)">
    <circle cx="28" cy="44" r="18"/>
    <circle cx="96" cy="44" r="18"/>
    <path d="M28 44 L50 22 L72 22 L96 44"/>
    <path d="M56 18 L68 10"/>
    <path d="M50 22 L38 44"/>
  </g>
  <g transform="translate(24 136)">
    <circle cx="10" cy="10" r="7" fill="#4ade80"/>
    <circle cx="38" cy="10" r="7" fill="#4ade80"/>
    <circle cx="66" cy="10" r="7" fill="#4ade80"/>
    <circle cx="94" cy="10" r="7" fill="#4ade80"/>
    <circle cx="122" cy="10" r="7" fill="#4ade80"/>
    <circle cx="150" cy="10" r="7" fill="#86efac"/>
    <circle cx="10" cy="34" r="7" fill="#1f2937"/>
    <circle cx="38" cy="34" r="7" fill="#1f2937"/>
    <circle cx="66" cy="34" r="7" fill="#4ade80"/>
    <circle cx="94" cy="34" r="7" fill="#1f2937"/>
    <circle cx="122" cy="34" r="7" fill="#4ade80"/>
    <circle cx="150" cy="34" r="7" fill="#1f2937"/>
  </g>
  <text x="24" y="206" fill="#f8fafc" font-size="11" font-family="Arial, sans-serif">Activities 6</text>
  <text x="24" y="226" fill="#f8fafc" font-size="11" font-family="Arial, sans-serif">Distance 296.0 km</text>
  <text x="24" y="246" fill="#f8fafc" font-size="11" font-family="Arial, sans-serif">Average 49.3 km</text>
  <text x="24" y="266" fill="#cbd5e1" font-size="10" font-family="Arial, sans-serif">Longest 100.1 km  Shortest 16.3 km</text>
</svg>
