<?xml version="1.0" encoding="utf-8" ?>
<svg baseProfile="full" height="200mm" version="1.1" viewBox="0,0,200,200" width="200mm" xmlns="http://www.w3.org/2000/svg" xmlns:ev="http://www.w3.org/2001/xml-events" xmlns:xlink="http://www.w3.org/1999/xlink"><defs /><rect fill="#1a1a1a" height="200" width="200" x="0" y="0" /><rect fill="#1a1a1a" height="200" width="180" x="10" y="0" /><text alignment-baseline="middle" fill="#e1ed5e" style="dominant-baseline: central; font-size:9.0px; font-family:Arial;" text-anchor="middle" x="100.0" y="100.0">2025</text><line stroke="#e1ed5e" stroke-width="0.3" x1="100.0" x2="100.0" y1="15.0" y2="10.0" /><path d="M 100.0 14.0 a86.0,86.0 0 0,1 42.46469731375804,11.215312516191453" fill="none" id="id61" stroke="none" /><text fill="#e1ed5e" style="font-size:6.75px; font-family:Arial;" text-anchor="middle"><textPath startOffset="22.20632615414155" xlink:href="#id61">January</textPath></text><line stroke="#e1ed5e" stroke-width="0.3" x1="143.23703022742887" x2="145.7803849466894" y1="26.81831364943548" y2="22.513508569990506" /><path d="M 143.74570117128098 25.957352633546492 a86.0,86.0 0 0,1 28.547481713284135,27.462654790039103" fill="none" id="id62" stroke="none" /><text fill="#e1ed5e" style="font-size:6.75px; font-family:Arial;" text-anchor="middle"><textPath startOffset="19.985693538727396" xlink:href="#id62">February</textPath></text><line stroke="#e1ed5e" stroke-width="0.3" x1="172.23445277983987" x2="176.4835382374775" y1="55.19839476539836" y2="52.563006222186495" /><path d="M 173.08426987136738 54.67131705675599 a86.0,86.0 0 0,1 12.851231095245387,41.99856678651699" fill="none" id="id63" stroke="none" /><text fill="#e1ed5e" style="font-size:6.75px; font-family:Arial;" text-anchor="middle"><textPath startOffset="22.20632615414155" xlink:href="#id63">March</textPath></text><line stroke="#e1ed5e" stroke-width="0.3" x1="184.98032266829074" x2="189.97916517819016" y1="98.17113171792111" y2="98.06355123074" /><path d="M 185.9800911702706 98.14961562048488 a86.0,86.0 0 0,1 -9.607161424134198,41.387399972396054" fill="none" id="id64" stroke="none" /><text fill="#e1ed5e" style="font-size:6.75px; font-family:Arial;" text-anchor="middle"><textPath startOffset="21.466115282336823" xlink:href="#id64">April</textPath></text><line stroke="#e1ed5e" stroke-width="0.3" x1="174.80103733775053" x2="179.2010983576182" y1="140.37084112569926" y2="142.7455964860345" /><path d="M 175.68104954172406 140.8457921977663 a86.0,86.0 0 0,1 -30.038265399797805,32.042727171017184" fill="none" id="id65" stroke="none" /><text fill="#e1ed5e" style="font-size:6.75px; font-family:Arial;" text-anchor="middle"><textPath startOffset="22.206326154141568" xlink:href="#id65">May</textPath></text><path d="M 115.80600337817218 113.82643327865902 l 2.643110219634096 2.312082708420799 a24.511660303006636,24.511660303006636 0 0,0 -0.28053145877398933,0.31518006782615293 l -2.6029199112117682 -2.3572369459878186" fill="#ff0000" stroke="none" /><path d="M 114.0293411484842 115.62618273729858 l 2.9389937467524616 3.273514619429848 a25.399270644899108,25.399270644899108 0 0,0 -0.3278412637569109,0.28928179781534763 l -2.882210130088963 -3.3236195590174846" fill="#ff0d01" stroke="none" /><path d="M 112.04921762599082 117.19931262002967 l 2.562726952349865 3.6580916190080597 a25.46645314823266,25.46645314823266 0 0,0 -0.361190844917857,0.24843035664846458 l -2.4993792228091247 -3.7016627650216183" fill="#ff0e01" stroke="none" /><line stroke="#e1ed5e" stroke-width="0.3" x1="143.8653032363475" x2="146.44561519142675" y1="172.8068346515853" y2="177.08958963109032" /><path d="M 144.38136562736335 173.6633856474863 a86.0,86.0 0 0,1 -40.68145358897372,12.25698825130547" fill="none" id="id66" stroke="none" /><text fill="#e1ed5e" style="font-size:6.75px; font-family:Arial;" text-anchor="middle"><textPath startOffset="21.466115282336833" xlink:href="#id66">June</textPath></text><path d="M 110.21172684928248 118.3499491758327 l 2.1533519950857687 3.8694630448598586 a25.428280599767362,25.428280599767362 0 0,0 -0.38430267598900747,0.2095524603554958 l -2.0864265072281123 -3.9059561569751247" fill="#ff0e01" stroke="none" /><path d="M 109.89434966115114 118.52300852407294 l 2.0670372922891205 3.8696580064256074 a25.38712847480077,25.38712847480077 0 0,0 -0.3872251528193971,0.20257789856416625 l -2.0001212369432277 -3.9046653239344904" fill="#ff0d01" stroke="none" /><path d="M 109.2508944713604 118.85261126421891 l 1.935543991433562 3.944489753748702 a25.39378310345459,25.39378310345459 0 0,0 -0.394072010712647,0.18917851285872386 l -1.8673593127206822 -3.977222543106986" fill="#ff0d01" stroke="none" /><path d="M 108.92500713936063 119.00905698771935 l 3.7226042158154287 7.928643033693879 a29.75906173647322,29.75906173647322 0 0,0 -0.46556210458879266,0.2137167278374607 l -3.5855741154592162 -7.9915468318654135" fill="#ff4e07" stroke="none" /><path d="M 108.59647513512805 119.15986991738527 l 1.7967824812838482 4.004678437393338 a25.389291135476398,25.389291135476398 0 0,0 -0.40027949428816184,0.17547076716592916 l -1.7275823123379326 -4.035013757853721" fill="#ff0d01" stroke="none" /><path d="M 107.59598834532513 119.57807347666477 l 1.5880065446517182 4.0929642594501825 a25.390230200683476,25.390230200683476 0 0,0 -0.40881871107632894,0.1545802553025167 l -1.5173176128151145 -4.11969276485933" fill="#ff0d01" stroke="none" /><path d="M 101.98527174616119 120.90594882070398 l 0.4151525849701019 4.371773643054315 a25.391441273080144,25.391441273080144 0 0,0 -0.43547008834436934,0.03757419158492248 l -0.3398381788841908 -4.378272086917901" fill="#ff0d01" stroke="none" /><line stroke="#e1ed5e" stroke-width="0.3" x1="102.19456741930631" x2="102.32365962044197" y1="184.97166512339345" y2="189.96999836594603" /><path d="M 102.22038585953345 185.97133177190398 a86.0,86.0 0 0,1 -42.740103519485714,-10.115201625700543" fill="none" id="id67" stroke="none" /><text fill="#e1ed5e" style="font-size:6.75px; font-family:Arial;" text-anchor="middle"><textPath startOffset="22.20632615414155" xlink:href="#id67">July</textPath></text><path d="M 98.73552117531835 120.96189622390904 l -0.2663591640298212 4.415568727365584 a25.42359518834529,25.42359518834529 0 0,0 -0.43660453237137725,-0.030110804794378776 l 0.3423264571801285 -4.41032957805492" fill="#ff0e01" stroke="none" /><line stroke="#e1ed5e" stroke-width="0.3" x1="58.666819895761336" x2="56.23545636021788" y1="174.27360380694188" y2="178.64263932499728" /><path d="M 58.180547188652646 175.14741091055294 a86.0,86.0 0 0,1 -31.652253787137756,-30.449443065178592" fill="none" id="id68" stroke="none" /><text fill="#e1ed5e" style="font-size:6.75px; font-family:Arial;" text-anchor="middle"><textPath startOffset="22.20632615414155" xlink:href="#id68">August</textPath></text><line stroke="#e1ed5e" stroke-width="0.3" x1="26.63291911575756" x2="22.317208475507996" y1="142.92168965132927" y2="145.44649492493687" /><path d="M 25.769776987707644 143.4266507060508 a86.0,86.0 0 0,1 -11.730757126820373,-40.83630448921669" fill="none" id="id69" stroke="none" /><text fill="#e1ed5e" style="font-size:6.75px; font-family:Arial;" text-anchor="middle"><textPath startOffset="21.46611528233685" xlink:href="#id69">September</textPath></text><path d="M 81.02952815118164 109.00673069616217 l -4.0055719053846675 1.901750664054254 a25.434102150090563,25.434102150090563 0 0,0 -0.1843674259586916,-0.3971110334188158 l 4.037713948183186 -1.8325195633566111" fill="#ff0e01" stroke="none" /><path d="M 79.07016306316243 101.71520430193888 l -62.78951081051271 5.145612905816642 a84.0,84.0 0 0,0 -0.10569376534265862,-1.4421074540129575 l 62.86878113451971 -4.064032315306924" fill="#4dd2ff" stroke="none" /><line stroke="#e1ed5e" stroke-width="0.3" x1="15.007084014347285" x2="10.007500721073583" y1="101.09737516637583" y2="101.16192664675087" /><path d="M 14.007167355692545 101.11028546245083 a86.0,86.0 0 0,1 10.666146001902534,-42.60595125391555" fill="none" id="id70" stroke="none" /><text fill="#e1ed5e" style="font-size:6.75px; font-family:Arial;" text-anchor="middle"><textPath startOffset="22.20632615414155" xlink:href="#id70">October</textPath></text><path d="M 79.00175016825051 100.2711162175752 l -4.448734538517519 0.057439267117175376 a25.44910533294118,25.44910533294118 0 0,0 -0.0018852972450561863,-0.43807668409783496 l 4.449064133052079 0.019146895184334982" fill="#ff0e01" stroke="none" /><path d="M 79.00019446554 99.90962569577889 l -4.465906561991589 -0.019219377893486937 a25.46594791784747,25.46594791784747 0 0,0 0.00565949512729622,-0.4383341345915371 l 4.464914059746577 0.09608977054549599" fill="#ff0e01" stroke="none" /><line stroke="#e1ed5e" stroke-width="0.3" x1="26.266209847984243" x2="21.928928074336255" y1="57.711370442889674" y2="55.22380399835377" /><path d="M 25.398753493254645 57.213857153982495 a86.0,86.0 0 0,1 29.58750427330803,-30.492523968695096" fill="none" id="id71" stroke="none" /><text fill="#e1ed5e" style="font-size:6.75px; font-family:Arial;" text-anchor="middle"><textPath startOffset="21.46611528233685" xlink:href="#id71">November</textPath></text><path d="M 82.54541684631803 88.32363383020206 l -3.698684647160775 -2.474261109910777 a25.449970354863023,25.449970354863023 0 0,0 0.24671387208123605,-0.36202216438638096 l 3.6555463094107985 2.537561297567574" fill="#ff0e01" stroke="none" /><path d="M 84.5562425177563 85.77008943001954 l -3.239846527127701 -2.9852013925040644 a25.405454899683985,25.405454899683985 0 0,0 0.299098031019413,-0.3190569254843836 l 3.187981174137832 3.0405277348664983" fill="#ff0e01" stroke="none" /><line stroke="#e1ed5e" stroke-width="0.3" x1="56.762969772571076" x2="54.21961505331055" y1="26.818313649435495" y2="22.513508569990535" /><path d="M 56.25429882871897 25.957352633546506 a86.0,86.0 0 0,1 42.265352541879196,-11.944610805530505" fill="none" id="id72" stroke="none" /><text fill="#e1ed5e" style="font-size:6.75px; font-family:Arial;" text-anchor="middle"><textPath startOffset="22.20632615414155" xlink:href="#id72">December</textPath></text></svg>