<?xml version="1.0" encoding="utf-8" ?>
<svg baseProfile="full" height="200mm" version="1.1" viewBox="0,0,200,200" width="200mm" xmlns="http://www.w3.org/2000/svg" xmlns:ev="http://www.w3.org/2001/xml-events" xmlns:xlink="http://www.w3.org/1999/xlink"><defs /><rect fill="#1a1a1a" height="200" width="200" x="0" y="0" /><rect fill="#1a1a1a" height="200" width="180" x="10" y="0" /><text alignment-baseline="middle" fill="#e1ed5e" style="dominant-baseline: central; font-size:9.0px; font-family:Arial;" text-anchor="middle" x="100.0" y="100.0">2025</text><line stroke="#e1ed5e" stroke-width="0.3" x1="100.0" x2="100.0" y1="15.0" y2="10.0" /><path d="M 100.0 14.0 a86.0,86.0 0 0,1 42.46469731375804,11.215312516191453" fill="none" id="id61" stroke="none" /><text fill="#e1ed5e" style="font-size:6.75px; font-family:Arial;" text-anchor="middle"><textPath startOffset="22.20632615414155" xlink:href="#id61">January</textPath></text><line stroke="#e1ed5e" stroke-width="0.3" x1="143.23703022742887" x2="145.7803849466894" y1="26.81831364943548" y2="22.513508569990506" /><path d="M 143.74570117128098 25.957352633546492 a86.0,86.0 0 0,1 28.547481713284135,27.462654790039103" fill="none" id="id62" stroke="none" /><text fill="#e1ed5e" style="font-size:6.75px; font-family:Arial;" text-anchor="middle"><textPath startOffset="19.985693538727396" xlink:href="#id62">February</textPath></text><line stroke="#e1ed5e" stroke-width="0.3" x1="172.23445277983987" x2="176.4835382374775" y1="55.19839476539836" y2="52.563006222186495" /><path d="M 173.08426987136738 54.67131705675599 a86.0,86.0 0 0,1 12.851231095245387,41.99856678651699" fill="none" id="id63" stroke="none" /><text fill="#e1ed5e" style="font-size:6.75px; font-family:Arial;" text-anchor="middle"><textPath startOffset="22.20632615414155" xlink:href="#id63">March</textPath></text><line stroke="#e1ed5e" stroke-width="0.3" x1="184.98032266829074" x2="189.97916517819016" y1="98.17113171792111" y2="98.06355123074" /><path d="M 185.9800911702706 98.14961562048488 a86.0,86.0 0 0,1 -9.607161424134198,41.387399972396054" fill="none" id="id64" stroke="none" /><text fill="#e1ed5e" style="font-size:6.75px; font-family:Arial;" text-anchor="middle"><textPath startOffset="21.466115282336823" xlink:href="#id64">April</textPath></text><line stroke="#e1ed5e" stroke-width="0.3" x1="174.80103733775053" x2="179.2010983576182" y1="140.37084112569926" y2="142.7455964860345" /><path d="M 175.68104954172406 140.8457921977663 a86.0,86.0 0 0,1 -30.038265399797805,32.042727171017184" fill="none" id="id65" stroke="none" /><text fill="#e1ed5e" style="font-size:6.75px; font-family:Arial;" text-anchor="middle"><textPath startOffset="22.206326154141568" xlink:href="#id65">May</textPath></text><path d="M 115.80600337817218 113.82643327865902 l 2.643110219634096 2.312082708420799 a24.511660303006636,24.511660303006636 0 0,0 -0.28053145877398933,0.31518006782615293 l -2.6029199112117682 -2.3572369459878186" fill="#ff1302" stroke="none" /><path d="M 114.0293411484842 115.62618273729858 l 1.4782777833597762 1.646537676629551 a23.212779140659034,23.212779140659034 0 0,0 -0.29961910935076563,0.2643790278855513 l -1.4497163211024229 -1.6717398462873911" fill="#ff0000" stroke="none" /><path d="M 112.04921762599082 117.19931262002967 l 1.292015007400968 1.844250034469095 a23.251790613931185,23.251790613931185 0 0,0 -0.32978027402617455,0.22682587957228836 l -1.2600778487519102 -1.8662167034064776" fill="#ff0100" stroke="none" /><line stroke="#e1ed5e" stroke-width="0.3" x1="143.8653032363475" x2="146.44561519142675" y1="172.8068346515853" y2="177.08958963109032" /><path d="M 144.38136562736335 173.6633856474863 a86.0,86.0 0 0,1 -40.68145358897372,12.25698825130547" fill="none" id="id66" stroke="none" /><text fill="#e1ed5e" style="font-size:6.75px; font-family:Arial;" text-anchor="middle"><textPath startOffset="21.466115282336833" xlink:href="#id66">June</textPath></text><path d="M 110.21172684928248 118.3499491758327 l 1.088840535393729 1.9565905727751876 a23.239156176105016,23.239156176105016 0 0,0 -0.35121800198654934,0.19151205816617325 l -1.054999721538531 -1.9750432827011313" fill="#ff0000" stroke="none" /><path d="M 109.89434966115114 118.52300852407294 l 1.0425719305039058 1.951777470681812 a23.212779140659034,23.212779140659034 0 0,0 -0.35406020649506115,0.18522756611943772 l -1.008820821482349 -1.9694344557459667" fill="#ff0000" stroke="none" /><path d="M 109.2508944713604 118.85261126421891 l 1.935543991433562 3.944489753748702 a25.39378310345459,25.39378310345459 0 0,0 -0.394072010712647,0.18917851285872386 l -1.8673593127206822 -3.977222543106986" fill="#ff2003" stroke="none" /><path d="M 108.92500713936063 119.00905698771935 l 1.8808637741152543 4.005985217716596 a25.42555828131807,25.42555828131807 0 0,0 -0.39776712480446247,0.18259537775225312 l -1.8116286535433723 -4.037767665802924" fill="#ff2103" stroke="none" /><path d="M 108.59647513512805 119.15986991738527 l 0.9058143267716855 2.01888383290146 a23.212779140659034,23.212779140659034 0 0,0 -0.3659652979622838,0.16042843189793887 l -0.8709283541516479 -2.0341768180938535" fill="#ff0000" stroke="none" /><path d="M 107.59598834532513 119.57807347666477 l 0.8003925982487894 2.0629501239739865 a23.212779140659034,23.212779140659034 0 0,0 -0.3737586612557875,0.14132354442959782 l -0.7647637162327271 -2.076421918510215" fill="#ff0000" stroke="none" /><path d="M 101.98527174616119 120.90594882070398 l 0.20918894802120094 2.2028689269590047 a23.212779140659034,23.212779140659034 0 0,0 -0.39810544326280783,0.03435021278505831 l -0.17123918701685142 -2.2061433920227262" fill="#ff0000" stroke="none" /><line stroke="#e1ed5e" stroke-width="0.3" x1="102.19456741930631" x2="102.32365962044197" y1="184.97166512339345" y2="189.96999836594603" /><path d="M 102.22038585953345 185.97133177190398 a86.0,86.0 0 0,1 -42.740103519485714,-10.115201625700543" fill="none" id="id67" stroke="none" /><text fill="#e1ed5e" style="font-size:6.75px; font-family:Arial;" text-anchor="middle"><textPath startOffset="22.20632615414155" xlink:href="#id67">July</textPath></text><path d="M 98.73552117531835 120.96189622390904 l -0.13443021105032169 2.228516665041413 a23.232567581958122,23.232567581958122 0 0,0 -0.3989775729892527,-0.0275158293762183 l 0.1727705448185044 -2.22587249114891" fill="#ff0000" stroke="none" /><line stroke="#e1ed5e" stroke-width="0.3" x1="58.666819895761336" x2="56.23545636021788" y1="174.27360380694188" y2="178.64263932499728" /><path d="M 58.180547188652646 175.14741091055294 a86.0,86.0 0 0,1 -31.652253787137756,-30.449443065178592" fill="none" id="id68" stroke="none" /><text fill="#e1ed5e" style="font-size:6.75px; font-family:Arial;" text-anchor="middle"><textPath startOffset="22.20632615414155" xlink:href="#id68">August</textPath></text><line stroke="#e1ed5e" stroke-width="0.3" x1="26.63291911575756" x2="22.317208475507996" y1="142.92168965132927" y2="145.44649492493687" /><path d="M 25.769776987707644 143.4266507060508 a86.0,86.0 0 0,1 -11.730757126820373,-40.83630448921669" fill="none" id="id69" stroke="none" /><text fill="#e1ed5e" style="font-size:6.75px; font-family:Arial;" text-anchor="middle"><textPath startOffset="21.46611528233685" xlink:href="#id69">September</textPath></text><path d="M 81.02952815118164 109.00673069616217 l -2.025835470096875 0.9618186969362151 a23.2425665113166,23.2425665113166 0 0,0 -0.1684813615624277,-0.3628938639998987 l 2.0420914484991295 -0.9268047656574894" fill="#ff0000" stroke="none" /><path d="M 79.07016306316243 101.71520430193888 l -62.78951081051271 5.145612905816642 a84.0,84.0 0 0,0 -0.10569376534265862,-1.4421074540129575 l 62.86878113451971 -4.064032315306924" fill="#4dd2ff" stroke="none" /><line stroke="#e1ed5e" stroke-width="0.3" x1="15.007084014347285" x2="10.007500721073583" y1="101.09737516637583" y2="101.16192664675087" /><path d="M 14.007167355692545 101.11028546245083 a86.0,86.0 0 0,1 10.666146001902534,-42.60595125391555" fill="none" id="id70" stroke="none" /><text fill="#e1ed5e" style="font-size:6.75px; font-family:Arial;" text-anchor="middle"><textPath startOffset="22.20632615414155" xlink:href="#id70">October</textPath></text><path d="M 79.00175016825051 100.2711162175752 l -2.2509145199495366 0.02906239499118202 a23.25110212982936,23.25110212982936 0 0,0 -0.0017224667907341808,-0.4002406210119833 l 2.251081284029774 0.009687704224476677" fill="#ff0100" stroke="none" /><path d="M 79.00019446554 99.90962569577889 l -2.234111991986299 -0.009614675550042645 a23.234132680644308,23.234132680644308 0 0,0 0.00516350151650569,-0.3999188828316747 l 2.2336154833520774 0.048069816442189314" fill="#ff0000" stroke="none" /><line stroke="#e1ed5e" stroke-width="0.3" x1="26.266209847984243" x2="21.928928074336255" y1="57.711370442889674" y2="55.22380399835377" /><path d="M 25.398753493254645 57.213857153982495 a86.0,86.0 0 0,1 29.58750427330803,-30.492523968695096" fill="none" id="id71" stroke="none" /><text fill="#e1ed5e" style="font-size:6.75px; font-family:Arial;" text-anchor="middle"><textPath startOffset="21.46611528233685" xlink:href="#id71">November</textPath></text><path d="M 82.54541684631803 88.32363383020206 l -1.8694920570322278 -1.2506098608738392 a23.249227773130475,23.249227773130475 0 0,0 0.2253797127001999,-0.3307169179917088 l 1.8476878786632875 1.2826048021359637" fill="#ff0100" stroke="none" /><path d="M 84.5562425177563 85.77008943001954 l -1.6273154481002736 -1.4994118706045845 a23.212779140659034,23.212779140659034 0 0,0 0.2732836929263558,-0.2915199894593829 l 1.6012644332034618 1.5272012769420176" fill="#ff0000" stroke="none" /><line stroke="#e1ed5e" stroke-width="0.3" x1="56.762969772571076" x2="54.21961505331055" y1="26.818313649435495" y2="22.513508569990535" /><path d="M 56.25429882871897 25.957352633546506 a86.0,86.0 0 0,1 42.265352541879196,-11.944610805530505" fill="none" id="id72" stroke="none" /><text fill="#e1ed5e" style="font-size:6.75px; font-family:Arial;" text-anchor="middle"><textPath startOffset="22.20632615414155" xlink:href="#id72">December</textPath></text></svg>