<?xml version="1.0" encoding="utf-8" ?>
<svg baseProfile="full" height="200mm" version="1.1" viewBox="0,0,200,200" width="200mm" xmlns="http://www.w3.org/2000/svg" xmlns:ev="http://www.w3.org/2001/xml-events" xmlns:xlink="http://www.w3.org/1999/xlink"><defs /><rect fill="#1a1a1a" height="200" width="200" x="0" y="0" /><rect fill="#1a1a1a" height="200" width="180" x="10" y="0" /><text alignment-baseline="middle" fill="#e1ed5e" style="dominant-baseline: central; font-size:9.0px; font-family:Arial;" text-anchor="middle" x="100.0" y="100.0">2025</text><line stroke="#e1ed5e" stroke-width="0.3" x1="100.0" x2="100.0" y1="15.0" y2="10.0" /><path d="M 100.0 14.0 a86.0,86.0 0 0,1 42.46469731375804,11.215312516191453" fill="none" id="id61" stroke="none" /><text fill="#e1ed5e" style="font-size:6.75px; font-family:Arial;" text-anchor="middle"><textPath startOffset="22.20632615414155" xlink:href="#id61">January</textPath></text><line stroke="#e1ed5e" stroke-width="0.3" x1="143.23703022742887" x2="145.7803849466894" y1="26.81831364943548" y2="22.513508569990506" /><path d="M 143.74570117128098 25.957352633546492 a86.0,86.0 0 0,1 28.547481713284135,27.462654790039103" fill="none" id="id62" stroke="none" /><text fill="#e1ed5e" style="font-size:6.75px; font-family:Arial;" text-anchor="middle"><textPath startOffset="19.985693538727396" xlink:href="#id62">February</textPath></text><line stroke="#e1ed5e" stroke-width="0.3" x1="172.23445277983987" x2="176.4835382374775" y1="55.19839476539836" y2="52.563006222186495" /><path d="M 173.08426987136738 54.67131705675599 a86.0,86.0 0 0,1 12.851231095245387,41.99856678651699" fill="none" id="id63" stroke="none" /><text fill="#e1ed5e" style="font-size:6.75px; font-family:Arial;" text-anchor="middle"><textPath startOffset="22.20632615414155" xlink:href="#id63">March</textPath></text><line stroke="#e1ed5e" stroke-width="0.3" x1="184.98032266829074" x2="189.97916517819016" y1="98.17113171792111" y2="98.06355123074" /><path d="M 185.9800911702706 98.14961562048488 a86.0,86.0 0 0,1 -9.607161424134198,41.387399972396054" fill="none" id="id64" stroke="none" /><text fill="#e1ed5e" style="font-size:6.75px; font-family:Arial;" text-anchor="middle"><textPath startOffset="21.466115282336823" xlink:href="#id64">April</textPath></text><line stroke="#e1ed5e" stroke-width="0.3" x1="174.80103733775053" x2="179.2010983576182" y1="140.37084112569926" y2="142.7455964860345" /><path d="M 175.68104954172406 140.8457921977663 a86.0,86.0 0 0,1 -30.038265399797805,32.042727171017184" fill="none" id="id65" stroke="none" /><text fill="#e1ed5e" style="font-size:6.75px; font-family:Arial;" text-anchor="middle"><textPath startOffset="22.206326154141568" xlink:href="#id65">May</textPath></text><path d="M 115.80600337817218 113.82643327865902 l 4.0739055161571 3.563682827025998 a26.412627961186253,26.412627961186253 0 0,0 -0.3022876851429509,0.33962341878785346 l -4.011958981365811 -3.633280415554718" fill="#ff0100" stroke="none" /><path d="M 114.0293411484842 115.62618273729858 l 3.5559356223807845 3.9606777858841404 a26.32274803781963,26.32274803781963 0 0,0 -0.3397610546744821,0.29979962740977845 l -3.4872322147997146 -4.021300555066207" fill="#ff0000" stroke="none" /><path d="M 112.04921762599082 117.19931262002967 l 3.107888274574392 4.436266625911658 a26.41658851154623,26.41658851154623 0 0,0 -0.3746666199959181,0.25769911762583253 l -3.0310647699555906 -4.489106532902586" fill="#ff0100" stroke="none" /><line stroke="#e1ed5e" stroke-width="0.3" x1="143.8653032363475" x2="146.44561519142675" y1="172.8068346515853" y2="177.08958963109032" /><path d="M 144.38136562736335 173.6633856474863 a86.0,86.0 0 0,1 -40.68145358897372,12.25698825130547" fill="none" id="id66" stroke="none" /><text fill="#e1ed5e" style="font-size:6.75px; font-family:Arial;" text-anchor="middle"><textPath startOffset="21.466115282336833" xlink:href="#id66">June</textPath></text><path d="M 110.21172684928248 118.3499491758327 l 2.6191605464697765 4.706497110666797 a26.38619689770981,26.38619689770981 0 0,0 -0.3987798560416821,0.21744657322171548 l -2.5377578785594457 -4.750884335648283" fill="#ff0100" stroke="none" /><path d="M 109.89434966115114 118.52300852407294 l 2.507863344971121 4.694919394096449 a26.32274803781963,26.32274803781963 0 0,0 -0.4014959841436411,0.2100437230318691 l -2.426676458300984 -4.737392536073036" fill="#ff0000" stroke="none" /><path d="M 109.2508944713604 118.85261126421891 l 2.3447704950242856 4.778461886399877 a26.32274803781963,26.32274803781963 0 0,0 -0.4084881013784356,0.19609911244268943 l -2.2621697256456175 -4.818115275342127" fill="#ff0000" stroke="none" /><path d="M 108.92500713936063 119.00905698771935 l 4.524339451291235 9.636230550684253 a31.645496075639258,31.645496075639258 0 0,0 -0.4950742024125728,0.2272642844713671 l -4.357797253111243 -9.712681905489696" fill="#ff5207" stroke="none" /><path d="M 108.59647513512805 119.15986991738527 l 2.1788986265556214 4.856340952744848 a26.32274803781963,26.32274803781963 0 0,0 -0.4149960791197742,0.18192208547554628 l -2.094981872778093 -4.893127591514848" fill="#ff0000" stroke="none" /><path d="M 107.59598834532513 119.57807347666477 l 1.9253110504942905 4.962340580105046 a26.32274803781963,26.32274803781963 0 0,0 -0.4238335706195648,0.16025759041130894 l -1.8396072591144508 -4.9947464206229855" fill="#ff0000" stroke="none" /><path d="M 101.98527174616119 120.90594882070398 l 0.5031952995913441 5.298909431626652 a26.32274803781963,26.32274803781963 0 0,0 -0.4514422513561154,0.03895233701693288 l -0.41190873049368704 -5.306786020922249" fill="#ff0000" stroke="none" /><line stroke="#e1ed5e" stroke-width="0.3" x1="102.19456741930631" x2="102.32365962044197" y1="184.97166512339345" y2="189.96999836594603" /><path d="M 102.22038585953345 185.97133177190398 a86.0,86.0 0 0,1 -42.740103519485714,-10.115201625700543" fill="none" id="id67" stroke="none" /><text fill="#e1ed5e" style="font-size:6.75px; font-family:Arial;" text-anchor="middle"><textPath startOffset="22.20632615414155" xlink:href="#id67">July</textPath></text><path d="M 98.73552117531835 120.96189622390904 l -0.3233662722790619 5.360603997091501 a26.370348308972243,26.370348308972243 0 0,0 -0.4528633148307505,-0.03123210562506285 l 0.4155923478887424 -5.354243546950153" fill="#ff0100" stroke="none" /><line stroke="#e1ed5e" stroke-width="0.3" x1="58.666819895761336" x2="56.23545636021788" y1="174.27360380694188" y2="178.64263932499728" /><path d="M 58.180547188652646 175.14741091055294 a86.0,86.0 0 0,1 -31.652253787137756,-30.449443065178592" fill="none" id="id68" stroke="none" /><text fill="#e1ed5e" style="font-size:6.75px; font-family:Arial;" text-anchor="middle"><textPath startOffset="22.20632615414155" xlink:href="#id68">August</textPath></text><line stroke="#e1ed5e" stroke-width="0.3" x1="26.63291911575756" x2="22.317208475507996" y1="142.92168965132927" y2="145.44649492493687" /><path d="M 25.769776987707644 143.4266507060508 a86.0,86.0 0 0,1 -11.730757126820373,-40.83630448921669" fill="none" id="id69" stroke="none" /><text fill="#e1ed5e" style="font-size:6.75px; font-family:Arial;" text-anchor="middle"><textPath startOffset="21.46611528233685" xlink:href="#id69">September</textPath></text><path d="M 81.02952815118164 109.00673069616217 l -4.873062826411147 2.313614805827715 a26.3944003169857,26.3944003169857 0 0,0 -0.1913284619779118,-0.41210448572137975 l 4.9121659052288855 -2.2293902528275082" fill="#ff0100" stroke="none" /><path d="M 79.07016306316243 101.71520430193888 l -62.78951081051271 5.145612905816642 a84.0,84.0 0 0,0 -0.10569376534265862,-1.4421074540129575 l 62.86878113451971 -4.064032315306924" fill="#4dd2ff" stroke="none" /><line stroke="#e1ed5e" stroke-width="0.3" x1="15.007084014347285" x2="10.007500721073583" y1="101.09737516637583" y2="101.16192664675087" /><path d="M 14.007167355692545 101.11028546245083 a86.0,86.0 0 0,1 10.666146001902534,-42.60595125391555" fill="none" id="id70" stroke="none" /><text fill="#e1ed5e" style="font-size:6.75px; font-family:Arial;" text-anchor="middle"><textPath startOffset="22.20632615414155" xlink:href="#id70">October</textPath></text><path d="M 79.00175016825051 100.2711162175752 l -5.4144811039717125 0.06990838040328826 a26.41493239172174,26.41493239172174 0 0,0 -0.001956846758066484,-0.45470227111895856 l 5.414882248019282 0.023303368919345663" fill="#ff0100" stroke="none" /><path d="M 79.00019446554 99.90962569577889 l -5.374063322954447 -0.02312770148539086 a26.374113088659392,26.374113088659392 0 0,0 0.005861323717206595,-0.4539659813030051 l 5.372868992119525 0.11562994084886792" fill="#ff0100" stroke="none" /><line stroke="#e1ed5e" stroke-width="0.3" x1="26.266209847984243" x2="21.928928074336255" y1="57.711370442889674" y2="55.22380399835377" /><path d="M 25.398753493254645 57.213857153982495 a86.0,86.0 0 0,1 29.58750427330803,-30.492523968695096" fill="none" id="id71" stroke="none" /><text fill="#e1ed5e" style="font-size:6.75px; font-family:Arial;" text-anchor="middle"><textPath startOffset="21.46611528233685" xlink:href="#id71">November</textPath></text><path d="M 82.54541684631803 88.32363383020206 l -4.496985259597121 -3.0082899195540747 a26.410423704768828,26.410423704768828 0 0,0 0.2560245770292038,-0.37568447501687685 l 4.444536216899177 3.085252417841367" fill="#ff0100" stroke="none" /><path d="M 84.5562425177563 85.77008943001954 l -3.9144395159607086 -3.606772788795824 a26.32274803781963,26.32274803781963 0 0,0 0.30989730907081303,-0.3305768423517301 l 3.8517748849194398 3.6736190480256044" fill="#ff0000" stroke="none" /><line stroke="#e1ed5e" stroke-width="0.3" x1="56.762969772571076" x2="54.21961505331055" y1="26.818313649435495" y2="22.513508569990535" /><path d="M 56.25429882871897 25.957352633546506 a86.0,86.0 0 0,1 42.265352541879196,-11.944610805530505" fill="none" id="id72" stroke="none" /><text fill="#e1ed5e" style="font-size:6.75px; font-family:Arial;" text-anchor="middle"><textPath startOffset="22.20632615414155" xlink:href="#id72">December</textPath></text></svg>