<?xml version="1.0" encoding="utf-8" ?>
<svg baseProfile="full" height="200mm" version="1.1" viewBox="0,0,200,200" width="200mm" xmlns="http://www.w3.org/2000/svg" xmlns:ev="http://www.w3.org/2001/xml-events" xmlns:xlink="http://www.w3.org/1999/xlink"><defs /><rect fill="#1a1a1a" height="200" width="200" x="0" y="0" /><rect fill="#1a1a1a" height="200" width="180" x="10" y="0" /><text alignment-baseline="middle" fill="#e1ed5e" style="dominant-baseline: central; font-size:9.0px; font-family:Arial;" text-anchor="middle" x="100.0" y="100.0">2025</text><line stroke="#e1ed5e" stroke-width="0.3" x1="100.0" x2="100.0" y1="15.0" y2="10.0" /><path d="M 100.0 14.0 a86.0,86.0 0 0,1 42.46469731375804,11.215312516191453" fill="none" id="id61" stroke="none" /><text fill="#e1ed5e" style="font-size:6.75px; font-family:Arial;" text-anchor="middle"><textPath startOffset="22.20632615414155" xlink:href="#id61">January</textPath></text><line stroke="#e1ed5e" stroke-width="0.3" x1="143.23703022742887" x2="145.7803849466894" y1="26.81831364943548" y2="22.513508569990506" /><path d="M 143.74570117128098 25.957352633546492 a86.0,86.0 0 0,1 28.547481713284135,27.462654790039103" fill="none" id="id62" stroke="none" /><text fill="#e1ed5e" style="font-size:6.75px; font-family:Arial;" text-anchor="middle"><textPath startOffset="19.985693538727396" xlink:href="#id62">February</textPath></text><line stroke="#e1ed5e" stroke-width="0.3" x1="172.23445277983987" x2="176.4835382374775" y1="55.19839476539836" y2="52.563006222186495" /><path d="M 173.08426987136738 54.67131705675599 a86.0,86.0 0 0,1 12.851231095245387,41.99856678651699" fill="none" id="id63" stroke="none" /><text fill="#e1ed5e" style="font-size:6.75px; font-family:Arial;" text-anchor="middle"><textPath startOffset="22.20632615414155" xlink:href="#id63">March</textPath></text><line stroke="#e1ed5e" stroke-width="0.3" x1="184.98032266829074" x2="189.97916517819016" y1="98.17113171792111" y2="98.06355123074" /><path d="M 185.9800911702706 98.14961562048488 a86.0,86.0 0 0,1 -9.607161424134198,41.387399972396054" fill="none" id="id64" stroke="none" /><text fill="#e1ed5e" style="font-size:6.75px; font-family:Arial;" text-anchor="middle"><textPath startOffset="21.466115282336823" xlink:href="#id64">April</textPath></text><line stroke="#e1ed5e" stroke-width="0.3" x1="174.80103733775053" x2="179.2010983576182" y1="140.37084112569926" y2="142.7455964860345" /><path d="M 175.68104954172406 140.8457921977663 a86.0,86.0 0 0,1 -30.038265399797805,32.042727171017184" fill="none" id="id65" stroke="none" /><text fill="#e1ed5e" style="font-size:6.75px; font-family:Arial;" text-anchor="middle"><textPath startOffset="22.206326154141568" xlink:href="#id65">May</textPath></text><path d="M 115.80600337817218 113.82643327865902 l 24.109355326823994 21.089859646503694 a53.031909000000006,53.031909000000006 0 0,0 -0.6069404768764116,0.6819040599024675 l -23.74275600029924 -21.50173787614703" fill="red" stroke="none" /><path d="M 114.0293411484842 115.62618273729858 l 21.044011722726303 23.439274105947863 a52.5,52.5 0 0,0 -0.6776441177335307,0.5979421455692779 l -20.637425252086185 -23.79803939328943" fill="red" stroke="none" /><path d="M 112.04921762599082 117.19931262002967 l 18.39246944501168 26.253806816198715 a53.055347520000005,53.055347520000005 0 0,0 -0.7524842853701136,0.5175655529956041 l -17.93782827501868 -26.566513158559417" fill="red" stroke="none" /><line stroke="#e1ed5e" stroke-width="0.3" x1="143.8653032363475" x2="146.44561519142675" y1="172.8068346515853" y2="177.08958963109032" /><path d="M 144.38136562736335 173.6633856474863 a86.0,86.0 0 0,1 -40.68145358897372,12.25698825130547" fill="none" id="id66" stroke="none" /><text fill="#e1ed5e" style="font-size:6.75px; font-family:Arial;" text-anchor="middle"><textPath startOffset="21.466115282336833" xlink:href="#id66">June</textPath></text><path d="M 110.21172684928248 118.3499491758327 l 15.500180851617793 27.853029662988536 a52.87549008,52.87549008 0 0,0 -0.7991178267932171,0.4357427548155962 l -15.018440212955928 -28.115713069563906" fill="red" stroke="none" /><path d="M 109.89434966115114 118.52300852407294 l 14.841524491726709 27.78451278610939 a52.5,52.5 0 0,0 -0.800772743683761,0.41892645263820805 l -14.361060845516452 -28.035868657692316" fill="red" stroke="none" /><path d="M 109.2508944713604 118.85261126421891 l 13.876341707040593 28.27891689632836 a52.5,52.5 0 0,0 -0.8147183299994182,0.39111430875109987 l -13.387510709040942 -28.51358548157902" fill="red" stroke="none" /><path d="M 108.92500713936063 119.00905698771935 l 26.775021418081884 57.02717096315804 a84.0,84.0 0 0,0 -1.3141280169303222,0.6032517186637025 l -25.789425405384144 -57.479609752155824" fill="red" stroke="none" /><path d="M 108.59647513512805 119.15986991738527 l 12.894712702692072 28.739804876077912 a52.5,52.5 0 0,0 -0.8276983133556155,0.36283861676386364 l -12.398093714678701 -28.95750804613623" fill="red" stroke="none" /><path d="M 107.59598834532513 119.57807347666477 l 11.393982517987693 29.367110214997165 a52.5,52.5 0 0,0 -0.845324448099313,0.3196293747334228 l -10.886787849128105 -29.55888783983722" fill="red" stroke="none" /><path d="M 101.98527174616119 120.90594882070398 l 2.9779076192417864 31.35892323105597 a52.5,52.5 0 0,0 -0.9003892056461458,0.07768936930334147 l -2.4376740958540988 -31.405536852637976" fill="red" stroke="none" /><line stroke="#e1ed5e" stroke-width="0.3" x1="102.19456741930631" x2="102.32365962044197" y1="184.97166512339345" y2="189.96999836594603" /><path d="M 102.22038585953345 185.97133177190398 a86.0,86.0 0 0,1 -42.740103519485714,-10.115201625700543" fill="none" id="id67" stroke="none" /><text fill="#e1ed5e" style="font-size:6.75px; font-family:Arial;" text-anchor="middle"><textPath startOffset="22.20632615414155" xlink:href="#id67">July</textPath></text><path d="M 98.73552117531835 120.96189622390904 l -1.9136802088725169 31.72403140419031 a52.7816982,52.7816982 0 0,0 -0.9064307581070341,-0.06251277207027675 l 2.459473727758481 -31.686390287603746" fill="red" stroke="none" /><line stroke="#e1ed5e" stroke-width="0.3" x1="58.666819895761336" x2="56.23545636021788" y1="174.27360380694188" y2="178.64263932499728" /><path d="M 58.180547188652646 175.14741091055294 a86.0,86.0 0 0,1 -31.652253787137756,-30.449443065178592" fill="none" id="id68" stroke="none" /><text fill="#e1ed5e" style="font-size:6.75px; font-family:Arial;" text-anchor="middle"><textPath startOffset="22.20632615414155" xlink:href="#id68">August</textPath></text><line stroke="#e1ed5e" stroke-width="0.3" x1="26.63291911575756" x2="22.317208475507996" y1="142.92168965132927" y2="145.44649492493687" /><path d="M 25.769776987707644 143.4266507060508 a86.0,86.0 0 0,1 -11.730757126820373,-40.83630448921669" fill="none" id="id69" stroke="none" /><text fill="#e1ed5e" style="font-size:6.75px; font-family:Arial;" text-anchor="middle"><textPath startOffset="21.46611528233685" xlink:href="#id69">September</textPath></text><path d="M 81.02952815118164 109.00673069616217 l -28.83876485253101 13.69196247234475 a52.92403788,52.92403788 0 0,0 -0.3836372354603108,-0.8263204752108193 l 29.070176704831148 -13.193521929855104" fill="red" stroke="none" /><line stroke="#e1ed5e" stroke-width="0.3" x1="15.007084014347285" x2="10.007500721073583" y1="101.09737516637583" y2="101.16192664675087" /><path d="M 14.007167355692545 101.11028546245083 a86.0,86.0 0 0,1 10.666146001902534,-42.60595125391555" fill="none" id="id70" stroke="none" /><text fill="#e1ed5e" style="font-size:6.75px; font-family:Arial;" text-anchor="middle"><textPath startOffset="22.20632615414155" xlink:href="#id70">October</textPath></text><path d="M 79.00175016825051 100.2711162175752 l -32.042875891035855 0.41371749462062435 a53.045546609999995,53.045546609999995 0 0,0 -0.003929671459093869,-0.9131172534771503 l 32.045249859784455 0.13790923706020133" fill="red" stroke="none" /><path d="M 79.00019446554 99.90962569577889 l -31.803683636772128 -0.1368696379414267 a52.80397815,52.80397815 0 0,0 0.01173503762773112,-0.908891596732956 l 31.79661559202668 0.6842974927348546" fill="red" stroke="none" /><line stroke="#e1ed5e" stroke-width="0.3" x1="26.266209847984257" x2="21.92892807433627" y1="57.711370442889674" y2="55.22380399835377" /><path d="M 25.39875349325466 57.213857153982495 a86.0,86.0 0 0,1 29.58750427330802,-30.492523968695096" fill="none" id="id71" stroke="none" /><text fill="#e1ed5e" style="font-size:6.75px; font-family:Arial;" text-anchor="middle"><textPath startOffset="21.46611528233685" xlink:href="#id71">November</textPath></text><path d="M 82.54541684631803 88.32363383020206 l -26.613139429259153 -17.80304680827436 a53.01886422,53.01886422 0 0,0 0.5139687434868097,-0.7541857106550393 l 26.3027462201036 18.258510542199815" fill="red" stroke="none" /><path d="M 84.5562425177563 85.77008943001954 l -23.165636223365553 -21.344865854970696 a52.5,52.5 0 0,0 0.6180816950738601,-0.6593264578048746 l 22.79478720632124 21.740461729653617" fill="red" stroke="none" /><line stroke="#e1ed5e" stroke-width="0.3" x1="56.762969772571076" x2="54.21961505331055" y1="26.818313649435495" y2="22.513508569990535" /><path d="M 56.25429882871897 25.957352633546506 a86.0,86.0 0 0,1 42.265352541879196,-11.944610805530505" fill="none" id="id72" stroke="none" /><text fill="#e1ed5e" style="font-size:6.75px; font-family:Arial;" text-anchor="middle"><textPath startOffset="22.20632615414155" xlink:href="#id72">December</textPath></text></svg>